<svg width="112" height="40" viewBox="0 0 112 40" fill="none" xmlns="http://www.w3.org/2000/svg">
<path d="M26.3105 5.59479V15.1809C22.1275 10.9959 15.3483 10.9959 11.1675 15.1831C6.98674 19.3703 6.98674 26.1596 11.1675 30.3468L16.8129 36.0001H5.45448C-1.82872 28.6695 -1.81859 16.8135 5.48755 9.49506C11.1185 3.85826 19.4395 2.55799 26.3105 5.59479ZM26.3105 28.2881V15.1831L13.2241 28.2881H26.3105ZM44.3798 15.7143H37.8443V11.9447H43.8603V9.84706H37.8443V6.09772H44.3259V4.00013H35.3419V17.8113H44.3798V15.7143ZM98.5627 6.09772H101.004V4.00013H98.5627V6.09772ZM108.852 15.2225C108.658 15.4833 108.419 15.6833 108.133 15.8199C107.848 15.958 107.525 16.0263 107.165 16.0263C106.658 16.0263 106.216 15.8897 105.841 15.6183C105.465 15.3468 105.173 14.9575 104.967 14.4519C104.761 13.9463 104.657 13.3303 104.657 12.6337C104.657 11.9372 104.762 11.3383 104.97 10.8401C105.178 10.342 105.473 9.95906 105.849 9.69079C106.228 9.42252 106.665 9.28919 107.165 9.28919C107.754 9.28919 108.224 9.45666 108.578 9.79159C108.932 10.1265 109.155 10.5425 109.25 11.0423H111.582C111.528 10.2961 111.308 9.64279 110.922 9.08279C110.536 8.52279 110.018 8.09026 109.368 7.78146C108.717 7.47266 107.973 7.31906 107.132 7.31906C106.121 7.31906 105.246 7.54572 104.506 7.99692C103.768 8.44866 103.195 9.07799 102.79 9.88492C102.385 10.6929 102.184 11.6268 102.184 12.6743C102.184 13.7217 102.382 14.6476 102.781 15.4497C103.179 16.2519 103.747 16.8801 104.487 17.3345C105.227 17.7889 106.113 18.0156 107.148 18.0156L107.145 18.014C108.013 18.014 108.768 17.8556 109.411 17.5393C110.055 17.2231 110.562 16.7825 110.936 16.2177C111.308 15.6545 111.524 15.0044 111.583 14.2727H109.25C109.177 14.6465 109.046 14.9617 108.852 15.2225ZM59.4038 7.45346H56.9622V17.8119H59.4038V7.45346ZM72.1563 15.5159C71.7515 14.7185 71.5499 13.7596 71.5499 12.694C71.5499 11.6284 71.7531 10.6913 72.1595 9.88439C72.5675 9.07746 73.1371 8.44812 73.8689 7.99639C74.6027 7.54359 75.4635 7.31852 76.4518 7.31852C77.0913 7.31852 77.6945 7.42092 78.2641 7.62572C78.8321 7.82892 79.3361 8.14519 79.775 8.57186C80.2123 9.00012 80.5585 9.54306 80.8097 10.2007C81.0609 10.8599 81.1867 11.6433 81.1867 12.5511V13.3004H73.9734C73.9798 13.8775 74.0897 14.3724 74.3025 14.7863C74.5227 15.2161 74.8299 15.5447 75.2257 15.7713C75.6214 15.9991 76.0849 16.1127 76.6171 16.1127C76.9707 16.1127 77.2918 16.0615 77.5787 15.9607C77.8673 15.8599 78.1169 15.7095 78.3281 15.5121C78.5393 15.3137 78.6993 15.0684 78.8075 14.7767H81.1019C80.9531 15.6204 80.6086 16.2444 80.1713 16.7068C80.1515 16.7287 80.1307 16.75 80.111 16.7703C79.7339 17.1409 79.2731 17.4327 78.7254 17.6465C78.1019 17.8919 77.3867 18.014 76.5814 18.014C75.5435 18.014 74.647 17.7969 73.8945 17.3623C73.1403 16.9292 72.5611 16.3132 72.1563 15.5159ZM73.9761 11.6545H78.8475C78.8427 11.1879 78.7419 10.7703 78.5435 10.4044C78.3462 10.0369 78.0699 9.74839 77.7185 9.53719C77.3643 9.32599 76.9553 9.22092 76.4865 9.22092C75.9867 9.22092 75.5494 9.34039 75.1707 9.58092C74.7937 9.82146 74.5009 10.1361 74.2929 10.5255C74.1051 10.8732 73.999 11.2481 73.9761 11.6545ZM59.4054 4.00013H56.9633V6.09772H59.4054V4.00013ZM55.2139 9.72759C55.5942 10.5217 55.7835 11.4929 55.7835 12.6439C55.7835 13.7948 55.5974 14.7473 55.2235 15.5431C54.8497 16.3388 54.3425 16.9457 53.6982 17.3644C53.0561 17.7831 52.327 17.9911 51.5126 17.9911C50.9185 17.9911 50.4267 17.8919 50.0358 17.6945C49.6449 17.4972 49.3313 17.2572 49.0955 16.9761C48.8598 16.6956 48.6769 16.4284 48.5462 16.1772H48.4454V21.6935H46.0054V7.45346H48.407V9.16599H48.5483C48.6742 8.91479 48.8523 8.64652 49.0806 8.35906C49.3099 8.07372 49.6203 7.82839 50.0113 7.62359C50.4022 7.41879 50.9019 7.31639 51.5083 7.31639C52.3089 7.31639 53.0315 7.51959 53.6769 7.92599C54.3222 8.33239 54.8342 8.93346 55.2139 9.72759ZM53.2966 12.6348C53.2966 11.9879 53.2049 11.4204 53.0209 10.9223C52.8363 10.4225 52.5617 10.0316 52.1985 9.74946C51.8337 9.46572 51.3793 9.32439 50.8363 9.32439C50.2934 9.32439 49.8715 9.46092 49.5083 9.73559C49.1441 10.0103 48.8694 10.3948 48.6817 10.8881C48.4955 11.3831 48.4022 11.9649 48.4022 12.6348L48.399 12.6332C48.399 13.3031 48.495 13.8897 48.6859 14.3937C48.8769 14.8977 49.1531 15.2903 49.5158 15.5713C49.8774 15.8524 50.3179 15.9932 50.8342 15.9932C51.3505 15.9932 51.8257 15.8487 52.1899 15.5591C52.5547 15.2689 52.8294 14.8716 53.0166 14.3644C53.2027 13.8588 53.2966 13.2817 53.2966 12.6348ZM98.5611 17.8113H101.003V7.45346H98.5611V17.8113ZM67.8193 16.1809C67.6939 16.4321 67.5105 16.6993 67.2731 16.9799C67.0342 17.2604 66.7206 17.4993 66.3286 17.6983C65.9382 17.8967 65.4459 17.9943 64.8545 17.9943C64.0406 17.9943 63.3137 17.7847 62.6705 17.3676C62.0267 16.9489 61.519 16.342 61.1457 15.5463C60.7718 14.7505 60.5857 13.7841 60.5857 12.6465C60.5857 11.5089 60.775 10.5228 61.1553 9.73026C61.5355 8.93612 62.0486 8.33719 62.6961 7.92919C63.343 7.52279 64.0657 7.31959 64.8614 7.31959C65.4683 7.31959 65.9675 7.42199 66.3585 7.62679C66.7494 7.83159 67.0593 8.07639 67.2891 8.36226C67.5185 8.64759 67.6961 8.91586 67.8214 9.16919H67.9222V4.00013H70.3702V17.8113H67.9686V16.1809H67.8193ZM67.6891 14.3921C67.8785 13.8881 67.9729 13.3015 67.9729 12.6316C67.9729 11.9617 67.8795 11.3799 67.6939 10.8849C67.5078 10.39 67.2331 10.0055 66.8715 9.73239C66.5099 9.45772 66.0651 9.32119 65.5387 9.32119C65.0123 9.32119 64.5414 9.46252 64.1766 9.74626C63.8123 10.03 63.5377 10.4209 63.3547 10.9191C63.1702 11.4188 63.0785 11.9895 63.0785 12.6316C63.0785 13.2737 63.1718 13.8556 63.3574 14.3612C63.5435 14.8668 63.8214 15.2657 64.1878 15.5559C64.5537 15.846 65.0049 15.9905 65.5403 15.9905L65.5371 15.9921C66.0539 15.9921 66.4945 15.8508 66.8587 15.5703C67.2235 15.2892 67.4998 14.8967 67.6891 14.3921ZM93.6982 7.31639C92.9473 7.31639 92.2987 7.48866 91.7531 7.83319C91.207 8.17772 90.8193 8.63692 90.5894 9.21239H90.4806C90.2822 8.62892 89.9425 8.16652 89.4582 7.82679C88.9745 7.48706 88.3723 7.31799 87.6806 7.31799C86.9889 7.31799 86.3915 7.48546 85.8934 7.82039C85.3953 8.15532 85.0369 8.61932 84.8214 9.21346H84.7003V7.45292H82.3675V17.8113H84.8107V11.5116C84.8107 11.0849 84.8961 10.7095 85.0667 10.3884C85.2374 10.0657 85.4673 9.81772 85.7542 9.63906C86.0411 9.46039 86.3606 9.37239 86.7115 9.37239C87.2283 9.37239 87.6486 9.53239 87.9697 9.85186C88.2907 10.1713 88.4523 10.598 88.4523 11.1335V17.8119H90.8459V11.3489C90.8459 10.7655 91.0118 10.2892 91.3419 9.92332C91.6726 9.55692 92.1318 9.37399 92.7211 9.37399C93.2161 9.37399 93.6347 9.52279 93.9761 9.82252C94.3174 10.1223 94.4881 10.5937 94.4881 11.2359V17.8119H96.9361V10.8588C96.9361 9.70306 96.6331 8.82359 96.0315 8.22146C95.4299 7.61826 94.6502 7.31639 93.6982 7.31639ZM55.0939 27.838C55.5003 28.6433 55.7035 29.5799 55.7035 30.6503C55.7035 31.7207 55.5003 32.6561 55.0939 33.4567C54.6875 34.2572 54.1121 34.8791 53.3702 35.3244C52.6289 35.7697 51.7521 35.9916 50.7409 35.9916C49.7297 35.9916 48.8518 35.7697 48.1099 35.3244C47.3686 34.8791 46.7942 34.2572 46.3862 33.4567C45.9798 32.6561 45.7766 31.7191 45.7766 30.6503C45.7766 29.5815 45.9798 28.6428 46.3862 27.838C46.7942 27.0343 47.3681 26.4092 48.1099 25.9639C48.8518 25.5185 49.7297 25.2951 50.7409 25.2951C51.7521 25.2951 52.6289 25.5185 53.3702 25.9639C54.1115 26.4092 54.6875 27.0343 55.0939 27.838ZM53.2294 30.6444C53.2294 30.0097 53.1377 29.4359 52.9563 28.9207C52.7729 28.4055 52.4982 27.9959 52.1297 27.6903C51.7622 27.3847 51.3153 27.2311 50.7537 27.2311C50.1921 27.2311 49.7254 27.3847 49.3542 27.6903C48.9835 27.9959 48.7073 28.4055 48.5259 28.9207C48.343 29.4359 48.2513 30.0145 48.2513 30.6444C48.2513 31.2743 48.343 31.8449 48.5259 32.3569C48.7078 32.8705 48.9841 33.2785 49.3542 33.5809C49.7254 33.8849 50.2043 34.0369 50.7537 34.0369C51.303 34.0369 51.7622 33.8849 52.1297 33.5809C52.4987 33.2785 52.7734 32.8705 52.9563 32.3569C53.1377 31.8449 53.2294 31.2785 53.2294 30.6444ZM74.9094 25.7548C74.3771 25.4492 73.7537 25.2956 73.0385 25.2956C72.2646 25.2956 71.6161 25.4679 71.0934 25.8092C70.5691 26.1505 70.1873 26.6113 69.9499 27.1916H69.8273V25.4311H67.4945V35.7895H69.9361V29.7207C69.9361 29.2225 70.0294 28.7975 70.2155 28.4471C70.4033 28.0967 70.6609 27.8268 70.991 27.6401C71.3217 27.454 71.7003 27.3607 72.1281 27.3607C72.7579 27.3607 73.2513 27.5559 73.6081 27.9473C73.9649 28.3383 74.1451 28.8796 74.1451 29.5729V35.7889H76.5851V29.1943C76.5899 28.3676 76.4454 27.6631 76.151 27.0828C75.8561 26.5041 75.4427 26.0604 74.9094 25.7548ZM63.4267 31.4343C63.4267 31.9601 63.3179 32.3975 63.1009 32.7452C62.8822 33.0945 62.6043 33.3564 62.2678 33.5319C61.9291 33.7073 61.5819 33.7937 61.2219 33.7937C60.6369 33.7937 60.1654 33.6012 59.8054 33.2135C59.4454 32.8273 59.2657 32.3057 59.2657 31.6497V25.4305H56.8241V32.0268C56.8241 32.8535 56.9697 33.5596 57.263 34.1415C57.5547 34.7233 57.9611 35.1671 58.4806 35.4711C58.999 35.7735 59.599 35.9255 60.2769 35.9255C61.0561 35.9255 61.7105 35.7409 62.2427 35.3729C62.7766 35.0039 63.1595 34.5292 63.3937 33.9489H63.5009V35.7889H65.8678V25.4305H63.4262L63.4267 31.4343ZM85.1025 21.9772H87.5505V35.7884H85.1489V34.158H85.0001C84.8747 34.4092 84.6929 34.6759 84.4539 34.9569C84.2166 35.238 83.9014 35.478 83.5105 35.6753C83.1179 35.8737 82.6262 35.9713 82.0321 35.9713C81.2193 35.9713 80.4902 35.7633 79.8481 35.3447C79.2043 34.9276 78.6966 34.3191 78.3227 33.5233C77.9505 32.7276 77.7643 31.7751 77.7643 30.6241C77.7643 29.4732 77.9537 28.5004 78.3334 27.7079C78.7137 26.9137 79.2273 26.3132 79.8742 25.9068C80.5227 25.5004 81.2438 25.2956 82.0401 25.2956C82.6465 25.2956 83.1462 25.398 83.5371 25.6028C83.9281 25.8076 84.2385 26.0524 84.4678 26.3383C84.6971 26.6236 84.8742 26.8919 84.9995 27.1452H85.1019L85.1025 21.9772ZM85.1489 30.6103C85.1489 29.9399 85.0555 29.3585 84.8699 28.8636C84.6822 28.3687 84.4075 27.9857 84.0459 27.7111C83.6843 27.4364 83.2593 27.2999 82.7147 27.2999C82.1702 27.2999 81.7158 27.4412 81.3515 27.7233C80.9883 28.0071 80.7137 28.398 80.5291 28.8977C80.3446 29.3975 80.2529 29.9617 80.2529 30.6103C80.2529 31.2588 80.3462 31.8343 80.5318 32.3399C80.7179 32.8455 80.9958 33.2444 81.3617 33.5345C81.7275 33.8247 82.1979 33.9692 82.7142 33.9692C83.2305 33.9692 83.6715 33.8295 84.0358 33.5489C84.399 33.2668 84.6763 32.8759 84.8641 32.3713C85.0534 31.8673 85.1489 31.2801 85.1489 30.6103ZM43.7366 29.2081C43.3521 28.8935 42.9174 28.6327 42.4353 28.4263C41.951 28.2183 41.4486 28.0556 40.927 27.9329L39.6315 27.6103C39.3489 27.542 39.0683 27.4599 38.7894 27.3607C38.5099 27.2615 38.2571 27.1388 38.0273 26.9932C37.7974 26.8476 37.6161 26.6673 37.4843 26.4567C37.351 26.2455 37.2843 25.9959 37.2843 25.7089C37.2891 25.3612 37.391 25.054 37.5883 24.7841C37.7867 24.5143 38.0726 24.3015 38.4449 24.1436C38.8187 23.9868 39.2657 23.9079 39.7867 23.9079C40.5297 23.9079 41.1329 24.0721 41.5985 24.3996C42.0641 24.7287 42.3275 25.1863 42.3894 25.7756H44.799C44.7851 24.9985 44.5659 24.3095 44.1441 23.7095C43.7206 23.1089 43.1403 22.6391 42.4006 22.2993C41.6603 21.9596 40.7873 21.7905 39.8209 21.7905C38.8545 21.7905 37.9889 21.9596 37.2241 22.2993C36.4609 22.6391 35.8561 23.1137 35.4139 23.7249C34.9718 24.3377 34.7499 25.0497 34.7499 25.8641C34.7499 26.8524 35.079 27.6449 35.7382 28.2407C36.3963 28.8364 37.2945 29.2801 38.4331 29.5735L40.0027 29.9783C40.4977 30.1041 40.9307 30.2465 41.3014 30.4065C41.6726 30.5665 41.9622 30.7633 42.1686 30.9991C42.375 31.2348 42.4806 31.5329 42.4849 31.8929C42.4801 32.2887 42.3622 32.6343 42.1281 32.9292C41.8939 33.2225 41.5713 33.4519 41.1601 33.6161C40.7489 33.7804 40.2481 33.8631 39.7265 33.8631C39.2049 33.8631 38.7334 33.7836 38.3137 33.6273C37.8934 33.4689 37.5531 33.2316 37.2929 32.9121C37.0326 32.5927 36.8833 32.1921 36.8481 31.7116C36.8481 31.7116 36.8331 31.5841 36.8481 31.2791H34.3862C34.3723 31.5745 34.3862 31.7116 34.3862 31.7116C34.4219 32.6284 34.6625 33.4071 35.1046 34.0449C35.5467 34.6839 36.1638 35.1697 36.9521 35.5015C37.7414 35.8348 38.6417 36.0012 39.7473 36.0012C40.8529 36.0012 41.7963 35.8289 42.5771 35.4844C43.3574 35.1415 43.9547 34.662 44.3675 34.0481C44.7819 33.4353 44.9883 32.7233 44.9883 31.9137C44.9883 31.3164 44.8763 30.7953 44.6518 30.35C44.4267 29.9047 44.1227 29.5244 43.7382 29.2097L43.7366 29.2081Z" fill="black"/>
</svg>
