<svg width="40" height="40" viewBox="0 0 40 40" fill="none" xmlns="http://www.w3.org/2000/svg">
<g clip-path="url(#clip0_165_409)">
<path d="M0 12C0 5.37258 5.37258 0 12 0H28C34.6274 0 40 5.37258 40 12V28C40 34.6274 34.6274 40 28 40H12C5.37258 40 0 34.6274 0 28V12Z" fill="#F46085"/>
<path fill-rule="evenodd" clip-rule="evenodd" d="M20.4787 31.8835C17.073 31.9228 13.9895 30.5192 11.7575 28.3134C9.52553 26.1075 8.14502 23.0602 8.14502 19.6942C8.14502 15.9573 10.0324 11.5614 14.1363 9.2947C18.2402 7.02801 19.3687 8.39324 21.6038 10.329C23.4904 11.9629 22.4355 7.5004 24.8342 8.29112C26.3577 8.79338 27.691 9.80128 27.7525 9.83673C29.4757 11.0854 30.8558 12.7599 31.7446 14.7252C31.7702 14.7999 31.7944 14.8756 31.8194 14.9516C32.8478 18.0572 29.3352 17.9575 25.1656 17.9575C24.7409 17.9575 26.4131 17.9575 22.8492 17.9575C22.6272 17.9575 22.3141 17.9575 21.9157 18.0572C21.7911 18.0884 21.6297 18.7365 23.0327 19.1377C24.4361 19.5389 24.7674 19.1834 24.7674 19.6963C24.7674 20.722 23.3911 21.2621 21.754 21.0936C20.1165 20.9251 18.5406 19.5389 18.5406 19.5389C17.8888 20.0032 17.3758 20.8279 17.3949 22.297C17.4323 25.1787 19.6577 26.657 21.9928 26.919C24.8852 27.2436 27.4283 25.0559 26.6039 23.5332C26.3032 22.9776 25.3249 22.5181 24.5989 23.2971C24.1857 23.7407 23.9987 24.0117 23.7095 23.9452C23.3514 23.8628 22.9582 23.4492 23.8942 22.2221C24.9812 20.7974 27.9578 20.613 29.3838 22.5968C31.0687 24.9412 29.0454 31.7852 20.4787 31.8835ZM25.8338 13.5993C26.379 13.5993 26.8207 13.1627 26.8207 12.6242C26.8207 12.0856 26.379 11.649 25.8338 11.649C25.289 11.649 24.8472 12.0856 24.8472 12.6242C24.8472 13.1627 25.289 13.5993 25.8338 13.5993Z" fill="white"/>
</g>
<defs>
<clipPath id="clip0_165_409">
<rect width="40" height="40" rx="12" fill="white"/>
</clipPath>
</defs>
</svg>
