<svg width="95" height="40" viewBox="0 0 95 40" fill="none" xmlns="http://www.w3.org/2000/svg">
<g clip-path="url(#clip0_165_430)">
<path d="M0 19.9995C0 11.8611 0 7.79186 1.99444 4.89379C2.77486 3.75978 3.75556 2.77798 4.88829 1.99668C7.78311 0 11.8478 0 19.9771 0H74.9732C83.102 0 87.1671 0 90.0617 1.99668C91.1947 2.77798 92.1756 3.75978 92.9557 4.89379C94.9501 7.79186 94.9501 11.8611 94.9501 19.9995C94.9501 28.1381 94.9501 32.2073 92.9557 35.1054C92.1756 36.2393 91.1947 37.2211 90.0617 38.0024C87.1671 39.9991 83.102 39.9991 74.9732 39.9991H19.9772C11.8478 39.9991 7.78311 39.9991 4.88829 38.0024C3.75556 37.2211 2.77486 36.2393 1.99444 35.1054C0 32.2073 0 28.1381 0 19.9995Z" fill="#FFA8CD"/>
<path d="M76.5098 25.5501C74.8532 25.5501 73.562 24.1786 73.562 22.5134C73.562 20.848 74.8532 19.4766 76.5098 19.4766C78.1664 19.4766 79.4575 20.848 79.4575 22.5134C79.4575 24.1786 78.1664 25.5501 76.5098 25.5501ZM75.6812 28.7583C77.0943 28.7583 78.8972 28.2195 79.8965 26.1134L79.9936 26.1624C79.5553 27.3134 79.5553 27.9991 79.5553 28.1706V28.4399H83.1119V16.5867H79.5553V16.8562C79.5553 17.0276 79.5553 17.7133 79.9936 18.8643L79.8965 18.9133C78.8972 16.8072 77.0943 16.2684 75.6812 16.2684C72.2951 16.2684 69.9077 18.9623 69.9077 22.5134C69.9077 26.0644 72.2951 28.7583 75.6812 28.7583ZM63.7193 16.2684C62.1113 16.2684 60.8444 16.8317 59.8212 18.9133L59.7238 18.8643C60.1623 17.7133 60.1623 17.0276 60.1623 16.8562V16.5867H56.6053V28.4399H60.2597V22.1949C60.2597 20.5541 61.2099 19.5255 62.7447 19.5255C64.2796 19.5255 65.0349 20.4072 65.0349 22.1704V28.4399H68.6893V20.897C68.6893 18.2031 66.5938 16.2684 63.7193 16.2684ZM51.3186 18.9133L51.2211 18.8643C51.6596 17.7133 51.6596 17.0276 51.6596 16.8562V16.5867H48.1027V28.4399H51.7571L51.7814 22.7337C51.7814 21.0684 52.6585 20.0643 54.0959 20.0643C54.4857 20.0643 54.8025 20.1133 55.1679 20.2113V16.5867C53.5599 16.2439 52.1225 16.8562 51.3186 18.9133ZM39.6975 25.5501C38.0407 25.5501 36.7495 24.1786 36.7495 22.5134C36.7495 20.848 38.0407 19.4766 39.6975 19.4766C41.3541 19.4766 42.6454 20.848 42.6454 22.5134C42.6454 24.1786 41.3541 25.5501 39.6975 25.5501ZM38.8691 28.7583C40.2822 28.7583 42.085 28.2195 43.0839 26.1134L43.1813 26.1624C42.7428 27.3134 42.7428 27.9991 42.7428 28.1706V28.4399H46.2998V16.5867H42.7428V16.8562C42.7428 17.0276 42.7428 17.7133 43.1813 18.8643L43.0839 18.9133C42.085 16.8072 40.2822 16.2684 38.8691 16.2684C35.4826 16.2684 33.0951 18.9623 33.0951 22.5134C33.0951 26.0644 35.4826 28.7583 38.8691 28.7583ZM28.0032 28.4399H31.6577V11.2969H28.0032V28.4399ZM25.3233 11.2969H21.5958C21.5958 14.3582 19.7198 17.101 16.8694 19.0602L15.7487 19.8439V11.2969H11.875V28.4399H15.7487V19.9419L22.1561 28.4399H26.8826L20.7187 20.3092C23.5204 18.2766 25.3477 15.1173 25.3233 11.2969Z" fill="#0B051D"/>
</g>
<defs>
<clipPath id="clip0_165_430">
<rect width="95" height="40" fill="white"/>
</clipPath>
</defs>
</svg>
