<svg width="184" height="78" viewBox="0 0 184 78" fill="none" xmlns="http://www.w3.org/2000/svg">
<path d="M0 39C0 17.4609 17.4609 0 39 0H184V39C184 60.5391 166.539 78 145 78H39C17.4609 78 0 60.5391 0 39V39Z" fill="#D32E2E"/>
<path d="M29.925 50.7L29.95 44.325L43.55 30.25H50.375L29.925 50.7ZM27.025 56V20.2H32.375V56H27.025ZM44.35 56L35.475 42.55L39.2 38.825L50.925 56H44.35ZM52.734 56V20.2H58.084V56H52.734ZM71.2348 56.725C68.4014 56.725 66.0931 55.9417 64.3098 54.375C62.5264 52.8083 61.6348 50.775 61.6348 48.275C61.6348 45.675 62.6431 43.6 64.6598 42.05C66.6764 40.4833 69.2931 39.7 72.5098 39.7C73.8431 39.7 75.1598 39.85 76.4598 40.15C77.7598 40.4333 78.8348 40.8083 79.6848 41.275V39.7C79.6848 37.9333 79.0681 36.525 77.8348 35.475C76.6014 34.425 75.0264 33.9 73.1098 33.9C72.0598 33.9 71.1598 34.025 70.4098 34.275C69.6598 34.525 68.9931 34.8417 68.4098 35.225C67.8431 35.6083 67.2931 36.0667 66.7598 36.6C66.2431 37.1167 65.9848 37.375 65.9848 37.375L62.5348 34.45C62.5348 34.45 62.9014 34.0917 63.6348 33.375C64.3681 32.6417 65.1931 31.9833 66.1098 31.4C67.0431 30.8 68.0931 30.3417 69.2598 30.025C70.4264 29.6917 71.8431 29.525 73.5098 29.525C77.0098 29.525 79.7681 30.425 81.7848 32.225C83.8181 34.025 84.8348 36.5083 84.8348 39.675V56H79.7348V50.225L81.2098 52.325H79.6098C78.7931 53.6583 77.6348 54.725 76.1348 55.525C74.6514 56.325 73.0181 56.725 71.2348 56.725ZM72.2598 52.525C74.3931 52.525 76.1598 51.775 77.5598 50.275C78.9764 48.775 79.6848 47.0083 79.6848 44.975V44.9C78.9181 44.4 77.9764 44.0083 76.8598 43.725C75.7598 43.425 74.6014 43.275 73.3848 43.275C71.3848 43.275 69.7931 43.6833 68.6098 44.5C67.4431 45.3 66.8598 46.4917 66.8598 48.075C66.8598 49.4417 67.3598 50.525 68.3598 51.325C69.3764 52.125 70.6764 52.525 72.2598 52.525ZM89.6012 56V30.25H94.7012V34.9L94.1012 34.325H94.8262C95.4095 32.875 96.3845 31.7167 97.7512 30.85C99.1178 29.9667 100.543 29.525 102.026 29.525C102.426 29.525 102.843 29.5583 103.276 29.625C103.726 29.675 104.126 29.7583 104.476 29.875C104.843 29.975 105.026 30.025 105.026 30.025V35.25C105.026 35.25 104.793 35.1833 104.326 35.05C103.876 34.9167 103.385 34.8083 102.851 34.725C102.335 34.6417 101.893 34.6 101.526 34.6C99.7095 34.6 98.1595 35.2917 96.8762 36.675C95.5928 38.0583 94.9512 39.825 94.9512 41.975V56H89.6012ZM107.693 56V30.25H112.843V34.85L112.143 34.05H112.943C113.726 32.7167 114.893 31.6333 116.443 30.8C117.993 29.95 119.626 29.525 121.343 29.525C124.293 29.525 126.593 30.4083 128.243 32.175C129.893 33.925 130.718 36.325 130.718 39.375V56H125.368V40.425C125.368 38.425 124.885 36.8917 123.918 35.825C122.951 34.7417 121.501 34.2 119.568 34.2C117.735 34.2 116.185 34.9083 114.918 36.325C113.668 37.725 113.043 39.4417 113.043 41.475V56H107.693ZM143.528 56.725C140.694 56.725 138.386 55.9417 136.603 54.375C134.819 52.8083 133.928 50.775 133.928 48.275C133.928 45.675 134.936 43.6 136.953 42.05C138.969 40.4833 141.586 39.7 144.803 39.7C146.136 39.7 147.453 39.85 148.753 40.15C150.053 40.4333 151.128 40.8083 151.978 41.275V39.7C151.978 37.9333 151.361 36.525 150.128 35.475C148.894 34.425 147.319 33.9 145.403 33.9C144.353 33.9 143.453 34.025 142.703 34.275C141.953 34.525 141.286 34.8417 140.703 35.225C140.136 35.6083 139.586 36.0667 139.053 36.6C138.536 37.1167 138.278 37.375 138.278 37.375L134.828 34.45C134.828 34.45 135.194 34.0917 135.928 33.375C136.661 32.6417 137.486 31.9833 138.403 31.4C139.336 30.8 140.386 30.3417 141.553 30.025C142.719 29.6917 144.136 29.525 145.803 29.525C149.303 29.525 152.061 30.425 154.078 32.225C156.111 34.025 157.128 36.5083 157.128 39.675V56H152.028V50.225L153.503 52.325H151.903C151.086 53.6583 149.928 54.725 148.428 55.525C146.944 56.325 145.311 56.725 143.528 56.725ZM144.553 52.525C146.686 52.525 148.453 51.775 149.853 50.275C151.269 48.775 151.978 47.0083 151.978 44.975V44.9C151.211 44.4 150.269 44.0083 149.153 43.725C148.053 43.425 146.894 43.275 145.678 43.275C143.678 43.275 142.086 43.6833 140.903 44.5C139.736 45.3 139.153 46.4917 139.153 48.075C139.153 49.4417 139.653 50.525 140.653 51.325C141.669 52.125 142.969 52.525 144.553 52.525Z" fill="white"/>
</svg>
