<svg width="244" height="78" viewBox="0 0 244 78" fill="none" xmlns="http://www.w3.org/2000/svg">
<path d="M0 39C0 17.4609 17.4609 0 39 0H244V39C244 60.5391 226.539 78 205 78H39C17.4609 78 0 60.5391 0 39V39Z" fill="#1A1A1A"/>
<path d="M37.8 56.725C34.3 56.725 31.3833 55.4583 29.05 52.925C26.7167 50.3917 25.55 47.1333 25.55 43.15C25.55 39.1667 26.7333 35.9083 29.1 33.375C31.4667 30.825 34.4167 29.55 37.95 29.55C39.8 29.55 41.5083 29.9583 43.075 30.775C44.6417 31.575 45.8167 32.6417 46.6 33.975L46.625 33.9V20.2H51.925V56H46.825V51.45L47.325 52.075L46.8 52.2C45.9833 53.5833 44.7583 54.6833 43.125 55.5C41.5083 56.3167 39.7333 56.725 37.8 56.725ZM38.825 52.075C41.1083 52.075 43.0083 51.2333 44.525 49.55C46.0583 47.85 46.825 45.7083 46.825 43.125C46.825 40.5083 46.05 38.375 44.5 36.725C42.95 35.075 41.0583 34.25 38.825 34.25C36.5583 34.25 34.65 35.075 33.1 36.725C31.5667 38.3583 30.8 40.5 30.8 43.15C30.8 45.7667 31.5667 47.9083 33.1 49.575C34.65 51.2417 36.5583 52.075 38.825 52.075ZM68.682 56.725C64.8487 56.725 61.6904 55.45 59.207 52.9C56.7404 50.3333 55.507 47.0667 55.507 43.1C55.507 39.1833 56.732 35.9417 59.182 33.375C61.6487 30.8083 64.7404 29.525 68.457 29.525C72.1904 29.525 75.207 30.6667 77.507 32.95C79.8237 35.2333 80.982 38.1167 80.982 41.6V44.225H58.332V40.6H75.732C75.632 38.7167 74.9237 37.1583 73.607 35.925C72.307 34.675 70.5904 34.05 68.457 34.05C66.1904 34.05 64.3237 34.875 62.857 36.525C61.407 38.1583 60.682 40.3333 60.682 43.05C60.682 45.85 61.482 48.0917 63.082 49.775C64.6987 51.4417 66.682 52.275 69.032 52.275C70.1654 52.275 71.1487 52.1167 71.982 51.8C72.8154 51.4833 73.5654 51.0417 74.232 50.475C74.9154 49.9083 75.6654 49.0167 76.482 47.8L80.407 50.025C79.4237 51.7917 78.3737 53.125 77.257 54.025C76.157 54.925 74.9237 55.6 73.557 56.05C72.207 56.5 70.582 56.725 68.682 56.725ZM93.6727 56.725C91.9393 56.725 90.4227 56.5167 89.1227 56.1C87.8393 55.7 86.6977 55.1 85.6977 54.3C84.6977 53.4833 83.9143 52.6 83.3477 51.65C82.781 50.7 82.4977 50.225 82.4977 50.225L86.5227 47.9C86.5227 47.9 86.7477 48.25 87.1977 48.95C87.6643 49.65 88.2143 50.2667 88.8477 50.8C89.481 51.3333 90.1977 51.7417 90.9977 52.025C91.8143 52.2917 92.7893 52.425 93.9227 52.425C95.4227 52.425 96.631 52.1333 97.5477 51.55C98.4643 50.95 98.9227 50.1 98.9227 49C98.9227 48.0333 98.5393 47.2833 97.7727 46.75C97.006 46.2 95.381 45.6417 92.8977 45.075C89.5143 44.2917 87.106 43.2583 85.6727 41.975C84.2393 40.675 83.5227 39.025 83.5227 37.025C83.5227 34.7917 84.4727 32.9833 86.3727 31.6C88.2893 30.2167 90.6643 29.525 93.4977 29.525C94.9643 29.525 96.2643 29.6833 97.3977 30C98.5477 30.3167 99.581 30.8083 100.498 31.475C101.431 32.1417 102.156 32.8583 102.673 33.625C103.206 34.3917 103.473 34.775 103.473 34.775L99.6227 37.15C99.6227 37.15 99.4227 36.8917 99.0227 36.375C98.6227 35.8583 98.1393 35.4 97.5727 35C97.0227 34.6 96.3977 34.3083 95.6977 34.125C94.9977 33.9417 94.231 33.85 93.3977 33.85C91.981 33.85 90.8393 34.1417 89.9727 34.725C89.1227 35.3083 88.6977 36 88.6977 36.8C88.6977 37.7 89.0727 38.4333 89.8227 39C90.5727 39.5667 92.2643 40.1583 94.8977 40.775C98.2477 41.5417 100.623 42.5583 102.023 43.825C103.423 45.0917 104.123 46.7167 104.123 48.7C104.123 51.1333 103.148 53.0833 101.198 54.55C99.2643 56 96.756 56.725 93.6727 56.725ZM107.825 56V30.25H113.175V56H107.825ZM110.475 25.9C109.558 25.9 108.766 25.575 108.1 24.925C107.45 24.275 107.125 23.4833 107.125 22.55C107.125 21.6 107.45 20.8167 108.1 20.2C108.766 19.5667 109.558 19.25 110.475 19.25C111.441 19.25 112.241 19.5667 112.875 20.2C113.508 20.8167 113.825 21.6 113.825 22.55C113.825 23.4833 113.508 24.275 112.875 24.925C112.241 25.575 111.441 25.9 110.475 25.9ZM130.23 67.2C128.464 67.2 126.864 66.975 125.43 66.525C123.997 66.0917 122.722 65.4417 121.605 64.575C120.489 63.725 119.622 62.7917 119.005 61.775C118.389 60.7583 118.08 60.25 118.08 60.25L122.48 57.925C122.48 57.925 122.722 58.3 123.205 59.05C123.689 59.8167 124.264 60.475 124.93 61.025C125.614 61.5917 126.397 62.0167 127.28 62.3C128.164 62.6 129.139 62.75 130.205 62.75C132.755 62.75 134.705 62.025 136.055 60.575C137.422 59.125 138.105 57.1167 138.105 54.55V51.925H137.98C137.114 53.1917 135.93 54.2167 134.43 55C132.947 55.7833 131.205 56.175 129.205 56.175C125.789 56.175 122.922 54.9417 120.605 52.475C118.305 50.0083 117.155 46.7917 117.155 42.825C117.155 38.9083 118.314 35.7167 120.63 33.25C122.964 30.7667 125.914 29.525 129.48 29.525C131.314 29.525 133.005 29.9167 134.555 30.7C136.122 31.4667 137.322 32.4917 138.155 33.775H139.53L138.28 35.3V30.25H143.38V54.325C143.38 58.4083 142.214 61.575 139.88 63.825C137.564 66.075 134.347 67.2 130.23 67.2ZM130.355 51.55C132.622 51.55 134.505 50.75 136.005 49.15C137.522 47.55 138.272 45.4167 138.255 42.75C138.255 40.15 137.505 38.0667 136.005 36.5C134.505 34.9333 132.614 34.15 130.33 34.15C128.064 34.15 126.172 34.9333 124.655 36.5C123.155 38.0667 122.405 40.1667 122.405 42.8C122.405 45.5333 123.147 47.675 124.63 49.225C126.13 50.775 128.039 51.55 130.355 51.55ZM148.441 56V30.25H153.591V34.85L152.891 34.05H153.691C154.474 32.7167 155.641 31.6333 157.191 30.8C158.741 29.95 160.374 29.525 162.091 29.525C165.041 29.525 167.341 30.4083 168.991 32.175C170.641 33.925 171.466 36.325 171.466 39.375V56H166.116V40.425C166.116 38.425 165.633 36.8917 164.666 35.825C163.699 34.7417 162.249 34.2 160.316 34.2C158.483 34.2 156.933 34.9083 155.666 36.325C154.416 37.725 153.791 39.4417 153.791 41.475V56H148.441ZM187.901 56.725C184.067 56.725 180.909 55.45 178.426 52.9C175.959 50.3333 174.726 47.0667 174.726 43.1C174.726 39.1833 175.951 35.9417 178.401 33.375C180.867 30.8083 183.959 29.525 187.676 29.525C191.409 29.525 194.426 30.6667 196.726 32.95C199.042 35.2333 200.201 38.1167 200.201 41.6V44.225H177.551V40.6H194.951C194.851 38.7167 194.142 37.1583 192.826 35.925C191.526 34.675 189.809 34.05 187.676 34.05C185.409 34.05 183.542 34.875 182.076 36.525C180.626 38.1583 179.901 40.3333 179.901 43.05C179.901 45.85 180.701 48.0917 182.301 49.775C183.917 51.4417 185.901 52.275 188.251 52.275C189.384 52.275 190.367 52.1167 191.201 51.8C192.034 51.4833 192.784 51.0417 193.451 50.475C194.134 49.9083 194.884 49.0167 195.701 47.8L199.626 50.025C198.642 51.7917 197.592 53.125 196.476 54.025C195.376 54.925 194.142 55.6 192.776 56.05C191.426 56.5 189.801 56.725 187.901 56.725ZM203.716 56V30.25H208.816V34.9L208.216 34.325H208.941C209.525 32.875 210.5 31.7167 211.866 30.85C213.233 29.9667 214.658 29.525 216.141 29.525C216.541 29.525 216.958 29.5583 217.391 29.625C217.841 29.675 218.241 29.7583 218.591 29.875C218.958 29.975 219.141 30.025 219.141 30.025V35.25C219.141 35.25 218.908 35.1833 218.441 35.05C217.991 34.9167 217.5 34.8083 216.966 34.725C216.45 34.6417 216.008 34.6 215.641 34.6C213.825 34.6 212.275 35.2917 210.991 36.675C209.708 38.0583 209.066 39.825 209.066 41.975V56H203.716Z" fill="white"/>
</svg>
