<svg width="190" height="78" viewBox="0 0 190 78" fill="none" xmlns="http://www.w3.org/2000/svg">
<path d="M0 39C0 17.4609 17.4609 0 39 0H151C172.539 0 190 17.4609 190 39V78H39C17.4609 78 0 60.5391 0 39V39Z" fill="#D59A2B"/>
<path d="M29.925 50.7L29.95 44.325L43.55 30.25H50.375L29.925 50.7ZM27.025 56V20.2H32.375V56H27.025ZM44.35 56L35.475 42.55L39.2 38.825L50.925 56H44.35ZM60.223 56.725C57.3897 56.725 55.0814 55.9417 53.298 54.375C51.5147 52.8083 50.623 50.775 50.623 48.275C50.623 45.675 51.6314 43.6 53.648 42.05C55.6647 40.4833 58.2814 39.7 61.498 39.7C62.8314 39.7 64.148 39.85 65.448 40.15C66.748 40.4333 67.823 40.8083 68.673 41.275V39.7C68.673 37.9333 68.0564 36.525 66.823 35.475C65.5897 34.425 64.0147 33.9 62.098 33.9C61.048 33.9 60.148 34.025 59.398 34.275C58.648 34.525 57.9814 34.8417 57.398 35.225C56.8314 35.6083 56.2814 36.0667 55.748 36.6C55.2314 37.1167 54.973 37.375 54.973 37.375L51.523 34.45C51.523 34.45 51.8897 34.0917 52.623 33.375C53.3564 32.6417 54.1814 31.9833 55.098 31.4C56.0314 30.8 57.0814 30.3417 58.248 30.025C59.4147 29.6917 60.8314 29.525 62.498 29.525C65.998 29.525 68.7564 30.425 70.773 32.225C72.8064 34.025 73.823 36.5083 73.823 39.675V56H68.723V50.225L70.198 52.325H68.598C67.7814 53.6583 66.623 54.725 65.123 55.525C63.6397 56.325 62.0064 56.725 60.223 56.725ZM61.248 52.525C63.3814 52.525 65.148 51.775 66.548 50.275C67.9647 48.775 68.673 47.0083 68.673 44.975V44.9C67.9064 44.4 66.9647 44.0083 65.848 43.725C64.748 43.425 63.5897 43.275 62.373 43.275C60.373 43.275 58.7814 43.6833 57.598 44.5C56.4314 45.3 55.848 46.4917 55.848 48.075C55.848 49.4417 56.348 50.525 57.348 51.325C58.3647 52.125 59.6647 52.525 61.248 52.525ZM78.5895 56V30.25H83.6895V34.9L83.0895 34.325H83.8145C84.3978 32.875 85.3728 31.7167 86.7395 30.85C88.1061 29.9667 89.5311 29.525 91.0145 29.525C91.4145 29.525 91.8311 29.5583 92.2645 29.625C92.7145 29.675 93.1145 29.7583 93.4645 29.875C93.8311 29.975 94.0145 30.025 94.0145 30.025V35.25C94.0145 35.25 93.7811 35.1833 93.3145 35.05C92.8645 34.9167 92.3728 34.8083 91.8395 34.725C91.3228 34.6417 90.8811 34.6 90.5145 34.6C88.6978 34.6 87.1478 35.2917 85.8645 36.675C84.5811 38.0583 83.9395 39.825 83.9395 41.975V56H78.5895ZM96.6813 56V30.25H101.831V34.65L101.306 34.05H101.956C102.69 32.7167 103.798 31.6333 105.281 30.8C106.765 29.95 108.365 29.525 110.081 29.525C111.931 29.525 113.565 29.975 114.981 30.875C116.415 31.775 117.415 32.9833 117.981 34.5C118.965 32.8667 120.215 31.6333 121.731 30.8C123.265 29.95 124.956 29.525 126.806 29.525C129.706 29.525 131.931 30.4 133.481 32.15C135.031 33.9 135.806 36.3167 135.806 39.4V56H130.506V40.45C130.506 38.3833 130.065 36.825 129.181 35.775C128.298 34.725 126.973 34.2 125.206 34.2C123.473 34.2 121.99 34.9 120.756 36.3C119.54 37.6833 118.931 39.4167 118.931 41.5V56H113.581V40.5C113.581 38.4333 113.14 36.8667 112.256 35.8C111.373 34.7333 110.056 34.2 108.306 34.2C106.556 34.2 105.073 34.9083 103.856 36.325C102.64 37.7417 102.031 39.4833 102.031 41.55V56H96.6813ZM148.678 56.725C145.845 56.725 143.536 55.9417 141.753 54.375C139.97 52.8083 139.078 50.775 139.078 48.275C139.078 45.675 140.086 43.6 142.103 42.05C144.12 40.4833 146.736 39.7 149.953 39.7C151.286 39.7 152.603 39.85 153.903 40.15C155.203 40.4333 156.278 40.8083 157.128 41.275V39.7C157.128 37.9333 156.511 36.525 155.278 35.475C154.045 34.425 152.47 33.9 150.553 33.9C149.503 33.9 148.603 34.025 147.853 34.275C147.103 34.525 146.436 34.8417 145.853 35.225C145.286 35.6083 144.736 36.0667 144.203 36.6C143.686 37.1167 143.428 37.375 143.428 37.375L139.978 34.45C139.978 34.45 140.345 34.0917 141.078 33.375C141.811 32.6417 142.636 31.9833 143.553 31.4C144.486 30.8 145.536 30.3417 146.703 30.025C147.87 29.6917 149.286 29.525 150.953 29.525C154.453 29.525 157.211 30.425 159.228 32.225C161.261 34.025 162.278 36.5083 162.278 39.675V56H157.178V50.225L158.653 52.325H157.053C156.236 53.6583 155.078 54.725 153.578 55.525C152.095 56.325 150.461 56.725 148.678 56.725ZM149.703 52.525C151.836 52.525 153.603 51.775 155.003 50.275C156.42 48.775 157.128 47.0083 157.128 44.975V44.9C156.361 44.4 155.42 44.0083 154.303 43.725C153.203 43.425 152.045 43.275 150.828 43.275C148.828 43.275 147.236 43.6833 146.053 44.5C144.886 45.3 144.303 46.4917 144.303 48.075C144.303 49.4417 144.803 50.525 145.803 51.325C146.82 52.125 148.12 52.525 149.703 52.525Z" fill="white"/>
</svg>
