<svg width="258" height="78" viewBox="0 0 258 78" fill="none" xmlns="http://www.w3.org/2000/svg">
<path d="M0 39C0 17.4609 17.4609 0 39 0H219C240.539 0 258 17.4609 258 39V39C258 60.5391 240.539 78 219 78H0V39Z" fill="#274AAB"/>
<path d="M38.725 56.725C34.8917 56.725 31.7333 55.45 29.25 52.9C26.7833 50.3333 25.55 47.0667 25.55 43.1C25.55 39.1833 26.775 35.9417 29.225 33.375C31.6917 30.8083 34.7833 29.525 38.5 29.525C42.2333 29.525 45.25 30.6667 47.55 32.95C49.8667 35.2333 51.025 38.1167 51.025 41.6V44.225H28.375V40.6H45.775C45.675 38.7167 44.9667 37.1583 43.65 35.925C42.35 34.675 40.6333 34.05 38.5 34.05C36.2333 34.05 34.3667 34.875 32.9 36.525C31.45 38.1583 30.725 40.3333 30.725 43.05C30.725 45.85 31.525 48.0917 33.125 49.775C34.7417 51.4417 36.725 52.275 39.075 52.275C40.2083 52.275 41.1917 52.1167 42.025 51.8C42.8583 51.4833 43.6083 51.0417 44.275 50.475C44.9583 49.9083 45.7083 49.0167 46.525 47.8L50.45 50.025C49.4667 51.7917 48.4167 53.125 47.3 54.025C46.2 54.925 44.9667 55.6 43.6 56.05C42.25 56.5 40.625 56.725 38.725 56.725ZM54.5406 66.475V30.25H59.6656V35.2L58.5156 33.925H59.7656C60.5656 32.6417 61.7656 31.5917 63.3656 30.775C64.9823 29.9417 66.7656 29.525 68.7156 29.525C72.1823 29.525 75.0906 30.7833 77.4406 33.3C79.7906 35.8167 80.9656 39.075 80.9656 43.075C80.9656 47.0417 79.7906 50.3083 77.4406 52.875C75.0906 55.4417 72.1573 56.725 68.6406 56.725C66.7573 56.725 65.0156 56.35 63.4156 55.6C61.8323 54.8333 60.6656 53.7917 59.9156 52.475L59.8906 52.55V66.475H54.5406ZM67.6906 52.025C69.974 52.025 71.874 51.1917 73.3906 49.525C74.924 47.8583 75.6906 45.7167 75.6906 43.1C75.6906 40.4333 74.9156 38.2833 73.3656 36.65C71.8323 35.0167 69.9406 34.2 67.6906 34.2C65.424 34.2 63.524 35.0333 61.9906 36.7C60.4573 38.35 59.6906 40.4833 59.6906 43.1C59.6906 45.7 60.4573 47.8417 61.9906 49.525C63.524 51.1917 65.424 52.025 67.6906 52.025ZM84.9965 56V30.25H90.3465V56H84.9965ZM87.6465 25.9C86.7298 25.9 85.9382 25.575 85.2715 24.925C84.6215 24.275 84.2965 23.4833 84.2965 22.55C84.2965 21.6 84.6215 20.8167 85.2715 20.2C85.9382 19.5667 86.7298 19.25 87.6465 19.25C88.6132 19.25 89.4132 19.5667 90.0465 20.2C90.6798 20.8167 90.9965 21.6 90.9965 22.55C90.9965 23.4833 90.6798 24.275 90.0465 24.925C89.4132 25.575 88.6132 25.9 87.6465 25.9ZM106.577 56.725C103.077 56.725 100.161 55.4583 97.8273 52.925C95.494 50.3917 94.3273 47.1333 94.3273 43.15C94.3273 39.1667 95.5107 35.9083 97.8773 33.375C100.244 30.825 103.194 29.55 106.727 29.55C108.577 29.55 110.286 29.9583 111.852 30.775C113.419 31.575 114.594 32.6417 115.377 33.975L115.402 33.9V20.2H120.702V56H115.602V51.45L116.102 52.075L115.577 52.2C114.761 53.5833 113.536 54.6833 111.902 55.5C110.286 56.3167 108.511 56.725 106.577 56.725ZM107.602 52.075C109.886 52.075 111.786 51.2333 113.302 49.55C114.836 47.85 115.602 45.7083 115.602 43.125C115.602 40.5083 114.827 38.375 113.277 36.725C111.727 35.075 109.836 34.25 107.602 34.25C105.336 34.25 103.427 35.075 101.877 36.725C100.344 38.3583 99.5773 40.5 99.5773 43.15C99.5773 45.7667 100.344 47.9083 101.877 49.575C103.427 51.2417 105.336 52.075 107.602 52.075ZM137.459 56.725C133.626 56.725 130.468 55.45 127.984 52.9C125.518 50.3333 124.284 47.0667 124.284 43.1C124.284 39.1833 125.509 35.9417 127.959 33.375C130.426 30.8083 133.518 29.525 137.234 29.525C140.968 29.525 143.984 30.6667 146.284 32.95C148.601 35.2333 149.759 38.1167 149.759 41.6V44.225H127.109V40.6H144.509C144.409 38.7167 143.701 37.1583 142.384 35.925C141.084 34.675 139.368 34.05 137.234 34.05C134.968 34.05 133.101 34.875 131.634 36.525C130.184 38.1583 129.459 40.3333 129.459 43.05C129.459 45.85 130.259 48.0917 131.859 49.775C133.476 51.4417 135.459 52.275 137.809 52.275C138.943 52.275 139.926 52.1167 140.759 51.8C141.593 51.4833 142.343 51.0417 143.009 50.475C143.693 49.9083 144.443 49.0167 145.259 47.8L149.184 50.025C148.201 51.7917 147.151 53.125 146.034 54.025C144.934 54.925 143.701 55.6 142.334 56.05C140.984 56.5 139.359 56.725 137.459 56.725ZM153.275 56V30.25H158.425V34.65L157.9 34.05H158.55C159.283 32.7167 160.392 31.6333 161.875 30.8C163.358 29.95 164.958 29.525 166.675 29.525C168.525 29.525 170.158 29.975 171.575 30.875C173.008 31.775 174.008 32.9833 174.575 34.5C175.558 32.8667 176.808 31.6333 178.325 30.8C179.858 29.95 181.55 29.525 183.4 29.525C186.3 29.525 188.525 30.4 190.075 32.15C191.625 33.9 192.4 36.3167 192.4 39.4V56H187.1V40.45C187.1 38.3833 186.658 36.825 185.775 35.775C184.892 34.725 183.567 34.2 181.8 34.2C180.067 34.2 178.583 34.9 177.35 36.3C176.133 37.6833 175.525 39.4167 175.525 41.5V56H170.175V40.5C170.175 38.4333 169.733 36.8667 168.85 35.8C167.967 34.7333 166.65 34.2 164.9 34.2C163.15 34.2 161.667 34.9083 160.45 36.325C159.233 37.7417 158.625 39.4833 158.625 41.55V56H153.275ZM197.647 56V30.25H202.997V56H197.647ZM200.297 25.9C199.38 25.9 198.589 25.575 197.922 24.925C197.272 24.275 196.947 23.4833 196.947 22.55C196.947 21.6 197.272 20.8167 197.922 20.2C198.589 19.5667 199.38 19.25 200.297 19.25C201.264 19.25 202.064 19.5667 202.697 20.2C203.33 20.8167 203.647 21.6 203.647 22.55C203.647 23.4833 203.33 24.275 202.697 24.925C202.064 25.575 201.264 25.9 200.297 25.9ZM220.253 56.725C216.403 56.725 213.228 55.4417 210.728 52.875C208.228 50.3083 206.978 47.0333 206.978 43.05C206.978 39.0833 208.236 35.8417 210.753 33.325C213.286 30.7917 216.461 29.525 220.278 29.525C221.978 29.525 223.528 29.7667 224.928 30.25C226.328 30.7333 227.594 31.4833 228.728 32.5C229.878 33.5 230.903 34.9833 231.803 36.95L227.203 38.825C226.569 37.6083 225.936 36.6917 225.303 36.075C224.669 35.4583 223.928 35 223.078 34.7C222.228 34.3833 221.286 34.225 220.253 34.225C218.053 34.225 216.161 35.0417 214.578 36.675C213.011 38.3083 212.228 40.4333 212.228 43.05C212.228 45.6833 213.003 47.8417 214.553 49.525C216.119 51.1917 218.019 52.025 220.253 52.025C221.269 52.025 222.203 51.8667 223.053 51.55C223.919 51.2167 224.669 50.7583 225.303 50.175C225.936 49.575 226.619 48.625 227.353 47.325L231.928 49.175C230.994 51.125 229.978 52.6083 228.878 53.625C227.778 54.625 226.511 55.3917 225.078 55.925C223.644 56.4583 222.036 56.725 220.253 56.725Z" fill="white"/>
</svg>
