<svg width="233" height="78" viewBox="0 0 233 78" fill="none" xmlns="http://www.w3.org/2000/svg">
<path d="M0 39C0 17.4609 17.4609 0 39 0H194C215.539 0 233 17.4609 233 39V39C233 60.5391 215.539 78 194 78H0V39Z" fill="#1A1A1A"/>
<path d="M34.35 56L24.075 30.25H29.675L36.55 48.375L37.05 49.9H37.15L37.7 48.35L44.575 30.25H50.05L39.65 56H34.35ZM62.5785 56.725C58.7452 56.725 55.5868 55.45 53.1035 52.9C50.6368 50.3333 49.4035 47.0667 49.4035 43.1C49.4035 39.1833 50.6285 35.9417 53.0785 33.375C55.5452 30.8083 58.6368 29.525 62.3535 29.525C66.0868 29.525 69.1035 30.6667 71.4035 32.95C73.7202 35.2333 74.8785 38.1167 74.8785 41.6V44.225H52.2285V40.6H69.6285C69.5285 38.7167 68.8202 37.1583 67.5035 35.925C66.2035 34.675 64.4868 34.05 62.3535 34.05C60.0868 34.05 58.2202 34.875 56.7535 36.525C55.3035 38.1583 54.5785 40.3333 54.5785 43.05C54.5785 45.85 55.3785 48.0917 56.9785 49.775C58.5952 51.4417 60.5785 52.275 62.9285 52.275C64.0618 52.275 65.0452 52.1167 65.8785 51.8C66.7118 51.4833 67.4618 51.0417 68.1285 50.475C68.8119 49.9083 69.5619 49.0167 70.3785 47.8L74.3035 50.025C73.3202 51.7917 72.2702 53.125 71.1535 54.025C70.0535 54.925 68.8202 55.6 67.4535 56.05C66.1035 56.5 64.4785 56.725 62.5785 56.725ZM78.3941 56V30.25H83.4941V34.9L82.8941 34.325H83.6191C84.2025 32.875 85.1775 31.7167 86.5441 30.85C87.9108 29.9667 89.3358 29.525 90.8191 29.525C91.2191 29.525 91.6358 29.5583 92.0691 29.625C92.5191 29.675 92.9191 29.7583 93.2691 29.875C93.6358 29.975 93.8191 30.025 93.8191 30.025V35.25C93.8191 35.25 93.5858 35.1833 93.1191 35.05C92.6691 34.9167 92.1775 34.8083 91.6441 34.725C91.1275 34.6417 90.6858 34.6 90.3191 34.6C88.5025 34.6 86.9525 35.2917 85.6691 36.675C84.3858 38.0583 83.7441 39.825 83.7441 41.975V56H78.3941ZM105.124 56.725C103.39 56.725 101.874 56.5167 100.574 56.1C99.2905 55.7 98.1488 55.1 97.1488 54.3C96.1488 53.4833 95.3655 52.6 94.7988 51.65C94.2322 50.7 93.9488 50.225 93.9488 50.225L97.9738 47.9C97.9738 47.9 98.1988 48.25 98.6488 48.95C99.1155 49.65 99.6655 50.2667 100.299 50.8C100.932 51.3333 101.649 51.7417 102.449 52.025C103.265 52.2917 104.24 52.425 105.374 52.425C106.874 52.425 108.082 52.1333 108.999 51.55C109.915 50.95 110.374 50.1 110.374 49C110.374 48.0333 109.99 47.2833 109.224 46.75C108.457 46.2 106.832 45.6417 104.349 45.075C100.965 44.2917 98.5572 43.2583 97.1238 41.975C95.6905 40.675 94.9738 39.025 94.9738 37.025C94.9738 34.7917 95.9238 32.9833 97.8238 31.6C99.7405 30.2167 102.115 29.525 104.949 29.525C106.415 29.525 107.715 29.6833 108.849 30C109.999 30.3167 111.032 30.8083 111.949 31.475C112.882 32.1417 113.607 32.8583 114.124 33.625C114.657 34.3917 114.924 34.775 114.924 34.775L111.074 37.15C111.074 37.15 110.874 36.8917 110.474 36.375C110.074 35.8583 109.59 35.4 109.024 35C108.474 34.6 107.849 34.3083 107.149 34.125C106.449 33.9417 105.682 33.85 104.849 33.85C103.432 33.85 102.29 34.1417 101.424 34.725C100.574 35.3083 100.149 36 100.149 36.8C100.149 37.7 100.524 38.4333 101.274 39C102.024 39.5667 103.715 40.1583 106.349 40.775C109.699 41.5417 112.074 42.5583 113.474 43.825C114.874 45.0917 115.574 46.7167 115.574 48.7C115.574 51.1333 114.599 53.0833 112.649 54.55C110.715 56 108.207 56.725 105.124 56.725ZM126.901 56.725C124.067 56.725 121.759 55.9417 119.976 54.375C118.192 52.8083 117.301 50.775 117.301 48.275C117.301 45.675 118.309 43.6 120.326 42.05C122.342 40.4833 124.959 39.7 128.176 39.7C129.509 39.7 130.826 39.85 132.126 40.15C133.426 40.4333 134.501 40.8083 135.351 41.275V39.7C135.351 37.9333 134.734 36.525 133.501 35.475C132.267 34.425 130.692 33.9 128.776 33.9C127.726 33.9 126.826 34.025 126.076 34.275C125.326 34.525 124.659 34.8417 124.076 35.225C123.509 35.6083 122.959 36.0667 122.426 36.6C121.909 37.1167 121.651 37.375 121.651 37.375L118.201 34.45C118.201 34.45 118.567 34.0917 119.301 33.375C120.034 32.6417 120.859 31.9833 121.776 31.4C122.709 30.8 123.759 30.3417 124.926 30.025C126.092 29.6917 127.509 29.525 129.176 29.525C132.676 29.525 135.434 30.425 137.451 32.225C139.484 34.025 140.501 36.5083 140.501 39.675V56H135.401V50.225L136.876 52.325H135.276C134.459 53.6583 133.301 54.725 131.801 55.525C130.317 56.325 128.684 56.725 126.901 56.725ZM127.926 52.525C130.059 52.525 131.826 51.775 133.226 50.275C134.642 48.775 135.351 47.0083 135.351 44.975V44.9C134.584 44.4 133.642 44.0083 132.526 43.725C131.426 43.425 130.267 43.275 129.051 43.275C127.051 43.275 125.459 43.6833 124.276 44.5C123.109 45.3 122.526 46.4917 122.526 48.075C122.526 49.4417 123.026 50.525 124.026 51.325C125.042 52.125 126.342 52.525 127.926 52.525ZM153.789 56.725C151.589 56.725 149.814 56.0917 148.464 54.825C147.114 53.5417 146.439 51.65 146.439 49.15V23.3H151.789V48.3C151.789 49.65 152.056 50.6333 152.589 51.25C153.123 51.85 153.906 52.15 154.939 52.15C155.273 52.15 155.606 52.125 155.939 52.075C156.289 52.0083 156.723 51.9 157.239 51.75C157.756 51.5833 158.014 51.5 158.014 51.5V56C158.014 56 157.748 56.075 157.214 56.225C156.681 56.3917 156.139 56.5167 155.589 56.6C155.056 56.6833 154.456 56.725 153.789 56.725ZM142.239 34.7V30.25H157.989V34.7H142.239ZM162.1 56V30.25H167.45V56H162.1ZM164.75 25.9C163.833 25.9 163.042 25.575 162.375 24.925C161.725 24.275 161.4 23.4833 161.4 22.55C161.4 21.6 161.725 20.8167 162.375 20.2C163.042 19.5667 163.833 19.25 164.75 19.25C165.717 19.25 166.517 19.5667 167.15 20.2C167.783 20.8167 168.1 21.6 168.1 22.55C168.1 23.4833 167.783 24.275 167.15 24.925C166.517 25.575 165.717 25.9 164.75 25.9ZM172.906 56V20.2H178.256V56H172.906ZM195.032 56.725C191.198 56.725 188.04 55.45 185.557 52.9C183.09 50.3333 181.857 47.0667 181.857 43.1C181.857 39.1833 183.082 35.9417 185.532 33.375C187.998 30.8083 191.09 29.525 194.807 29.525C198.54 29.525 201.557 30.6667 203.857 32.95C206.173 35.2333 207.332 38.1167 207.332 41.6V44.225H184.682V40.6H202.082C201.982 38.7167 201.273 37.1583 199.957 35.925C198.657 34.675 196.94 34.05 194.807 34.05C192.54 34.05 190.673 34.875 189.207 36.525C187.757 38.1583 187.032 40.3333 187.032 43.05C187.032 45.85 187.832 48.0917 189.432 49.775C191.048 51.4417 193.032 52.275 195.382 52.275C196.515 52.275 197.498 52.1167 198.332 51.8C199.165 51.4833 199.915 51.0417 200.582 50.475C201.265 49.9083 202.015 49.0167 202.832 47.8L206.757 50.025C205.773 51.7917 204.723 53.125 203.607 54.025C202.507 54.925 201.273 55.6 199.907 56.05C198.557 56.5 196.932 56.725 195.032 56.725Z" fill="white"/>
</svg>
