<svg width="216" height="78" viewBox="0 0 216 78" fill="none" xmlns="http://www.w3.org/2000/svg">
<path d="M0 0H177C198.539 0 216 17.4609 216 39V39C216 60.5391 198.539 78 177 78H39C17.4609 78 0 60.5391 0 39V0Z" fill="#1A1A1A"/>
<path d="M36.475 56.725C34.275 56.725 32.5 56.0917 31.15 54.825C29.8 53.5417 29.125 51.65 29.125 49.15V23.3H34.475V48.3C34.475 49.65 34.7417 50.6333 35.275 51.25C35.8083 51.85 36.5917 52.15 37.625 52.15C37.9583 52.15 38.2917 52.125 38.625 52.075C38.975 52.0083 39.4083 51.9 39.925 51.75C40.4417 51.5833 40.7 51.5 40.7 51.5V56C40.7 56 40.4333 56.075 39.9 56.225C39.3667 56.3917 38.825 56.5167 38.275 56.6C37.7417 56.6833 37.1417 56.725 36.475 56.725ZM24.925 34.7V30.25H40.675V34.7H24.925ZM52.4105 56.725C49.5772 56.725 47.2689 55.9417 45.4855 54.375C43.7022 52.8083 42.8105 50.775 42.8105 48.275C42.8105 45.675 43.8189 43.6 45.8355 42.05C47.8522 40.4833 50.4689 39.7 53.6855 39.7C55.0189 39.7 56.3355 39.85 57.6355 40.15C58.9355 40.4333 60.0105 40.8083 60.8605 41.275V39.7C60.8605 37.9333 60.2439 36.525 59.0105 35.475C57.7772 34.425 56.2022 33.9 54.2855 33.9C53.2355 33.9 52.3355 34.025 51.5855 34.275C50.8355 34.525 50.1689 34.8417 49.5855 35.225C49.0189 35.6083 48.4689 36.0667 47.9355 36.6C47.4189 37.1167 47.1605 37.375 47.1605 37.375L43.7105 34.45C43.7105 34.45 44.0772 34.0917 44.8105 33.375C45.5439 32.6417 46.3689 31.9833 47.2855 31.4C48.2189 30.8 49.2689 30.3417 50.4355 30.025C51.6022 29.6917 53.0189 29.525 54.6855 29.525C58.1855 29.525 60.9439 30.425 62.9605 32.225C64.9939 34.025 66.0105 36.5083 66.0105 39.675V56H60.9105V50.225L62.3855 52.325H60.7855C59.9689 53.6583 58.8105 54.725 57.3105 55.525C55.8272 56.325 54.1939 56.725 52.4105 56.725ZM53.4355 52.525C55.5689 52.525 57.3355 51.775 58.7355 50.275C60.1522 48.775 60.8605 47.0083 60.8605 44.975V44.9C60.0939 44.4 59.1522 44.0083 58.0355 43.725C56.9355 43.425 55.7772 43.275 54.5605 43.275C52.5605 43.275 50.9689 43.6833 49.7855 44.5C48.6189 45.3 48.0355 46.4917 48.0355 48.075C48.0355 49.4417 48.5355 50.525 49.5355 51.325C50.5522 52.125 51.8522 52.525 53.4355 52.525ZM79.952 56.725C78.2186 56.725 76.702 56.5167 75.402 56.1C74.1186 55.7 72.977 55.1 71.977 54.3C70.977 53.4833 70.1936 52.6 69.627 51.65C69.0603 50.7 68.777 50.225 68.777 50.225L72.802 47.9C72.802 47.9 73.027 48.25 73.477 48.95C73.9436 49.65 74.4936 50.2667 75.127 50.8C75.7603 51.3333 76.477 51.7417 77.277 52.025C78.0936 52.2917 79.0686 52.425 80.202 52.425C81.702 52.425 82.9103 52.1333 83.827 51.55C84.7436 50.95 85.202 50.1 85.202 49C85.202 48.0333 84.8186 47.2833 84.052 46.75C83.2853 46.2 81.6603 45.6417 79.177 45.075C75.7936 44.2917 73.3853 43.2583 71.952 41.975C70.5186 40.675 69.802 39.025 69.802 37.025C69.802 34.7917 70.752 32.9833 72.652 31.6C74.5686 30.2167 76.9436 29.525 79.777 29.525C81.2436 29.525 82.5436 29.6833 83.677 30C84.827 30.3167 85.8603 30.8083 86.777 31.475C87.7103 32.1417 88.4353 32.8583 88.952 33.625C89.4853 34.3917 89.752 34.775 89.752 34.775L85.902 37.15C85.902 37.15 85.702 36.8917 85.302 36.375C84.902 35.8583 84.4186 35.4 83.852 35C83.302 34.6 82.677 34.3083 81.977 34.125C81.277 33.9417 80.5103 33.85 79.677 33.85C78.2603 33.85 77.1186 34.1417 76.252 34.725C75.402 35.3083 74.977 36 74.977 36.8C74.977 37.7 75.352 38.4333 76.102 39C76.852 39.5667 78.5436 40.1583 81.177 40.775C84.527 41.5417 86.902 42.5583 88.302 43.825C89.702 45.0917 90.402 46.7167 90.402 48.7C90.402 51.1333 89.427 53.0833 87.477 54.55C85.5436 56 83.0353 56.725 79.952 56.725ZM102.909 56.725C100.709 56.725 98.9336 56.0917 97.5836 54.825C96.2336 53.5417 95.5586 51.65 95.5586 49.15V23.3H100.909V48.3C100.909 49.65 101.175 50.6333 101.709 51.25C102.242 51.85 103.025 52.15 104.059 52.15C104.392 52.15 104.725 52.125 105.059 52.075C105.409 52.0083 105.842 51.9 106.359 51.75C106.875 51.5833 107.134 51.5 107.134 51.5V56C107.134 56 106.867 56.075 106.334 56.225C105.8 56.3917 105.259 56.5167 104.709 56.6C104.175 56.6833 103.575 56.725 102.909 56.725ZM91.3586 34.7V30.25H107.109V34.7H91.3586ZM122.42 56.725C118.587 56.725 115.429 55.45 112.945 52.9C110.479 50.3333 109.245 47.0667 109.245 43.1C109.245 39.1833 110.47 35.9417 112.92 33.375C115.387 30.8083 118.479 29.525 122.195 29.525C125.929 29.525 128.945 30.6667 131.245 32.95C133.562 35.2333 134.72 38.1167 134.72 41.6V44.225H112.07V40.6H129.47C129.37 38.7167 128.662 37.1583 127.345 35.925C126.045 34.675 124.329 34.05 122.195 34.05C119.929 34.05 118.062 34.875 116.595 36.525C115.145 38.1583 114.42 40.3333 114.42 43.05C114.42 45.85 115.22 48.0917 116.82 49.775C118.437 51.4417 120.42 52.275 122.77 52.275C123.904 52.275 124.887 52.1167 125.72 51.8C126.554 51.4833 127.304 51.0417 127.97 50.475C128.654 49.9083 129.404 49.0167 130.22 47.8L134.145 50.025C133.162 51.7917 132.112 53.125 130.995 54.025C129.895 54.925 128.662 55.6 127.295 56.05C125.945 56.5 124.32 56.725 122.42 56.725ZM136.039 34.75V30.3H151.889V34.75H136.039ZM140.439 56V27.625C140.439 25.175 141.189 23.2083 142.689 21.725C144.189 20.225 146.173 19.475 148.639 19.475C149.273 19.475 149.864 19.5167 150.414 19.6C150.964 19.6667 151.498 19.775 152.014 19.925C152.531 20.0583 152.789 20.125 152.789 20.125V24.625C152.789 24.625 152.573 24.5667 152.139 24.45C151.723 24.3333 151.289 24.2417 150.839 24.175C150.389 24.1083 149.914 24.075 149.414 24.075C148.348 24.075 147.473 24.4 146.789 25.05C146.123 25.7 145.789 26.65 145.789 27.9V31.575V32.55V56H140.439ZM164.037 56.725C161.053 56.725 158.737 55.85 157.087 54.1C155.453 52.35 154.637 49.9083 154.637 46.775V30.25H159.962V45.775C159.962 47.8583 160.437 49.45 161.387 50.55C162.353 51.65 163.745 52.2 165.562 52.2C167.462 52.2 169.045 51.4917 170.312 50.075C171.578 48.6417 172.212 46.9 172.212 44.85V30.25H177.562V56H172.462V49.825L174.937 52.3H172.337C171.587 53.6167 170.47 54.6833 168.987 55.5C167.503 56.3167 165.853 56.725 164.037 56.725ZM182.623 56V20.2H187.973V56H182.623Z" fill="white"/>
</svg>
