<svg width="87" height="87" viewBox="0 0 87 87" fill="none" xmlns="http://www.w3.org/2000/svg">
<path d="M34.4433 4.23403C38.8474 -1.41134 47.3854 -1.41135 51.7894 4.23403L52.8097 5.54193C55.1884 8.59099 58.9933 10.1671 62.8313 9.693L64.4776 9.48964C71.5836 8.61188 77.6209 14.6492 76.7431 21.7552L76.5398 23.4015C76.0657 27.2394 77.6418 31.0444 80.6908 33.423L81.9987 34.4433C87.6441 38.8474 87.6441 47.3854 81.9987 51.7894L80.6908 52.8097C77.6418 55.1884 76.0657 58.9933 76.5398 62.8313L76.7431 64.4776C77.6209 71.5836 71.5836 77.6209 64.4776 76.7431L62.8313 76.5398C58.9933 76.0657 55.1884 77.6418 52.8097 80.6908L51.7894 81.9987C47.3854 87.6441 38.8474 87.6441 34.4433 81.9987L33.423 80.6908C31.0444 77.6418 27.2394 76.0657 23.4015 76.5398L21.7552 76.7431C14.6492 77.6209 8.61188 71.5836 9.48964 64.4776L9.693 62.8313C10.1671 58.9933 8.591 55.1884 5.54194 52.8097L4.23403 51.7894C-1.41134 47.3854 -1.41135 38.8474 4.23403 34.4433L5.54193 33.423C8.59099 31.0444 10.1671 27.2394 9.693 23.4015L9.48964 21.7552C8.61188 14.6492 14.6492 8.61188 21.7552 9.48964L23.4015 9.693C27.2394 10.1671 31.0444 8.591 33.423 5.54194L34.4433 4.23403Z" fill="#922498"/>
</svg>
