<svg width="24" height="24" viewBox="0 0 24 24" fill="none" xmlns="http://www.w3.org/2000/svg">
<path d="M12.0282 3C16.9987 3.00012 21.0282 7.02951 21.0282 12C21.0282 16.9705 16.9987 20.9999 12.0282 21C8.10806 21 4.77601 18.494 3.54092 15C3.35687 14.4793 3.62958 13.9077 4.15029 13.7236C4.67073 13.5399 5.24148 13.8128 5.42568 14.333C6.38712 17.0531 8.98194 19 12.0282 19C15.8941 18.9999 19.0282 15.8659 19.0282 12C19.0282 8.13408 15.8941 5.00012 12.0282 5C10.0549 5 8.62749 5.6804 7.24404 7H8.9999C9.55216 7.00004 9.9999 7.44774 9.9999 8C9.9999 8.55226 9.55216 8.99996 8.9999 9H5.7499C4.78341 9 3.9999 8.21649 3.9999 7.25V4C3.9999 3.44772 4.44762 3 4.9999 3C5.55216 3.00004 5.9999 3.44774 5.9999 4V5.42676C7.62257 3.92433 9.47556 3 12.0282 3Z" fill="black"/>
</svg>
