<svg width="24" height="24" viewBox="0 0 24 24" fill="none" xmlns="http://www.w3.org/2000/svg">
<path d="M4 11C4.55228 11 5 11.4477 5 12C5 15.866 8.134 19 12 19C13.9097 19 15.6731 18.235 16.9541 17H15.0117C14.4595 17 14.0117 16.5523 14.0117 16C14.0117 15.4477 14.4595 15 15.0117 15H18.2617C19.2284 15 20.0117 15.7836 20.0117 16.75V20C20.0117 20.5523 19.564 21 19.0117 21C18.4595 21 18.0117 20.5523 18.0117 20V18.7412C16.4021 20.1463 14.283 21 12 21C7.02944 21 3 16.9706 3 12C3 11.4477 3.44772 11 4 11Z" fill="black"/>
<path d="M12 3C16.9706 3 21 7.02944 21 12C21 12.5523 20.5523 13 20 13C19.4477 13 19 12.5523 19 12C19 8.134 15.866 5 12 5C10.0903 5 8.32691 5.76504 7.0459 7H8.75C9.30228 7 9.75 7.44772 9.75 8C9.75 8.55228 9.30228 9 8.75 9H5.75C4.78351 9 4 8.21649 4 7.25V4C4 3.44772 4.44772 3 5 3C5.55228 3 6 3.44772 6 4V5.24805C7.60816 3.84918 9.72265 3 12 3Z" fill="black"/>
</svg>
