<svg width="24" height="24" viewBox="0 0 24 24" fill="none" xmlns="http://www.w3.org/2000/svg">
<path d="M8.29285 7.29298C8.68337 6.90254 9.31641 6.90249 9.70691 7.29298C10.0973 7.6835 10.0973 8.31657 9.70691 8.70705L6.41394 12L9.70691 15.293C10.0973 15.6835 10.0973 16.3166 9.70691 16.707C9.31643 17.0975 8.68338 17.0974 8.29285 16.707L4.99988 13.4141C4.21883 12.6331 4.21884 11.367 4.99988 10.586L8.29285 7.29298Z" fill="black"/>
<path d="M14.2928 7.29298C14.6834 6.90246 15.3164 6.90246 15.7069 7.29298L18.9999 10.586C19.7807 11.367 19.7808 12.6331 18.9999 13.4141L15.7069 16.707C15.3164 17.0975 14.6834 17.0975 14.2928 16.707C13.9023 16.3165 13.9023 15.6835 14.2928 15.293L17.5858 12L14.2928 8.70705C13.9023 8.31653 13.9023 7.68351 14.2928 7.29298Z" fill="black"/>
</svg>
