<svg width="24" height="24" viewBox="0 0 24 24" fill="none" xmlns="http://www.w3.org/2000/svg">
<path d="M6.29253 2.29281C6.68295 1.90238 7.31604 1.90258 7.70659 2.29281C8.09711 2.68333 8.09711 3.31635 7.70659 3.70687L6.41362 4.99984H13.4996C17.6417 4.99984 20.9995 8.35778 20.9996 12.4998C20.9996 16.642 17.6417 19.9998 13.4996 19.9998H5.99956C5.44748 19.9996 4.99956 19.552 4.99956 18.9998C4.99965 18.4478 5.44753 18.0001 5.99956 17.9998H13.4996C16.5372 17.9998 18.9996 15.5375 18.9996 12.4998C18.9995 9.46234 16.5371 6.99984 13.4996 6.99984H6.41362L7.70659 8.29281C8.09711 8.68333 8.09711 9.31635 7.70659 9.70687C7.31606 10.0973 6.68301 10.0974 6.29253 9.70687L3.29253 6.70687C2.90234 6.31637 2.90223 5.68324 3.29253 5.29281L6.29253 2.29281Z" fill="black"/>
</svg>
