<svg width="24" height="24" viewBox="0 0 24 24" fill="none" xmlns="http://www.w3.org/2000/svg">
<path d="M12 3C13.1916 3 14.3315 3.23192 15.375 3.6543C15.8869 3.86153 16.134 4.4451 15.9268 4.95703C15.7195 5.46865 15.1368 5.71575 14.625 5.50879C13.8158 5.18122 12.9301 5 12 5C8.134 5 5 8.13401 5 12C5 14.3769 6.18596 16.4772 8 17.7432V15C8 14.4477 8.44772 14 9 14C9.55228 14 10 14.4477 10 15V20C10 20.5523 9.55228 21 9 21H4C3.44772 21 3 20.5523 3 20C3 19.4477 3.44772 19 4 19H6.34473C4.30596 17.3508 3 14.8288 3 12C3 7.02944 7.02944 3 12 3Z" fill="black"/>
<path d="M13 19C13.5523 19 14 19.4477 14 20C14 20.5523 13.5523 21 13 21C12.4477 21 12 20.5523 12 20C12 19.4477 12.4477 19 13 19Z" fill="black"/>
<path d="M16.3672 17.5625C16.8453 17.2865 17.4572 17.4498 17.7334 17.9277C18.0096 18.406 17.8455 19.0178 17.3672 19.2939C16.8889 19.5699 16.278 19.406 16.002 18.9277C15.726 18.4496 15.8893 17.8388 16.3672 17.5625Z" fill="black"/>
<path d="M18.5635 14.6338C18.8397 14.1556 19.4515 13.9915 19.9297 14.2676C20.4079 14.5437 20.5717 15.1555 20.2959 15.6338C20.0197 16.1121 19.408 16.276 18.9297 16C18.4514 15.7238 18.2874 15.1121 18.5635 14.6338Z" fill="black"/>
<path d="M20 10C20.5523 10 21 10.4477 21 11C21 11.5523 20.5523 12 20 12C19.4477 12 19 11.5523 19 11C19 10.4477 19.4477 10 20 10Z" fill="black"/>
<path d="M17.9268 6.26758C18.405 5.99152 19.0167 6.15561 19.293 6.63379C19.5691 7.11208 19.4051 7.72386 18.9268 8C18.4486 8.27607 17.8367 8.11205 17.5605 7.63379C17.2847 7.15553 17.4486 6.54367 17.9268 6.26758Z" fill="black"/>
</svg>
