<svg width="24" height="24" viewBox="0 0 24 24" fill="none" xmlns="http://www.w3.org/2000/svg">
<path d="M10.5859 2.50001C11.367 1.71895 12.633 1.71895 13.4141 2.50001L15.707 4.79298C16.0975 5.18351 16.0975 5.81654 15.707 6.20704C15.3165 6.59746 14.6835 6.59746 14.293 6.20704L12 3.91407L9.70704 6.20704C9.31653 6.59746 8.68348 6.59746 8.29298 6.20704C7.90248 5.81654 7.90253 5.18351 8.29298 4.79298L10.5859 2.50001Z" fill="black"/>
<path d="M4.79298 8.29298C5.18351 7.90253 5.81654 7.90248 6.20704 8.29298C6.59746 8.68348 6.59746 9.31653 6.20704 9.70704L3.91407 12L6.20704 14.293C6.59746 14.6835 6.59746 15.3165 6.20704 15.707C5.81654 16.0975 5.18351 16.0975 4.79298 15.707L2.50001 13.4141C1.71895 12.633 1.71895 11.367 2.50001 10.5859L4.79298 8.29298Z" fill="black"/>
<path d="M17.793 8.29298C18.1835 7.90245 18.8165 7.90245 19.207 8.29298L21.5 10.5859C22.2809 11.367 22.2809 12.6331 21.5 13.4141L19.207 15.707C18.8165 16.0976 18.1835 16.0976 17.793 15.707C17.4025 15.3165 17.4025 14.6835 17.793 14.293L20.0859 12L17.793 9.70704C17.4025 9.31651 17.4025 8.6835 17.793 8.29298Z" fill="black"/>
<path d="M14.293 17.793C14.6835 17.4025 15.3165 17.4025 15.707 17.793C16.0976 18.1835 16.0976 18.8165 15.707 19.207L13.4141 21.5C12.6331 22.2809 11.367 22.2809 10.5859 21.5L8.29298 19.207C7.90245 18.8165 7.90245 18.1835 8.29298 17.793C8.6835 17.4025 9.31651 17.4025 9.70704 17.793L12 20.0859L14.293 17.793Z" fill="black"/>
<path d="M11 20V13H4.00001C3.44772 13 3.00001 12.5523 3.00001 12C3.00001 11.4477 3.44772 11 4.00001 11H11V4.00001C11 3.44772 11.4477 3.00001 12 3.00001C12.5523 3.00001 13 3.44772 13 4.00001V11H20C20.5523 11 21 11.4477 21 12C21 12.5523 20.5523 13 20 13H13V20C13 20.5523 12.5523 21 12 21C11.4477 21 11 20.5523 11 20Z" fill="black"/>
</svg>
