<svg width="24" height="24" viewBox="0 0 24 24" fill="none" xmlns="http://www.w3.org/2000/svg">
<path d="M9.29297 13.293C9.68348 12.9025 10.3165 12.9025 10.707 13.293C11.0976 13.6835 11.0976 14.3165 10.707 14.707L6.41406 19H10C10.5523 19 11 19.4477 11 20C11 20.5523 10.5523 21 10 21H4C3.44772 21 3 20.5523 3 20V14C3 13.4477 3.44772 13 4 13C4.55228 13 5 13.4477 5 14V17.5859L9.29297 13.293Z" fill="black"/>
<path d="M20 3C20.5523 3 21 3.44772 21 4V10C21 10.5523 20.5523 11 20 11C19.4477 11 19 10.5523 19 10V6.41406L14.707 10.707C14.3165 11.0975 13.6835 11.0975 13.293 10.707C12.9025 10.3165 12.9025 9.68349 13.293 9.29297L17.5859 5H14C13.4477 5 13 4.55228 13 4C13 3.44772 13.4477 3 14 3H20Z" fill="black"/>
</svg>
