<svg width="24" height="24" viewBox="0 0 24 24" fill="none" xmlns="http://www.w3.org/2000/svg">
<path d="M16.293 2.29266C16.6835 1.90223 17.3165 1.90226 17.707 2.29266L20.707 5.29266C21.0975 5.68317 21.0975 6.3162 20.707 6.70672L17.707 9.70672C17.3165 10.0972 16.6835 10.0972 16.293 9.70672C15.9025 9.31619 15.9025 8.68315 16.293 8.29266L17.5859 6.99969H10.5C7.46249 6.99969 5.00008 9.4622 5 12.4997C5 15.5373 7.46243 17.9997 10.5 17.9997H18C18.5522 17.9997 18.9999 18.4475 19 18.9997C19 19.552 18.5523 19.9997 18 19.9997H10.5C6.35787 19.9997 3 16.6419 3 12.4997C3.00008 8.35763 6.35792 4.99969 10.5 4.99969H17.5859L16.293 3.70672C15.9025 3.31619 15.9025 2.68315 16.293 2.29266Z" fill="black"/>
</svg>
