<svg width="24" height="24" viewBox="0 0 24 24" fill="none" xmlns="http://www.w3.org/2000/svg">
<path d="M18.2998 6.38757C18.6942 6.00113 19.3273 6.00711 19.7139 6.40124C21.1267 7.84311 22 9.82155 22 12.0008C21.9995 16.4186 18.418 20.0008 14 20.0008H12.415L13.707 21.2928C14.0976 21.6834 14.0976 22.3164 13.707 22.7069C13.3165 23.0974 12.6835 23.0974 12.293 22.7069L9.29297 19.7069C8.90249 19.3164 8.90246 18.6834 9.29297 18.2928L12.293 15.2928C12.6835 14.9023 13.3165 14.9024 13.707 15.2928C14.0976 15.6834 14.0976 16.3164 13.707 16.7069L12.4131 18.0008H14C17.3134 18.0008 19.9995 15.3141 20 12.0008C20 10.366 19.3473 8.88477 18.2861 7.80163C17.8998 7.40735 17.9059 6.77416 18.2998 6.38757Z" fill="black"/>
<path d="M10.293 1.29284C10.6835 0.902331 11.3165 0.90236 11.707 1.29284L14.707 4.29284C15.0976 4.68337 15.0976 5.31638 14.707 5.7069L11.707 8.7069C11.3165 9.09743 10.6835 9.09743 10.293 8.7069C9.90249 8.31638 9.90246 7.68335 10.293 7.29284L11.5859 5.99987H10C6.68631 5.99987 4.00002 8.68618 4 11.9999C4 13.635 4.65249 15.1158 5.71387 16.1991C6.10035 16.5935 6.0945 17.2266 5.7002 17.6132C5.30574 17.9997 4.67267 17.9929 4.28613 17.5985C2.87324 16.1566 2 14.1793 2 11.9999C2.00002 7.58161 5.58174 3.99987 10 3.99987H11.5859L10.293 2.7069C9.90249 2.31638 9.90246 1.68335 10.293 1.29284Z" fill="black"/>
</svg>
