<svg width="24" height="24" viewBox="0 0 24 24" fill="none" xmlns="http://www.w3.org/2000/svg">
<path d="M17.293 13.2928C17.6835 12.9023 18.3165 12.9023 18.707 13.2928L21.707 16.2928C22.0975 16.6833 22.0975 17.3163 21.707 17.7069L18.707 20.7069C18.3165 21.0974 17.6835 21.0974 17.293 20.7069C16.9025 20.3163 16.9025 19.6833 17.293 19.2928L18.5859 17.9998H16.8281C16.0326 17.9998 15.2696 17.6835 14.707 17.1209L13.293 15.7069C12.9025 15.3163 12.9025 14.6833 13.293 14.2928C13.6835 13.9023 14.3165 13.9023 14.707 14.2928L16.1211 15.7069C16.3086 15.8944 16.563 15.9998 16.8281 15.9998H18.5859L17.293 14.7069C16.9025 14.3163 16.9025 13.6833 17.293 13.2928Z" fill="black"/>
<path d="M17.293 3.29281C17.6835 2.90232 18.3165 2.90232 18.707 3.29281L21.707 6.29281C22.0975 6.68332 22.0975 7.31634 21.707 7.70687L18.707 10.7069C18.3165 11.0974 17.6835 11.0974 17.293 10.7069C16.9025 10.3163 16.9025 9.68332 17.293 9.29281L18.5859 7.99984H16.8281C16.5631 7.99991 16.3086 8.10531 16.1211 8.29281L6.29297 18.1209C5.73041 18.6835 4.96741 18.9998 4.17188 18.9998H3C2.44772 18.9998 2 18.5521 2 17.9998C2.00003 17.4476 2.44773 16.9998 3 16.9998H4.17188C4.437 16.9998 4.69145 16.8943 4.87891 16.7069L14.707 6.87874C15.2696 6.31624 16.0326 5.99991 16.8281 5.99984H18.5859L17.293 4.70687C16.9025 4.31634 16.9025 3.68332 17.293 3.29281Z" fill="black"/>
<path d="M4.17188 4.99984C4.96741 4.99992 5.73043 5.31622 6.29297 5.87874L8.70703 8.29281C9.09755 8.68332 9.09753 9.31634 8.70703 9.70687C8.31651 10.0974 7.68349 10.0974 7.29297 9.70687L4.87891 7.29281C4.69144 7.10535 4.43698 6.99992 4.17188 6.99984H3C2.44772 6.99984 2 6.55212 2 5.99984C2.00003 5.44758 2.44773 4.99984 3 4.99984H4.17188Z" fill="black"/>
</svg>
