<svg width="24" height="24" viewBox="0 0 24 24" fill="none" xmlns="http://www.w3.org/2000/svg">
<path d="M15.2933 14.2931C15.6838 13.9026 16.3168 13.9025 16.7074 14.2931C17.0976 14.6836 17.0977 15.3167 16.7074 15.7071L13.4144 19.0001C12.6335 19.7809 11.3673 19.7807 10.5863 19.0001L7.29329 15.7071C6.90277 15.3166 6.90277 14.6836 7.29329 14.2931C7.68382 13.9026 8.31684 13.9025 8.70735 14.2931L12.0003 17.586L15.2933 14.2931Z" fill="black"/>
<path d="M10.5863 5.00009C11.3673 4.21909 12.6334 4.21905 13.4144 5.00009L16.7074 8.29306C17.0975 8.68359 17.0977 9.31672 16.7074 9.70712C16.317 10.0974 15.6838 10.0972 15.2933 9.70712L12.0003 6.41415L8.70735 9.70712C8.31696 10.0974 7.68382 10.0972 7.29329 9.70712C6.90279 9.31662 6.90284 8.68359 7.29329 8.29306L10.5863 5.00009Z" fill="black"/>
</svg>
