<svg width="24" height="24" viewBox="0 0 24 24" fill="none" xmlns="http://www.w3.org/2000/svg">
<path d="M9.99971 13C10.552 13 10.9997 13.4477 10.9997 14V20C10.9997 20.5522 10.552 21 9.99971 21C9.4475 20.9999 8.99974 20.5522 8.99971 20V16.414L4.45674 20.957C4.06621 21.3474 3.43317 21.3475 3.04267 20.957C2.65222 20.5665 2.65226 19.9334 3.04267 19.5429L7.58564 15H3.99971C3.4475 14.9999 2.99974 14.5522 2.99971 14C2.99971 13.4477 3.44748 13 3.99971 13H9.99971Z" fill="black"/>
<path d="M19.5427 3.04293C19.9332 2.65242 20.5662 2.65245 20.9567 3.04293C21.3473 3.43346 21.3473 4.06647 20.9567 4.45699L16.4138 8.99996H19.9997C20.552 8.99996 20.9997 9.44768 20.9997 9.99996C20.9997 10.5522 20.552 11 19.9997 11H13.9997C13.4475 10.9999 12.9997 10.5522 12.9997 9.99996V3.99996C12.9997 3.44773 13.4475 3.00004 13.9997 2.99996C14.552 2.99996 14.9997 3.44768 14.9997 3.99996V7.5859L19.5427 3.04293Z" fill="black"/>
</svg>
