<svg width="24" height="24" viewBox="0 0 24 24" fill="none" xmlns="http://www.w3.org/2000/svg">
<path fill-rule="evenodd" clip-rule="evenodd" d="M18.3496 4.06412C20.2229 3.64815 21.9998 5.0739 22 6.99284V16.8952C21.9999 18.3011 21.0235 19.5186 19.6514 19.8239L12.2168 21.4753C12.0739 21.507 11.9261 21.507 11.7832 21.4753L4.34961 19.8239C2.97713 19.5188 2.00005 18.3012 2 16.8952V6.99284C2.00019 5.0739 3.7771 3.64812 5.65039 4.06412L12 5.47428L18.3496 4.06412ZM5.2168 6.01627C4.59247 5.87768 4.00019 6.35331 4 6.99284V16.8952C4.00005 17.3638 4.32567 17.77 4.7832 17.8717L11 19.2526V7.30045L5.2168 6.01627ZM20 6.99284C19.9998 6.35334 19.4076 5.8777 18.7832 6.01627L13 7.30045V19.2526L19.2168 17.8717C19.6743 17.77 19.9999 17.3638 20 16.8952V6.99284Z" fill="black"/>
</svg>
