<svg width="24" height="24" viewBox="0 0 24 24" fill="none" xmlns="http://www.w3.org/2000/svg">
<path d="M8 14.75C8.69036 14.75 9.25 15.3096 9.25 16C9.25 16.6904 8.69036 17.25 8 17.25C7.30964 17.25 6.75 16.6904 6.75 16C6.75 15.3096 7.30964 14.75 8 14.75Z" fill="black"/>
<path d="M12 14.75C12.6904 14.75 13.25 15.3096 13.25 16C13.25 16.6904 12.6904 17.25 12 17.25C11.3096 17.25 10.75 16.6904 10.75 16C10.75 15.3096 11.3096 14.75 12 14.75Z" fill="black"/>
<path d="M8 10.75C8.69036 10.75 9.25 11.3096 9.25 12C9.25 12.6904 8.69036 13.25 8 13.25C7.30964 13.25 6.75 12.6904 6.75 12C6.75 11.3096 7.30964 10.75 8 10.75Z" fill="black"/>
<path d="M12 10.75C12.6904 10.75 13.25 11.3096 13.25 12C13.25 12.6904 12.6904 13.25 12 13.25C11.3096 13.25 10.75 12.6904 10.75 12C10.75 11.3096 11.3096 10.75 12 10.75Z" fill="black"/>
<path d="M16 10.75C16.6904 10.75 17.25 11.3096 17.25 12C17.25 12.6904 16.6904 13.25 16 13.25C15.3096 13.25 14.75 12.6904 14.75 12C14.75 11.3096 15.3096 10.75 16 10.75Z" fill="black"/>
<path fill-rule="evenodd" clip-rule="evenodd" d="M18 3C19.6569 3 21 4.34315 21 6V18C21 19.6569 19.6569 21 18 21H6C4.34315 21 3 19.6569 3 18V6C3 4.34315 4.34315 3 6 3H18ZM5 18C5 18.5523 5.44772 19 6 19H18C18.5523 19 19 18.5523 19 18V9H5V18ZM6 5C5.44772 5 5 5.44772 5 6V7H19V6C19 5.44772 18.5523 5 18 5H6Z" fill="black"/>
</svg>
