<svg width="24" height="24" viewBox="0 0 24 24" fill="none" xmlns="http://www.w3.org/2000/svg">
<path fill-rule="evenodd" clip-rule="evenodd" d="M18 3C19.6569 3 21 4.34315 21 6V18C21 19.6569 19.6569 21 18 21H6C4.34315 21 3 19.6569 3 18V6C3 4.34315 4.34315 3 6 3H18ZM10.707 8.79297C10.3165 8.40245 9.6835 8.40245 9.29297 8.79297L7.5 10.5859C6.71904 11.3669 6.71904 12.6331 7.5 13.4141L9.29297 15.207C9.6835 15.5975 10.3165 15.5975 10.707 15.207C11.0975 14.8165 11.0975 14.1835 10.707 13.793L8.91406 12L10.707 10.207C11.0975 9.81651 11.0975 9.1835 10.707 8.79297ZM14.707 8.79297C14.3165 8.40245 13.6835 8.40245 13.293 8.79297C12.9025 9.1835 12.9025 9.81651 13.293 10.207L15.0859 12L13.293 13.793C12.9025 14.1835 12.9025 14.8165 13.293 15.207C13.6835 15.5975 14.3165 15.5975 14.707 15.207L16.5 13.4141C17.2809 12.6331 17.2809 11.3669 16.5 10.5859L14.707 8.79297Z" fill="black"/>
</svg>
