<svg width="24" height="24" viewBox="0 0 24 24" fill="none" xmlns="http://www.w3.org/2000/svg">
<path d="M9.29297 8.79297C9.68349 8.40245 10.3165 8.40245 10.707 8.79297C11.0976 9.18349 11.0976 9.81651 10.707 10.207L8.91406 12L10.707 13.793C11.0976 14.1835 11.0976 14.8165 10.707 15.207C10.3165 15.5976 9.68349 15.5976 9.29297 15.207L7.5 13.4141C6.71904 12.6331 6.71904 11.3669 7.5 10.5859L9.29297 8.79297Z" fill="black"/>
<path d="M13.293 8.79297C13.6835 8.40244 14.3165 8.40244 14.707 8.79297L16.5 10.5859C17.2809 11.3669 17.2809 12.6331 16.5 13.4141L14.707 15.207C14.3165 15.5976 13.6835 15.5976 13.293 15.207C12.9024 14.8165 12.9024 14.1835 13.293 13.793L15.0859 12L13.293 10.207C12.9024 9.81651 12.9024 9.18349 13.293 8.79297Z" fill="black"/>
<path fill-rule="evenodd" clip-rule="evenodd" d="M18 3C19.6569 3 21 4.34315 21 6V18C21 19.6569 19.6569 21 18 21H6C4.34315 21 3 19.6569 3 18V6C3 4.34315 4.34315 3 6 3H18ZM6 5C5.44771 5 5 5.44771 5 6V18C5 18.5523 5.44771 19 6 19H18C18.5523 19 19 18.5523 19 18V6C19 5.44771 18.5523 5 18 5H6Z" fill="black"/>
</svg>
