<svg width="24" height="24" viewBox="0 0 24 24" fill="none" xmlns="http://www.w3.org/2000/svg">
<path d="M7.5 15C8.32843 15 9 15.6716 9 16.5C9 17.3284 8.32843 18 7.5 18C6.67157 18 6 17.3284 6 16.5C6 15.6716 6.67157 15 7.5 15Z" fill="black"/>
<path fill-rule="evenodd" clip-rule="evenodd" d="M10 2C10.8265 2 11.5746 2.33441 12.1172 2.875C12.3945 2.76031 12.7201 2.77106 13 2.93262L16.9141 5.19238C17.6297 5.60556 18.1108 6.26926 18.3105 7.00879C18.6071 7.04864 18.8826 7.22077 19.0439 7.5L21.3047 11.415C22.133 12.85 21.641 14.6843 20.2061 15.5127L10.5 21.1162C10.4806 21.1274 10.4603 21.1367 10.4404 21.1465C9.58974 21.686 8.58188 22 7.5 22C4.46244 22 2 19.5376 2 16.5V5C2 3.34315 3.34315 2 5 2H10ZM5 4C4.44771 4 4 4.44771 4 5V16.5C4 18.433 5.567 20 7.5 20C9.433 20 11 18.433 11 16.5V5C11 4.44771 10.5523 4 10 4H5ZM13.5273 17.0586L19.2061 13.7812C19.6844 13.5051 19.8484 12.8934 19.5723 12.415L17.8906 9.50195L13.5273 17.0586ZM13 13.9717L16.2803 8.29102C16.5564 7.81276 16.3924 7.20096 15.9141 6.9248L13 5.24219V13.9717Z" fill="black"/>
</svg>
