<svg width="24" height="24" viewBox="0 0 24 24" fill="none" xmlns="http://www.w3.org/2000/svg">
<path d="M7.5 10.75C8.32843 10.75 9 11.4216 9 12.25C9 13.0784 8.32843 13.75 7.5 13.75C6.67157 13.75 6 13.0784 6 12.25C6 11.4216 6.67157 10.75 7.5 10.75Z" fill="black"/>
<path d="M15.5 8C16.3284 8 17 8.67157 17 9.5C17 10.3284 16.3284 11 15.5 11C14.6716 11 14 10.3284 14 9.5C14 8.67157 14.6716 8 15.5 8Z" fill="black"/>
<path d="M10.5 6.5C11.3284 6.5 12 7.17157 12 8C12 8.82843 11.3284 9.5 10.5 9.5C9.67157 9.5 9 8.82843 9 8C9 7.17157 9.67157 6.5 10.5 6.5Z" fill="black"/>
<path fill-rule="evenodd" clip-rule="evenodd" d="M12 2.5C17.4683 2.5 22 6.70022 22 12C22 13.8745 21.4953 15.2199 20.3486 15.9336C19.3009 16.5857 17.9969 16.5049 16.9756 16.3721C16.4477 16.3034 15.879 16.201 15.4014 16.126C14.8975 16.0468 14.4572 15.991 14.0723 15.9854C13.298 15.9741 13.0401 16.1561 12.8945 16.4473C12.8116 16.6132 12.7924 16.8408 12.9229 17.2275C13.061 17.6368 13.2968 18.0345 13.5625 18.5205C13.6824 18.7397 13.8184 18.9968 13.9141 19.25C14.0018 19.4823 14.1173 19.8623 14.0322 20.2783C13.9276 20.7892 13.5759 21.1312 13.166 21.3076C12.812 21.4599 12.4012 21.5 12 21.5C6.53178 21.5 2 17.2998 2 12C2 6.70021 6.53178 2.5 12 2.5ZM12 4.5C7.5271 4.5 4 7.91095 4 12C4 16.0326 7.43049 19.4028 11.8154 19.4951C11.8127 19.4901 11.8104 19.4845 11.8076 19.4795C11.595 19.0906 11.2381 18.488 11.0283 17.8662C10.8109 17.2217 10.6885 16.3866 11.1055 15.5527C11.7661 14.2315 13.0372 13.9699 14.1016 13.9854C14.6357 13.9932 15.1929 14.0688 15.7119 14.1504C16.2571 14.2361 16.7375 14.3242 17.2334 14.3887C18.2603 14.5222 18.9042 14.4776 19.292 14.2363C19.5809 14.0565 20 13.5786 20 12C20 7.91095 16.4729 4.5 12 4.5Z" fill="black"/>
</svg>
