<svg width="24" height="24" viewBox="0 0 24 24" fill="none" xmlns="http://www.w3.org/2000/svg">
<path d="M19.9493 16.2614C20.1215 16.1037 20.3789 16.1034 20.5509 16.2614C21.1636 16.8246 22.4996 18.2123 22.5001 19.5993C22.5001 20.9246 21.4925 21.9994 20.2501 21.9997C19.0075 21.9997 18.0001 20.9248 18.0001 19.5993C18.0007 18.2123 19.3367 16.8245 19.9493 16.2614Z" fill="black"/>
<path d="M9.19052 3.29366C10.2987 1.87062 12.4043 1.73994 13.6798 3.01534L20.377 9.71163C21.6515 10.987 21.5211 13.0927 20.0987 14.2009L11.2052 21.1237C9.61327 22.3631 7.34703 22.2224 5.92001 20.7966L2.5958 17.4724C1.16906 16.0454 1.02809 13.7785 2.26767 12.1862L3.81845 10.1931L10.213 13.2214C10.7119 13.4573 11.3075 13.2454 11.544 12.7468C11.7592 12.2919 11.6008 11.7564 11.1935 11.486L2.57236 7.40303C2.0733 7.16663 1.86048 6.57106 2.09677 6.07198C2.33333 5.57322 2.92888 5.36013 3.42783 5.59639L6.32724 6.96944L9.19052 3.29366Z" fill="black"/>
</svg>
