<svg width="24" height="24" viewBox="0 0 24 24" fill="none" xmlns="http://www.w3.org/2000/svg">
<path fill-rule="evenodd" clip-rule="evenodd" d="M10 2C10.8262 2 11.5746 2.33371 12.1172 2.87402C12.3942 2.75975 12.7194 2.77126 12.999 2.93262L16.9141 5.19238C17.6297 5.60555 18.11 6.26951 18.3096 7.00879C18.6068 7.04824 18.8833 7.22027 19.0449 7.5L21.3057 11.415C22.134 12.8498 21.6419 14.6843 20.207 15.5127L11.5 20.54C10.2561 21.2582 9.0182 22 7.5 22C4.46243 22 2 19.5376 2 16.5V5C2 3.34315 3.34315 2 5 2H10ZM7.5 15C6.67157 15 6 15.6716 6 16.5C6 17.3284 6.67157 18 7.5 18C8.32843 18 9 17.3284 9 16.5C9 15.6716 8.32843 15 7.5 15ZM13.5254 17.0615L19.207 13.7812C19.6853 13.505 19.8494 12.8933 19.5732 12.415L17.8906 9.5L13.5254 17.0615ZM13 13.9717L16.2803 8.29102C16.5563 7.81284 16.3921 7.20104 15.9141 6.9248L13 5.24219V13.9717Z" fill="black"/>
</svg>
