<svg width="24" height="24" viewBox="0 0 24 24" fill="none" xmlns="http://www.w3.org/2000/svg">
<path d="M19.9494 16.2624C20.1216 16.1042 20.3778 16.1042 20.55 16.2624C21.1629 16.8256 22.5002 18.213 22.5002 19.6003C22.5 20.9255 21.4925 21.9994 20.2502 21.9997C19.0077 21.9997 18.0004 20.9256 18.0002 19.6003C18.0002 18.213 19.3365 16.8256 19.9494 16.2624Z" fill="black"/>
<path fill-rule="evenodd" clip-rule="evenodd" d="M9.19159 3.29361C10.2998 1.87033 12.4043 1.73976 13.6799 3.01529L20.3771 9.71256C21.652 10.9881 21.5219 13.0928 20.0988 14.2008L11.2053 21.1247C9.61302 22.364 7.34605 22.2232 5.91913 20.7965L2.59589 17.4723C1.16903 16.0455 1.02827 13.7795 2.26776 12.1872L5.0705 8.58561L2.57245 7.40299C2.07337 7.16658 1.86054 6.57103 2.09687 6.07193C2.33336 5.57304 2.92891 5.36006 3.42792 5.59635L6.32831 6.97037L9.19159 3.29361ZM12.2658 4.42936C11.8673 4.03087 11.226 4.04432 10.843 4.43815L10.7697 4.52213L8.17987 7.84733L12.9279 10.0963C13.4267 10.3328 13.6396 10.9284 13.4035 11.4274C13.1671 11.9264 12.5715 12.1391 12.0725 11.903L6.92206 9.46354L3.84589 13.4157C3.22621 14.2118 3.29653 15.3448 4.00995 16.0583L7.33417 19.3825C8.04761 20.0954 9.18073 20.1661 9.97675 19.5465L18.8703 12.6227C19.3443 12.2536 19.3876 11.5519 18.9631 11.1266L12.2658 4.42936Z" fill="black"/>
</svg>
