<svg width="24" height="24" viewBox="0 0 24 24" fill="none" xmlns="http://www.w3.org/2000/svg">
<path d="M10.5855 14.7496C11.3665 13.9688 12.6326 13.969 13.4137 14.7496L15.4996 16.8356C16.2807 17.6166 16.2805 18.8826 15.4996 19.6637L13.4137 21.7496C12.6326 22.5306 11.3666 22.5306 10.5855 21.7496L8.4996 19.6637C7.71893 18.8826 7.71876 17.6166 8.4996 16.8356L10.5855 14.7496Z" fill="black"/>
<path d="M4.33554 8.49964C5.11648 7.71877 6.38262 7.71893 7.16367 8.49964L9.2496 10.5856C10.0306 11.3666 10.0306 12.6326 9.2496 13.4137L7.16367 15.4996C6.38262 16.2806 5.11656 16.2806 4.33554 15.4996L2.24961 13.4137C1.46892 12.6326 1.46876 11.3666 2.24961 10.5856L4.33554 8.49964Z" fill="black"/>
<path d="M16.8355 8.49964C17.6165 7.71879 18.8826 7.71896 19.6637 8.49964L21.7496 10.5856C22.5307 11.3667 22.5305 12.6326 21.7496 13.4137L19.6637 15.4996C18.8826 16.2806 17.6166 16.2806 16.8355 15.4996L14.7496 13.4137C13.9689 12.6326 13.9688 11.3666 14.7496 10.5856L16.8355 8.49964Z" fill="black"/>
<path d="M10.5855 2.24964C11.3665 1.46879 12.6326 1.46895 13.4137 2.24964L15.4996 4.33557C16.2807 5.1166 16.2806 6.38264 15.4996 7.1637L13.4137 9.24964C12.6326 10.0306 11.3666 10.0307 10.5855 9.24964L8.4996 7.1637C7.71889 6.38266 7.71873 5.11652 8.4996 4.33557L10.5855 2.24964Z" fill="black"/>
</svg>
