<svg width="24" height="24" viewBox="0 0 24 24" fill="none" xmlns="http://www.w3.org/2000/svg">
<path fill-rule="evenodd" clip-rule="evenodd" d="M10.5864 14.7497C11.3675 13.9691 12.6335 13.9688 13.4145 14.7497L15.5004 16.8357C16.2811 17.6167 16.281 18.8827 15.5004 19.6638L13.4145 21.7497C12.6335 22.5306 11.3675 22.5305 10.5864 21.7497L8.50043 19.6638C7.71947 18.8827 7.71949 17.6168 8.50043 16.8357L10.5864 14.7497ZM9.91449 18.2497L12.0004 20.3357L14.0864 18.2497L12.0004 16.1638L9.91449 18.2497Z" fill="black"/>
<path fill-rule="evenodd" clip-rule="evenodd" d="M4.33637 8.49973C5.11745 7.7191 6.38358 7.71881 7.16449 8.49973L9.25043 10.5857C9.98222 11.3179 10.0274 12.476 9.38715 13.2614L9.25043 13.4138L7.16449 15.4997C6.38354 16.2806 5.11741 16.2805 4.33637 15.4997L2.25043 13.4138C1.46947 12.6327 1.46949 11.3668 2.25043 10.5857L4.33637 8.49973ZM3.66449 11.9997L5.75043 14.0857L7.83637 11.9997L5.75043 9.91379L3.66449 11.9997Z" fill="black"/>
<path fill-rule="evenodd" clip-rule="evenodd" d="M16.8364 8.49973C17.6175 7.71917 18.8835 7.71889 19.6645 8.49973L21.7504 10.5857C22.531 11.3667 22.5309 12.6327 21.7504 13.4138L19.6645 15.4997C18.8835 16.2806 17.6175 16.2805 16.8364 15.4997L14.7504 13.4138C13.9693 12.6327 13.9694 11.3668 14.7504 10.5857L16.8364 8.49973ZM16.1645 11.9997L18.2504 14.0857L20.3364 11.9997L18.2504 9.91379L16.1645 11.9997Z" fill="black"/>
<path fill-rule="evenodd" clip-rule="evenodd" d="M10.5864 2.24973C11.3675 1.46913 12.6335 1.46888 13.4145 2.24973L15.5004 4.33567C16.2325 5.06797 16.278 6.22697 15.6371 7.01242L15.5004 7.16379L13.4145 9.24973C12.6335 10.0306 11.3675 10.0305 10.5864 9.24973L8.50043 7.16379C7.7194 6.38276 7.71945 5.11673 8.50043 4.33567L10.5864 2.24973ZM9.91449 5.74973L12.0004 7.83567L14.0864 5.74973L12.0004 3.66379L9.91449 5.74973Z" fill="black"/>
</svg>
