<svg width="24" height="24" viewBox="0 0 24 24" fill="none" xmlns="http://www.w3.org/2000/svg">
<path fill-rule="evenodd" clip-rule="evenodd" d="M13.75 2C14.9927 2 16 3.00738 16 4.25V8H19.75C20.9927 8 22 9.00738 22 10.25V19.75C22 20.9927 20.9927 22 19.75 22H10.25C9.00738 22 8 20.9927 8 19.75V16H4.25C3.00738 16 2 14.9927 2 13.75V4.25C2 3.00736 3.00736 2 4.25 2H13.75ZM10.25 10C10.1119 10 10 10.1119 10 10.25V19.75C10 19.8881 10.1119 20 10.25 20H19.75C19.8881 20 20 19.8881 20 19.75V10.25C20 10.1119 19.8881 10 19.75 10H10.25ZM4.25 4C4.11192 4 4 4.11192 4 4.25V13.75C4 13.8881 4.1119 14 4.25 14H8V10.25C8 9.00736 9.00736 8 10.25 8H14V4.25C14 4.1119 13.8881 4 13.75 4H4.25Z" fill="black"/>
</svg>
