<svg width="24" height="24" viewBox="0 0 24 24" fill="none" xmlns="http://www.w3.org/2000/svg">
<path d="M15.2927 7.29266C15.6832 6.90219 16.3162 6.90229 16.7068 7.29266C17.0973 7.68319 17.0973 8.3162 16.7068 8.70672L13.4138 11.9997L16.7068 15.2927C17.0973 15.6832 17.0973 16.3162 16.7068 16.7067C16.3162 17.0973 15.6832 17.0973 15.2927 16.7067L11.9997 13.4138L8.70677 16.7067C8.31625 17.0973 7.68323 17.0973 7.29271 16.7067C6.90234 16.3162 6.90224 15.6831 7.29271 15.2927L10.5857 11.9997L7.29271 8.70672C6.90234 8.31619 6.90224 7.68313 7.29271 7.29266C7.68318 6.90219 8.31623 6.90229 8.70677 7.29266L11.9997 10.5856L15.2927 7.29266Z" fill="black"/>
</svg>
