<svg width="24" height="24" viewBox="0 0 24 24" fill="none" xmlns="http://www.w3.org/2000/svg">
<path d="M16.7927 5.79266C17.1832 5.40219 17.8162 5.4023 18.2068 5.79266C18.5973 6.18319 18.5973 6.8162 18.2068 7.20672L13.4138 11.9997L18.2068 16.7927C18.5973 17.1832 18.5973 17.8162 18.2068 18.2067C17.8162 18.5972 17.1832 18.5972 16.7927 18.2067L11.9997 13.4138L7.20677 18.2067C6.81625 18.5972 6.18323 18.5972 5.79271 18.2067C5.40234 17.8162 5.40224 17.1831 5.79271 16.7927L10.5857 11.9997L5.79271 7.20672C5.40234 6.81619 5.40224 6.18313 5.79271 5.79266C6.18318 5.40219 6.81623 5.40229 7.20677 5.79266L11.9997 10.5856L16.7927 5.79266Z" fill="black"/>
</svg>
