<svg width="24" height="24" viewBox="0 0 24 24" fill="none" xmlns="http://www.w3.org/2000/svg">
<path d="M11 20.5V18C11 17.4477 11.4477 17 12 17C12.5523 17 13 17.4477 13 18V20.5C13 21.0523 12.5523 21.5 12 21.5C11.4477 21.5 11 21.0523 11 20.5Z" fill="black"/>
<path d="M11 5.99999V3.49999C11 2.94771 11.4477 2.49999 12 2.49999C12.5523 2.49999 13 2.94771 13 3.49999V5.99999C13 6.55228 12.5523 6.99999 12 6.99999C11.4477 6.99999 11 6.55228 11 5.99999Z" fill="black"/>
<path d="M3.63379 7.28869C3.90992 6.81042 4.52172 6.6464 5 6.92248L7.09766 8.1344C7.57589 8.4105 7.73986 9.02136 7.46387 9.49963C7.18773 9.97792 6.57595 10.142 6.09766 9.86584L4 8.6549C3.52173 8.37878 3.35771 7.76697 3.63379 7.28869Z" fill="black"/>
<path d="M6.09766 14.1338C6.57591 13.8577 7.1877 14.0218 7.46387 14.5C7.74001 14.9783 7.57595 15.5901 7.09766 15.8662L5 17.0771C4.5217 17.3533 3.90993 17.1892 3.63379 16.7109C3.35797 16.2327 3.52197 15.6218 4 15.3457L6.09766 14.1338Z" fill="black"/>
<path d="M16.5361 14.5C16.8122 14.0217 17.424 13.8577 17.9023 14.1338L20 15.3457C20.4782 15.6218 20.6422 16.2327 20.3662 16.7109C20.09 17.1892 19.4783 17.3533 19 17.0771L16.9023 15.8662C16.424 15.5901 16.26 14.9783 16.5361 14.5Z" fill="black"/>
<path d="M19 6.92248C19.4782 6.64636 20.09 6.81049 20.3662 7.28869C20.6423 7.76699 20.4783 8.37876 20 8.6549L17.9023 9.86584C17.424 10.142 16.8122 9.97792 16.5361 9.49963C16.2603 9.02145 16.4243 8.41051 16.9023 8.13439L19 6.92248Z" fill="black"/>
<path d="M19 9.99974V8.0847L17.252 7.10131C16.7708 6.83049 16.6004 6.22127 16.8711 5.73998C17.1419 5.25876 17.7511 5.08839 18.2324 5.35912L19.9805 6.34154C20.6099 6.69574 21 7.36221 21 8.0847V9.99974C21 10.5519 20.5521 10.9995 20 10.9997C19.4477 10.9997 19 10.552 19 9.99974Z" fill="black"/>
<path d="M19 14C19 13.4477 19.4477 13 20 13C20.5521 13.0002 21 13.4478 21 14V15.915C21 16.6375 20.6099 17.304 19.9805 17.6582L18.2324 18.6416C17.7511 18.9123 17.1419 18.7411 16.8711 18.2598C16.6004 17.7784 16.7707 17.1692 17.252 16.8984L19 15.915V14Z" fill="black"/>
<path d="M13.6895 18.9032C14.1708 18.6325 14.78 18.8028 15.0508 19.2841C15.3215 19.7653 15.151 20.3745 14.6699 20.6454L12.9805 21.5956C12.3717 21.9379 11.6283 21.9379 11.0195 21.5956L9.33106 20.6454C8.84983 20.3746 8.67945 19.7654 8.9502 19.2841C9.22102 18.8028 9.83023 18.6325 10.3115 18.9032L12 19.8524L13.6895 18.9032Z" fill="black"/>
<path d="M3 15.915V14C3 13.4477 3.44772 13 4 13C4.55228 13 5 13.4477 5 14V15.915L6.74805 16.8984C7.22906 17.1693 7.39945 17.7786 7.12891 18.2598C6.85822 18.741 6.24886 18.912 5.76758 18.6416L4.01953 17.6582C3.38977 17.304 3 16.6375 3 15.915Z" fill="black"/>
<path d="M3 9.99974V8.0847C3.00006 7.36287 3.38842 6.69607 4.01855 6.34154L5.76758 5.35912C6.24891 5.08845 6.85816 5.25867 7.12891 5.73998C7.39958 6.22117 7.22903 6.8304 6.74805 7.10131L5 8.0847V9.99974C5 10.552 4.55228 10.9997 4 10.9997C3.44772 10.9997 3 10.552 3 9.99974Z" fill="black"/>
<path d="M11.0195 2.40417C11.6282 2.06175 12.3717 2.06187 12.9805 2.40417L14.6699 3.35436C15.151 3.62518 15.3214 4.23445 15.0508 4.71569C14.7801 5.19693 14.1708 5.36802 13.6895 5.09752L12 4.14733L10.3115 5.09752C9.83019 5.36819 9.22094 5.197 8.9502 4.71569C8.67945 4.23436 8.84976 3.62514 9.33106 3.35436L11.0195 2.40417Z" fill="black"/>
<path d="M11 14V12.5771L9.7676 11.8662C9.28934 11.5901 9.12531 10.9783 9.40139 10.5C9.67752 10.0217 10.2893 9.85771 10.7676 10.1338L11.999 10.8457L13.2315 10.1338C13.7098 9.85765 14.3215 10.0217 14.5977 10.5C14.8738 10.9783 14.7098 11.5901 14.2315 11.8662L13 12.5771V14C13 14.5521 12.5521 14.9998 12 15C11.4477 15 11 14.5523 11 14Z" fill="black"/>
</svg>
