<svg width="24" height="24" viewBox="0 0 24 24" fill="none" xmlns="http://www.w3.org/2000/svg">
<path d="M15.5 16C16.0523 16 16.5 16.4477 16.5 17C16.5 17.5523 16.0523 18 15.5 18H9C8.44772 18 8 17.5523 8 17C8 16.4477 8.44772 16 9 16H15.5Z" fill="black"/>
<path d="M12 12C12.5523 12 13 12.4477 13 13C13 13.5523 12.5523 14 12 14H9C8.44772 14 8 13.5523 8 13C8 12.4477 8.44772 12 9 12H12Z" fill="black"/>
<path fill-rule="evenodd" clip-rule="evenodd" d="M12.1719 2C12.9674 2.00007 13.7304 2.31638 14.293 2.87891L19.1211 7.70703C19.6837 8.26959 19.9999 9.03259 20 9.82812V19C20 20.6569 18.6569 22 17 22H7C5.34315 22 4 20.6569 4 19V5C4 3.34315 5.34315 2 7 2H12.1719ZM7 4C6.44771 4 6 4.44771 6 5V19C6 19.5523 6.44771 20 7 20H17C17.5523 20 18 19.5523 18 19V10H15C13.3431 10 12 8.65685 12 7V4H7ZM14 7C14 7.5523 14.4477 8 15 8H16.5859L14 5.41406V7Z" fill="black"/>
</svg>
