<svg width="24" height="24" viewBox="0 0 24 24" fill="none" xmlns="http://www.w3.org/2000/svg">
<path fill-rule="evenodd" clip-rule="evenodd" d="M12 7C12 8.65685 13.3431 10 15 10H20V19C20 20.6569 18.6569 22 17 22H7C5.34315 22 4 20.6569 4 19V5C4 3.34315 5.34315 2 7 2H12V7ZM9 17C8.44772 17 8 17.4477 8 18C8 18.5523 8.44772 19 9 19H15.5C16.0523 19 16.5 18.5523 16.5 18C16.5 17.4477 16.0523 17 15.5 17H9ZM9 13C8.44772 13 8 13.4477 8 14C8 14.5523 8.44772 15 9 15H12C12.5523 15 13 14.5523 13 14C13 13.4477 12.5523 13 12 13H9Z" fill="black"/>
<path d="M19.4141 8H15C14.4477 8 14.0001 7.55224 14 7V2.58594L19.4141 8Z" fill="black"/>
</svg>
