<svg width="24" height="24" viewBox="0 0 24 24" fill="none" xmlns="http://www.w3.org/2000/svg">
<path fill-rule="evenodd" clip-rule="evenodd" d="M22 15.7997C22 16.3432 22.0011 16.8117 21.9697 17.1953C21.9374 17.5906 21.8656 17.9839 21.6728 18.3622C21.3853 18.9265 20.9265 19.3852 20.3623 19.6728C19.9839 19.8656 19.5906 19.9374 19.1953 19.9697C18.8117 20.0011 18.3434 19.9999 17.7998 19.9999H6.20015C5.6566 19.9999 5.18832 20.0011 4.80465 19.9697C4.40941 19.9374 4.01594 19.8655 3.63765 19.6728C3.07342 19.3852 2.61467 18.9265 2.32711 18.3622C2.13436 17.9839 2.06254 17.5906 2.03023 17.1953C1.99888 16.8117 1.99996 16.3432 1.99996 15.7997V8.20014C1.99996 7.65659 1.99888 7.1883 2.03023 6.80463C2.06254 6.40939 2.13436 6.01593 2.32711 5.63764C2.61468 5.07342 3.07344 4.61466 3.63765 4.32709C4.01594 4.13435 4.40941 4.06253 4.80465 4.03022C5.18832 3.99887 5.6566 3.99994 6.20015 3.99994H17.7998C18.3434 3.99994 18.8117 3.99887 19.1953 4.03022C19.5906 4.06253 19.9839 4.13434 20.3623 4.32709C20.9265 4.61466 21.3852 5.07341 21.6728 5.63764C21.8656 6.01593 21.9374 6.40939 21.9697 6.80463C22.0011 7.1883 22 7.65659 22 8.20014V15.7997ZM19.998 7.74799L13.8994 12.7382C12.7944 13.6419 11.2055 13.642 10.1005 12.7382L4.00094 7.74799C4.00028 7.88341 3.99996 8.0333 3.99996 8.20014V15.7997C3.99996 16.3762 4.00122 16.7488 4.02437 17.0322C4.04656 17.3037 4.08414 17.4045 4.10933 17.454C4.20517 17.642 4.35789 17.7947 4.54586 17.8906C4.59529 17.9158 4.69612 17.9543 4.96773 17.9765C5.25106 17.9996 5.6236 17.9999 6.20015 17.9999H17.7998C18.3763 17.9999 18.7488 17.9996 19.0322 17.9765C19.3038 17.9543 19.4046 17.9158 19.4541 17.8906C19.6421 17.7947 19.7947 17.642 19.8906 17.454C19.9158 17.4045 19.9543 17.3038 19.9765 17.0322C19.9996 16.7488 20 16.3762 20 15.7997V8.20014C20 8.0333 19.9987 7.88341 19.998 7.74799ZM6.20015 5.99994C5.6756 5.99994 5.32006 6.00192 5.04683 6.01947L11.3671 11.1904C11.7354 11.4912 12.2645 11.4912 12.6328 11.1904L18.9521 6.01947C18.679 6.00199 18.3237 5.99994 17.7998 5.99994H6.20015Z" fill="black"/>
</svg>
