<svg width="24" height="24" viewBox="0 0 24 24" fill="none" xmlns="http://www.w3.org/2000/svg">
<path d="M21.8799 6.20899C21.9267 6.40594 21.9534 6.60501 21.9697 6.80469C22.0003 7.17918 22 7.63414 22 8.16113V15.8389C22 16.3659 22.0003 16.8209 21.9697 17.1953C21.9374 17.5906 21.8656 17.984 21.6728 18.3623C21.3853 18.9266 20.9266 19.3853 20.3623 19.6729C19.984 19.8656 19.5906 19.9374 19.1953 19.9697C18.8209 20.0003 18.3658 20 17.8389 20H6.16112C5.63412 20 5.17916 20.0003 4.80467 19.9697C4.40942 19.9374 4.01597 19.8656 3.63768 19.6729C3.07346 19.3853 2.6147 18.9266 2.32713 18.3623C2.13439 17.984 2.06257 17.5906 2.03026 17.1953C1.99967 16.8209 1.99997 16.3659 1.99999 15.8389V8.16113C1.99997 7.63413 1.99967 7.17918 2.03026 6.80469C2.04659 6.60503 2.07324 6.40593 2.1201 6.20899L10.1006 12.7383C11.2055 13.642 12.7944 13.6419 13.8994 12.7383L21.8799 6.20899Z" fill="black"/>
<path d="M17.8389 4C18.3658 3.99998 18.8209 3.99968 19.1953 4.03028C19.5906 4.06259 19.984 4.13441 20.3623 4.32715C20.4944 4.39447 20.6205 4.4714 20.7402 4.55664L12.6328 11.1895C12.2645 11.4908 11.7355 11.4908 11.3672 11.1895L3.25975 4.55664C3.37944 4.4714 3.50559 4.39447 3.63768 4.32715C4.01598 4.1344 4.40941 4.06258 4.80467 4.03028C5.17915 3.99968 5.63413 3.99998 6.16112 4H17.8389Z" fill="black"/>
</svg>
