<svg width="24" height="24" viewBox="0 0 24 24" fill="none" xmlns="http://www.w3.org/2000/svg">
<path d="M15.4521 13.7871C15.6433 13.7525 15.839 13.7924 15.998 13.8994C16.1571 14.0066 16.268 14.1739 16.3076 14.3643C16.3472 14.5547 16.3116 14.7522 16.2158 14.9189C16.1309 15.0628 16.0405 15.2001 15.9404 15.335C15.0506 16.5569 13.5166 17.288 12.002 17.2754C10.4873 17.2853 8.9571 16.5539 8.06543 15.3359C7.96516 15.2014 7.87435 15.0644 7.78906 14.9209C7.69279 14.7545 7.65626 14.5567 7.69531 14.3662C7.73435 14.1757 7.84511 14.0092 8.00391 13.9014C8.16272 13.7937 8.35839 13.7529 8.5498 13.7871C8.74131 13.8212 8.9121 13.9279 9.03125 14.0791C9.10537 14.1705 9.18105 14.256 9.26172 14.3389C9.9821 15.0826 10.988 15.4753 12.0039 15.4746C13.0197 15.4767 14.0237 15.0851 14.7412 14.3408C14.8217 14.2578 14.8979 14.1727 14.9717 14.0811C15.0904 13.9296 15.2607 13.8218 15.4521 13.7871Z" fill="black"/>
<path d="M9.25 8C10.0784 8 10.75 8.79582 10.75 9.90039C10.7498 11.0048 10.0783 11.75 9.25 11.75C8.42167 11.75 7.75016 11.0048 7.75 9.90039C7.75 8.79582 8.42157 8 9.25 8Z" fill="black"/>
<path d="M14.75 8C15.5784 8 16.25 8.79582 16.25 9.90039C16.2498 11.0048 15.5783 11.75 14.75 11.75C13.9217 11.75 13.2502 11.0048 13.25 9.90039C13.25 8.79582 13.9216 8 14.75 8Z" fill="black"/>
<path fill-rule="evenodd" clip-rule="evenodd" d="M12 2C17.5228 2 22 6.47715 22 12C22 17.5228 17.5228 22 12 22C6.47715 22 2 17.5228 2 12C2 6.47715 6.47715 2 12 2ZM12 4C7.58172 4 4 7.58172 4 12C4 16.4183 7.58172 20 12 20C16.4183 20 20 16.4183 20 12C20 7.58172 16.4183 4 12 4Z" fill="black"/>
</svg>
