<svg width="24" height="24" viewBox="0 0 24 24" fill="none" xmlns="http://www.w3.org/2000/svg">
<path fill-rule="evenodd" clip-rule="evenodd" d="M12 2C17.5228 2 22 6.47715 22 12C22 17.5228 17.5228 22 12 22C6.47715 22 2 17.5228 2 12C2 6.47715 6.47715 2 12 2ZM15.4521 14.0371C15.2609 14.0718 15.0904 14.1797 14.9717 14.3311C14.8979 14.4227 14.8216 14.5088 14.7412 14.5918C14.0238 15.3357 13.0193 15.7266 12.0039 15.7246C10.9881 15.7253 9.98306 15.3324 9.2627 14.5889C9.18195 14.5059 9.10542 14.4206 9.03125 14.3291C8.91221 14.1781 8.74112 14.0713 8.5498 14.0371C8.35855 14.003 8.16264 14.0438 8.00391 14.1514C7.84516 14.2591 7.73435 14.4258 7.69531 14.6162C7.65627 14.8066 7.69281 15.0044 7.78906 15.1709C7.87432 15.3143 7.9652 15.4515 8.06543 15.5859C8.95709 16.8038 10.4874 17.5353 12.002 17.5254C13.5163 17.5378 15.0507 16.8068 15.9404 15.585C16.0404 15.4501 16.1309 15.3127 16.2158 15.1689C16.3115 15.0022 16.3472 14.8045 16.3076 14.6143C16.268 14.424 16.157 14.2567 15.998 14.1494C15.8392 14.0425 15.6431 14.0026 15.4521 14.0371ZM9.25 7.5C8.42157 7.5 7.75 8.29582 7.75 9.40039C7.75016 10.5047 8.42167 11.25 9.25 11.25C10.0783 11.25 10.7498 10.5047 10.75 9.40039C10.75 8.29582 10.0784 7.5 9.25 7.5ZM14.75 7.5C13.9216 7.5 13.25 8.29582 13.25 9.40039C13.2502 10.5047 13.9217 11.25 14.75 11.25C15.5783 11.25 16.2498 10.5047 16.25 9.40039C16.25 8.29582 15.5784 7.5 14.75 7.5Z" fill="black"/>
</svg>
