<svg width="24" height="24" viewBox="0 0 24 24" fill="none" xmlns="http://www.w3.org/2000/svg">
<path d="M8.99996 5C9.55224 5 9.99996 5.44772 9.99996 6C9.99996 6.55228 9.55224 7 8.99996 7H7.20015C6.62364 7 6.25106 7.00127 5.96773 7.02441C5.69619 7.04661 5.59529 7.08419 5.54586 7.10938C5.3579 7.20521 5.20516 7.35794 5.10933 7.5459C5.08415 7.59534 5.04657 7.69623 5.02437 7.96777C5.00122 8.25111 4.99996 8.62365 4.99996 9.2002V16.7998C4.99996 17.3764 5.00122 17.7489 5.02437 18.0322C5.04657 18.3038 5.08416 18.4047 5.10933 18.4541C5.2052 18.6421 5.35797 18.7949 5.54586 18.8906C5.59528 18.9158 5.6962 18.9534 5.96773 18.9756C6.25106 18.9987 6.62364 19 7.20015 19H14.7998C15.3763 19 15.7488 18.9987 16.0322 18.9756C16.3037 18.9534 16.4046 18.9158 16.4541 18.8906C16.642 18.7948 16.7948 18.6421 16.8906 18.4541C16.9158 18.4047 16.9533 18.3038 16.9755 18.0322C16.9987 17.7489 17 17.3764 17 16.7998V15C17 14.4477 17.4477 14 18 14C18.5522 14 19 14.4477 19 15V16.7998C19 17.3434 19.001 17.8116 18.9697 18.1953C18.9374 18.5906 18.8656 18.984 18.6728 19.3623C18.3853 19.9265 17.9265 20.3853 17.3623 20.6729C16.984 20.8656 16.5905 20.9374 16.1953 20.9697C15.8116 21.0011 15.3433 21 14.7998 21H7.20015C6.65663 21 6.18831 21.0011 5.80465 20.9697C5.4094 20.9374 5.01594 20.8656 4.63765 20.6729C4.07336 20.3853 3.61463 19.9264 3.32711 19.3623C3.13434 18.984 3.06254 18.5906 3.03023 18.1953C2.99888 17.8116 2.99996 17.3434 2.99996 16.7998V9.2002C2.99996 8.65665 2.99889 8.18836 3.03023 7.80469C3.06254 7.40944 3.13436 7.01599 3.32711 6.6377C3.61467 6.07348 4.07345 5.61472 4.63765 5.32715C5.01593 5.1344 5.40941 5.06259 5.80465 5.03027C6.1883 4.99893 6.65663 5 7.20015 5H8.99996Z" fill="black"/>
<path d="M20 3C20.5522 3 21 3.44772 21 4V10C21 10.5523 20.5522 11 20 11C19.4477 11 19 10.5523 19 10V6.41406L11.707 13.707C11.3165 14.0975 10.6834 14.0975 10.2929 13.707C9.90243 13.3165 9.90243 12.6835 10.2929 12.293L17.5859 5H14C13.4477 4.99998 13 4.55227 13 4C13 3.44773 13.4477 3.00002 14 3H20Z" fill="black"/>
</svg>
