<svg width="24" height="24" viewBox="0 0 24 24" fill="none" xmlns="http://www.w3.org/2000/svg">
<path d="M19.2711 12.2529C19.6495 11.8508 20.2829 11.8317 20.6851 12.21C21.0873 12.5884 21.1064 13.2218 20.7281 13.624C19.5452 14.8816 18.2259 15.8494 16.8307 16.5205L17.8551 18.2148C18.1407 18.6874 17.9896 19.3022 17.5172 19.5879C17.0445 19.8733 16.4297 19.7216 16.1441 19.249L14.9293 17.2393C14.294 17.4162 13.6491 17.5344 12.9996 17.5947V20C12.9996 20.5523 12.5519 21 11.9996 21C11.4475 20.9998 10.9996 20.5522 10.9996 20V17.5947C10.3498 17.5344 9.70452 17.4163 9.06894 17.2393L7.85507 19.249C7.56937 19.7216 6.95464 19.8735 6.48202 19.5879C6.00985 19.3021 5.85873 18.6873 6.14413 18.2148L7.16757 16.5205C5.77274 15.8493 4.45363 14.8813 3.27108 13.624C2.8929 13.2219 2.91232 12.5884 3.31405 12.21C3.71629 11.8317 4.34972 11.8508 4.72811 12.2529C6.88147 14.5425 9.46462 15.6425 11.9996 15.6426C14.5346 15.6426 17.1177 14.5424 19.2711 12.2529Z" fill="black"/>
<path d="M11.9996 3C15.1417 2.99998 18.2365 4.36958 20.7281 7.01855C21.1064 7.42079 21.0873 8.05422 20.6851 8.43262C20.2829 8.81075 19.6494 8.79172 19.2711 8.38965C17.1176 6.10013 14.5346 4.99998 11.9996 5C9.46463 5.00013 6.88149 6.10004 4.72811 8.38965C4.34971 8.79169 3.71627 8.8109 3.31405 8.43262C2.91236 8.05431 2.89325 7.42169 3.27108 7.01953C5.76266 4.37032 8.85744 3.00013 11.9996 3Z" fill="black"/>
</svg>
