<svg width="24" height="24" viewBox="0 0 24 24" fill="none" xmlns="http://www.w3.org/2000/svg">
<path fill-rule="evenodd" clip-rule="evenodd" d="M12.0003 8C14.2093 8.00024 16.0003 9.79096 16.0003 12C16.0003 14.209 14.2093 15.9998 12.0003 16C9.79116 16 8.00034 14.2092 8.00034 12C8.00034 9.79082 9.79116 8 12.0003 8ZM12.0003 10C10.8957 10 10.0003 10.8954 10.0003 12C10.0003 13.1046 10.8957 14 12.0003 14C13.1048 13.9998 14.0003 13.1045 14.0003 12C14.0003 10.8955 13.1048 10.0002 12.0003 10Z" fill="black"/>
<path fill-rule="evenodd" clip-rule="evenodd" d="M11.9994 4C15.951 3.99997 19.7897 6.27247 22.3558 10.583C22.8754 11.4557 22.8762 12.5442 22.3568 13.417C19.7907 17.7275 15.9509 20 11.9994 20C8.04785 19.9998 4.20895 17.7275 1.64292 13.417C1.12347 12.5443 1.12357 11.4557 1.64292 10.583C4.20895 6.2725 8.04788 4.00022 11.9994 4ZM11.9994 6C8.87251 6.00022 5.63282 7.79121 3.36167 11.6064C3.21756 11.8488 3.21765 12.1514 3.36167 12.3936C5.63282 16.2088 8.87251 17.9998 11.9994 18C15.1263 18 18.3668 16.2089 20.638 12.3936C20.7821 12.1513 20.782 11.8485 20.638 11.6064C18.3668 7.79109 15.1263 5.99998 11.9994 6Z" fill="black"/>
</svg>
