<svg width="24" height="24" viewBox="0 0 24 24" fill="none" xmlns="http://www.w3.org/2000/svg">
<path fill-rule="evenodd" clip-rule="evenodd" d="M2.29248 2.29295C2.68301 1.90243 3.31698 1.90243 3.70751 2.29295L21.7075 20.293C22.0977 20.6834 22.0977 21.3166 21.7075 21.707C21.317 22.0975 20.683 22.0975 20.2925 21.707L17.1997 18.6142C14.5844 20.0721 11.6567 20.3854 8.89599 19.5224C6.08858 18.6447 3.52525 16.5776 1.64404 13.418C1.1252 12.5463 1.12229 11.4576 1.64208 10.584L1.85009 10.2431C2.79319 8.73777 3.89592 7.4939 5.1079 6.52244L2.29248 3.70701C1.90229 3.31654 1.90228 2.68341 2.29248 2.29295ZM6.53271 7.94725C5.36729 8.84283 4.28316 10.0579 3.36083 11.6074C3.21754 11.8487 3.21734 12.1516 3.36181 12.3945C5.02991 15.1964 7.22326 16.9037 9.49267 17.6133C11.541 18.2536 13.7073 18.0978 15.7173 17.1318L14.0298 15.4443C13.4341 15.7959 12.7402 15.9999 12.0005 16C9.79134 16 8.00048 14.2092 8.00048 12C8.00049 11.2599 8.20233 10.5647 8.55419 9.96873L6.53271 7.94725ZM10.0679 11.4824C10.0239 11.6472 10.0005 11.8205 10.0005 12C10.0005 13.1046 10.8959 14 12.0005 14C12.1794 13.9999 12.3518 13.9744 12.5161 13.9306L10.0679 11.4824Z" fill="black"/>
<path d="M10.6069 4.09471C15.0158 3.49182 19.4845 5.7582 22.3569 10.584C22.8761 11.4563 22.8773 12.5432 22.3579 13.416C21.9617 14.0816 21.5351 14.6988 21.0825 15.2666C20.7384 15.6983 20.1091 15.7695 19.6772 15.4258C19.2455 15.0816 19.1742 14.4524 19.5181 14.0205C19.912 13.5263 20.2875 12.9833 20.6392 12.3926C20.783 12.1505 20.7834 11.8488 20.6392 11.6064C18.1006 7.34159 14.3527 5.60121 10.8784 6.07615C10.3313 6.15098 9.82647 5.76867 9.75146 5.22166C9.67665 4.67455 10.0599 4.16964 10.6069 4.09471Z" fill="black"/>
</svg>
