<svg width="24" height="24" viewBox="0 0 24 24" fill="none" xmlns="http://www.w3.org/2000/svg">
<path fill-rule="evenodd" clip-rule="evenodd" d="M12 4C15.9516 3.99997 19.7903 6.27236 22.3564 10.583C22.8759 11.4557 22.8759 12.5443 22.3564 13.417C19.7903 17.7276 15.9516 20 12 20C8.04833 20 4.20968 17.7277 1.64354 13.417C1.12404 12.5443 1.12404 11.4557 1.64354 10.583C4.20968 6.27241 8.04834 4.00003 12 4ZM12 8.5C10.067 8.5 8.49998 10.067 8.49998 12C8.49998 13.933 10.067 15.5 12 15.5C13.933 15.5 15.5 13.933 15.5 12C15.5 10.067 13.933 8.5 12 8.5Z" fill="black"/>
</svg>
