<svg width="24" height="24" viewBox="0 0 24 24" fill="none" xmlns="http://www.w3.org/2000/svg">
<path fill-rule="evenodd" clip-rule="evenodd" d="M2.29326 2.29277C2.68381 1.90249 3.31687 1.90233 3.70732 2.29277L18.0638 16.6502L18.0667 16.6521L21.7073 20.2928C22.0977 20.6832 22.0976 21.3163 21.7073 21.7068C21.3168 22.0973 20.6838 22.0973 20.2933 21.7068L17.2034 18.617C14.6844 20.0214 11.8706 20.3634 9.19365 19.6111C6.27111 18.7898 3.59162 16.6893 1.64384 13.4178C1.12516 12.5462 1.12306 11.4583 1.64287 10.5848C2.63071 8.92504 3.80655 7.56593 5.10869 6.52226L2.29326 3.70683C1.90274 3.3163 1.90274 2.6833 2.29326 2.29277ZM8.554 9.96855C8.20246 10.5639 8.00036 11.2586 8.00029 11.9998C8.00029 14.209 9.7912 15.9998 12.0003 15.9998C12.7417 15.9998 13.437 15.7977 14.0325 15.4461L12.5188 13.9324C12.3537 13.9766 12.1797 13.9998 12.0003 13.9998C10.8958 13.9998 10.0003 13.1044 10.0003 11.9998C10.0003 11.8207 10.0236 11.6472 10.0677 11.4822L8.554 9.96855Z" fill="black"/>
<path d="M11.9993 3.9998C15.9509 3.99977 19.7896 6.2723 22.3558 10.5828C22.8753 11.4555 22.8753 12.5441 22.3558 13.4168C21.7535 14.4284 21.0813 15.3281 20.3538 16.1121L8.76201 4.51933C9.8159 4.1747 10.9033 3.99983 11.9993 3.9998Z" fill="black"/>
</svg>
