<svg width="24" height="24" viewBox="0 0 24 24" fill="none" xmlns="http://www.w3.org/2000/svg">
<path fill-rule="evenodd" clip-rule="evenodd" d="M11.0876 1.5505C11.4029 1.4457 11.7501 1.5051 12.0134 1.70773C13.6845 2.99619 14.8314 4.40603 15.4538 6.04074C15.737 6.78479 15.903 7.55617 15.9694 8.35714C16.3515 7.90679 16.6731 7.51926 16.8132 7.31711L16.8806 7.23117C17.0475 7.03909 17.2827 6.91615 17.5388 6.89132C17.8313 6.86313 18.1221 6.9657 18.3327 7.17062C19.6736 8.47779 20.2169 10.1379 20.4148 11.7429L20.4636 12.2214C20.8637 17.1185 17.8939 20.5095 14.2966 21.6101C10.598 22.7414 6.17015 21.4556 4.1921 16.9919L4.19112 16.9909C3.00471 14.3047 3.39455 11.632 4.97921 9.27316C5.51305 8.47912 6.16307 7.77847 6.79269 7.15988L6.79366 7.1589C8.49248 5.49325 9.83013 4.42035 10.4401 2.23117L10.4802 2.11398C10.5908 1.84937 10.8117 1.64236 11.0876 1.5505ZM11.8347 4.19211C10.9148 6.13187 9.45961 7.34581 8.19405 8.58664C7.60485 9.16554 7.06296 9.75692 6.63839 10.3884C5.3936 12.2413 5.14175 14.1911 6.0212 16.1823C7.53126 19.5894 10.8368 20.5773 13.7116 19.698C16.572 18.8229 18.9405 16.1026 18.4294 11.989C18.3146 11.0575 18.0733 10.2112 17.6355 9.48703C17.3609 9.81343 17.0624 10.1619 16.7868 10.4782C16.4646 10.8482 16.1591 11.1946 15.9343 11.448C15.8219 11.5746 15.7291 11.6786 15.6648 11.7507C15.6328 11.7865 15.6077 11.8145 15.5905 11.8337C15.5819 11.8433 15.5755 11.8512 15.571 11.8562C15.5688 11.8586 15.5663 11.8598 15.5651 11.8611L15.5642 11.863L15.5632 11.864C15.2655 12.1954 14.7845 12.2896 14.3835 12.0954C13.9827 11.9011 13.7581 11.4651 13.8337 11.0261C14.1246 9.33807 14.0438 7.95891 13.5847 6.75265C13.2479 5.86808 12.687 5.0241 11.8347 4.19211Z" fill="black"/>
</svg>
