<svg width="24" height="24" viewBox="0 0 24 24" fill="none" xmlns="http://www.w3.org/2000/svg">
<path d="M11.0881 1.5514C11.4036 1.44649 11.7505 1.50479 12.0139 1.70765C13.6852 2.99631 14.832 4.40659 15.4543 6.04163C15.738 6.78686 15.9057 7.55862 15.9719 8.36097C16.3544 7.91017 16.6736 7.52029 16.8137 7.318C16.9813 7.07621 17.2465 6.92049 17.5393 6.89222C17.8321 6.86398 18.1226 6.96613 18.3333 7.17151C19.6743 8.47896 20.2176 10.1385 20.4153 11.7438C21.0552 16.8978 18.0101 20.4739 14.2971 21.61C10.5983 22.7415 6.17066 21.4558 4.19263 16.9918L4.19165 16.9908C3.00506 14.3046 3.39507 11.6329 4.97974 9.27405C5.51368 8.47977 6.16344 7.77853 6.79322 7.15979C6.99494 6.96202 7.19215 6.77144 7.38306 6.58753C8.79986 5.22263 9.90303 4.16107 10.4407 2.23206C10.53 1.91164 10.7724 1.65639 11.0881 1.5514Z" fill="black"/>
</svg>
