<svg width="24" height="24" viewBox="0 0 24 24" fill="none" xmlns="http://www.w3.org/2000/svg">
<path fill-rule="evenodd" clip-rule="evenodd" d="M8.92969 3C9.93272 3.00002 10.8694 3.50132 11.4258 4.33594L12.5352 6H19C20.6569 6 22 7.34316 22 9V17C22 18.6569 20.6569 20 19 20H5C3.34315 20 2 18.6569 2 17V6C2 4.34315 3.34315 3 5 3H8.92969ZM5 5C4.44772 5 4 5.44772 4 6V17C4 17.5523 4.44771 18 5 18H19C19.5523 18 20 17.5523 20 17V9C20 8.44771 19.5523 8 19 8H12.5352C11.9081 7.99999 11.32 7.70617 10.9434 7.21094L10.8711 7.10938L9.76172 5.44531C9.5763 5.16717 9.26403 5.00002 8.92969 5H5Z" fill="black"/>
</svg>
