<svg width="24" height="24" viewBox="0 0 24 24" fill="none" xmlns="http://www.w3.org/2000/svg">
<path fill-rule="evenodd" clip-rule="evenodd" d="M8.92969 3C9.93272 3.00002 10.8694 3.50132 11.4258 4.33594L12.5352 6H18C19.6569 6 21 7.34316 21 9V10.0352C22.1535 10.2431 22.9143 11.4269 22.5488 12.5967L20.8936 17.8945C20.5022 19.1471 19.3415 20 18.0293 20H4.44043C4.43554 20 4.43066 19.9991 4.42578 19.999C4.39548 19.9986 4.36553 19.9972 4.33594 19.9941C3.03673 19.9392 2.00019 18.8722 2 17.5596V6C2 4.34315 3.34315 3 5 3H8.92969ZM9.4707 12C9.03344 12.0001 8.64702 12.2848 8.5166 12.7021L6.86133 18H18.0293C18.4667 18 18.8539 17.7153 18.9844 17.2979L20.6396 12H9.4707ZM5 5C4.44772 5 4 5.44771 4 6V17.5596C4.0002 17.8027 4.19732 17.9998 4.44043 18C4.63324 18 4.80481 17.8744 4.8623 17.6904L6.60742 12.1055C6.99878 10.8532 8.15868 10.0001 9.4707 10H19V9C19 8.44771 18.5523 8 18 8H12.5352C11.9081 7.99999 11.32 7.70618 10.9434 7.21094L10.8711 7.10938L9.76172 5.44531C9.5763 5.16717 9.26403 5.00002 8.92969 5H5Z" fill="black"/>
</svg>
