<svg width="24" height="24" viewBox="0 0 24 24" fill="none" xmlns="http://www.w3.org/2000/svg">
<path fill-rule="evenodd" clip-rule="evenodd" d="M8.92969 3C9.93273 3.00002 10.8694 3.50135 11.4258 4.33594L12.5352 6H18C19.6569 6 21 7.34315 21 9V10.0322C22.1542 10.2396 22.9155 11.4266 22.5498 12.5967L20.8936 17.8945C20.5092 19.1245 19.3837 19.9691 18.1006 19.999C18.0821 19.9994 18.0635 19.9999 18.0449 20H4.44043C3.09271 19.9998 2.0002 18.9073 2 17.5596V6C2 4.34315 3.34315 3 5 3H8.92969ZM5 5C4.44772 5 4 5.44772 4 6V17.5596C4.0002 17.8028 4.19728 17.9998 4.44043 18C4.63322 18 4.80383 17.8744 4.86133 17.6904L6.60742 12.1055C6.99881 10.853 8.15855 10 9.4707 10H19V9C19 8.44772 18.5523 8 18 8H12.5352C11.8665 7.99999 11.242 7.66576 10.8711 7.10938L9.76172 5.44531C9.57627 5.16713 9.26403 5.00002 8.92969 5H5Z" fill="black"/>
</svg>
