<svg width="24" height="24" viewBox="0 0 24 24" fill="none" xmlns="http://www.w3.org/2000/svg">
<path d="M14.7158 16C14.5217 17.3109 14.2375 18.4773 13.8887 19.4365C13.5499 20.368 13.1701 21.0514 12.7988 21.4834C12.4247 21.9186 12.1512 22 12 22C11.8488 22 11.5753 21.9186 11.2012 21.4834C10.8299 21.0514 10.4501 20.368 10.1113 19.4365C9.76254 18.4773 9.47831 17.3109 9.28418 16H14.7158Z" fill="black"/>
<path d="M7.26367 16C7.47444 17.5451 7.80457 18.9462 8.23145 20.1201C8.40809 20.6059 8.60694 21.0631 8.8252 21.4824C6.13774 20.583 3.96046 18.5752 2.83496 16H7.26367Z" fill="black"/>
<path d="M21.165 16C20.0394 18.5755 17.8617 20.5832 15.1738 21.4824C15.3922 21.063 15.5918 20.6061 15.7686 20.1201C16.1954 18.9462 16.5256 17.5451 16.7363 16H21.165Z" fill="black"/>
<path d="M7.06543 10C7.02341 10.6514 7 11.3197 7 12C7 12.6803 7.02341 13.3486 7.06543 14H2.2002C2.06902 13.3538 2 12.6849 2 12C2 11.3151 2.06902 10.6462 2.2002 10H7.06543Z" fill="black"/>
<path d="M14.9307 10C14.9753 10.6455 15 11.314 15 12C15 12.686 14.9753 13.3545 14.9307 14H9.06934C9.02467 13.3545 9 12.686 9 12C9 11.314 9.02467 10.6455 9.06934 10H14.9307Z" fill="black"/>
<path d="M21.7998 10C21.931 10.6462 22 11.3151 22 12C22 12.6849 21.931 13.3538 21.7998 14H16.9346C16.9766 13.3486 17 12.6803 17 12C17 11.3197 16.9766 10.6514 16.9346 10H21.7998Z" fill="black"/>
<path d="M8.8252 2.5166C8.60678 2.93611 8.40821 3.39378 8.23145 3.87988C7.80457 5.05378 7.47444 6.45491 7.26367 8H2.83496C3.9605 5.42473 6.1376 3.41595 8.8252 2.5166Z" fill="black"/>
<path d="M12 2C12.1512 2 12.4247 2.08138 12.7988 2.5166C13.1701 2.94858 13.5499 3.63202 13.8887 4.56348C14.2375 5.52274 14.5217 6.68913 14.7158 8H9.28418C9.47831 6.68913 9.76254 5.52274 10.1113 4.56348C10.4501 3.63202 10.8299 2.94858 11.2012 2.5166C11.5753 2.08138 11.8488 2 12 2Z" fill="black"/>
<path d="M15.1738 2.5166C17.8618 3.4158 20.0394 5.42445 21.165 8H16.7363C16.5256 6.45491 16.1954 5.05378 15.7686 3.87988C15.5917 3.39364 15.3923 2.93622 15.1738 2.5166Z" fill="black"/>
</svg>
