<svg width="24" height="24" viewBox="0 0 24 24" fill="none" xmlns="http://www.w3.org/2000/svg">
<path fill-rule="evenodd" clip-rule="evenodd" d="M12 2C17.5228 2 22 6.47715 22 12C22 17.5228 17.5228 22 12 22C6.47715 22 2 17.5228 2 12C2 6.47715 6.47715 2 12 2ZM9.79004 15.5C9.9554 16.4507 10.1832 17.2978 10.457 18.002C10.7473 18.7482 11.0687 19.2841 11.374 19.6162C11.6785 19.9473 11.8912 20 12 20C12.1088 20 12.3215 19.9473 12.626 19.6162C12.9313 19.2841 13.2527 18.7482 13.543 18.002C13.8168 17.2978 14.0446 16.4507 14.21 15.5H9.79004ZM4.80469 15.5C5.64596 17.2263 7.09023 18.6038 8.86328 19.3604C8.76743 19.1563 8.67749 18.9444 8.59277 18.7266C8.23182 17.7984 7.95009 16.7031 7.7627 15.5H4.80469ZM16.2373 15.5C16.0499 16.7031 15.7682 17.7984 15.4072 18.7266C15.3225 18.9445 15.2317 19.1562 15.1357 19.3604C16.9092 18.6038 18.3539 17.2265 19.1953 15.5H16.2373ZM4.1416 10.5C4.04941 10.9859 4 11.4872 4 12C4 12.5128 4.04941 13.0141 4.1416 13.5H7.54688C7.51629 13.0098 7.5 12.5088 7.5 12C7.5 11.4912 7.51629 10.9902 7.54688 10.5H4.1416ZM9.55176 10.5C9.51862 10.9851 9.5 11.4863 9.5 12C9.5 12.5137 9.51862 13.0149 9.55176 13.5H14.4482C14.4814 13.0149 14.5 12.5137 14.5 12C14.5 11.4863 14.4814 10.9851 14.4482 10.5H9.55176ZM16.4531 10.5C16.4837 10.9902 16.5 11.4912 16.5 12C16.5 12.5088 16.4837 13.0098 16.4531 13.5H19.8584C19.9506 13.0141 20 12.5128 20 12C20 11.4872 19.9506 10.9859 19.8584 10.5H16.4531ZM8.86328 4.63867C7.09007 5.39522 5.64601 6.77362 4.80469 8.5H7.7627C7.95009 7.29687 8.23182 6.2016 8.59277 5.27344C8.6776 5.05532 8.76729 4.843 8.86328 4.63867ZM12 4C11.8912 4 11.6785 4.05275 11.374 4.38379C11.0687 4.71589 10.7473 5.25181 10.457 5.99805C10.1832 6.70223 9.9554 7.54927 9.79004 8.5H14.21C14.0446 7.54927 13.8168 6.70223 13.543 5.99805C13.2527 5.25181 12.9313 4.71589 12.626 4.38379C12.3215 4.05275 12.1088 4 12 4ZM15.1357 4.63867C15.2318 4.84312 15.3223 5.05518 15.4072 5.27344C15.7682 6.2016 16.0499 7.29687 16.2373 8.5H19.1953C18.3539 6.77336 16.9093 5.39515 15.1357 4.63867Z" fill="black"/>
</svg>
