<svg width="24" height="24" viewBox="0 0 24 24" fill="none" xmlns="http://www.w3.org/2000/svg">
<path fill-rule="evenodd" clip-rule="evenodd" d="M8.63908 2.11362C10.6049 1.80333 12.4544 1.91505 14.1479 2.5355C15.9598 3.19953 17.5223 4.42062 18.8276 6.18686C18.9307 6.32645 19.0227 6.44948 19.1215 6.62729C19.4971 7.30323 19.4967 8.03057 19.516 8.42514C19.5388 8.89079 19.5786 9.07316 19.6879 9.22495C19.7497 9.31035 19.8153 9.37873 19.9067 9.46811H20.4994L20.5981 9.473C20.827 9.49566 21.0423 9.59707 21.2065 9.76108C21.4216 9.97626 21.7122 10.2487 21.8764 10.5794C22.1191 11.0691 22.1502 11.6336 21.9682 12.1419L21.8774 12.3558C21.7543 12.6042 21.5597 12.8193 21.3793 13.0023L18.9135 15.4681C18.1325 16.2487 16.8664 16.249 16.0854 15.4681L15.934 15.3167C15.656 15.0386 15.4995 14.6611 15.4994 14.2679C15.4993 13.9844 15.2402 13.7721 14.9623 13.8275L14.5209 13.9154L8.20256 20.2162C6.98475 21.4298 5.01396 21.43 3.79631 20.2162C2.57527 18.9987 2.57391 17.0212 3.7924 15.8011L10.0551 9.52964C10.2398 8.32844 10.1387 7.544 9.84611 6.94272C9.52855 6.29053 8.91175 5.69137 7.76701 5.01889C7.36247 4.78111 7.0777 4.36801 7.0131 3.89194L6.99943 3.68491L7.00529 3.55112C7.06339 2.88735 7.55086 2.30936 8.24455 2.181L8.63908 2.11362ZM5.20744 17.2142C4.77024 17.6521 4.77029 18.362 5.20842 18.7992C5.6456 19.235 6.35321 19.2349 6.79045 18.7992L12.599 13.0072L11.0121 11.4027L5.20744 17.2142ZM13.4604 4.41343C12.3787 4.01709 11.1714 3.87209 9.82756 3.98374C10.6168 4.57224 11.2421 5.23924 11.6449 6.06675C12.1522 7.10888 12.2459 8.27801 12.0649 9.62241L14.3305 11.9124L14.5697 11.8656C16.0106 11.5774 17.3581 12.6117 17.4877 14.0423L17.4994 14.0541L19.7924 11.7611C19.9366 11.6168 20.0158 11.5374 20.0697 11.4769C20.0723 11.474 20.0743 11.4707 20.0766 11.4681H19.4994C19.2345 11.468 18.9798 11.3625 18.7924 11.1751C18.6507 11.0335 18.3067 10.7267 18.0688 10.3978C17.5776 9.71828 17.5414 8.98129 17.519 8.5228C17.493 7.99209 17.4771 7.78563 17.3735 7.59897C17.3469 7.55116 17.3312 7.52692 17.2192 7.37534C16.1126 5.87797 14.8543 4.92431 13.4604 4.41343Z" fill="black"/>
</svg>
