<svg width="24" height="24" viewBox="0 0 24 24" fill="none" xmlns="http://www.w3.org/2000/svg">
<path d="M12.5001 15.0001L7.25012 20.2501C6.28366 21.2164 4.7166 21.2164 3.75012 20.2501C2.78401 19.2836 2.78382 17.7165 3.75012 16.7501L9.00012 11.5001L12.5001 15.0001Z" fill="black"/>
<path d="M8.63977 2.11439C10.6057 1.80408 12.455 1.91571 14.1486 2.53626C15.9605 3.20033 17.523 4.42129 18.8282 6.18763C18.9313 6.32718 19.0234 6.45028 19.1222 6.62806C19.4978 7.30399 19.4973 8.03141 19.5167 8.42591C19.5395 8.89241 19.5797 9.07472 19.6896 9.22669C19.7513 9.31198 19.8161 9.37958 19.9074 9.46888H20.5001L20.5988 9.47376C20.8277 9.49644 21.043 9.59773 21.2072 9.76185C21.4225 9.97725 21.7139 10.2494 21.8781 10.5802C22.1552 11.1396 22.1553 11.7972 21.8781 12.3566C21.7551 12.6047 21.5604 12.8202 21.38 13.0031L18.9142 15.4689C18.1332 16.2494 16.867 16.2495 16.0861 15.4689L15.9347 15.3175C15.6567 15.0394 15.5002 14.6619 15.5001 14.2687C15.5001 13.9852 15.2409 13.7729 14.963 13.8283L14.1964 13.9816C13.8668 14.0474 13.5257 13.943 13.2892 13.7042L10.2892 10.672C10.0605 10.4407 9.95849 10.1122 10.0157 9.79212C10.2578 8.44185 10.16 7.58727 9.8468 6.94349C9.52929 6.29125 8.9125 5.69217 7.7677 5.01966C7.36313 4.78197 7.07851 4.36873 7.0138 3.89271L7.00012 3.68568L7.00598 3.55189C7.06404 2.88804 7.55142 2.31007 8.24524 2.18177L8.63977 2.11439Z" fill="black"/>
</svg>
