<svg width="24" height="24" viewBox="0 0 24 24" fill="none" xmlns="http://www.w3.org/2000/svg">
<path d="M6.05389 3.31364C7.1319 2.66824 8.51059 3.05125 9.13299 4.16911L11.3869 8.21696L16.2668 5.29606C17.8839 4.32795 19.9513 4.90245 20.8849 6.57927L21.9162 8.42985C24.1477 12.4378 22.8232 17.5631 18.9582 19.8771C16.3599 21.4327 13.1444 21.3678 10.6066 19.7082L5.03534 16.0636C4.70921 15.8503 4.53632 15.4668 4.59295 15.0812L4.70428 14.3254C4.89194 13.0495 6.04122 12.1731 7.27167 12.3674L8.61053 12.5783L5.22967 6.50602C4.60736 5.38827 4.97614 3.95914 6.05389 3.31364Z" fill="black"/>
<path d="M1.56756 7.38981C1.76671 6.87468 2.3454 6.61841 2.86053 6.81755C3.37561 7.01669 3.63185 7.59543 3.4328 8.11052C2.85583 9.60297 2.85583 10.8974 3.4328 12.3898C3.63169 12.9048 3.37556 13.4837 2.86053 13.6828C2.34542 13.8819 1.76671 13.6256 1.56756 13.1105C0.811236 11.1541 0.811283 9.34622 1.56756 7.38981Z" fill="black"/>
</svg>
