<svg width="24" height="24" viewBox="0 0 24 24" fill="none" xmlns="http://www.w3.org/2000/svg">
<path d="M13.9209 2C14.8339 2 15.5742 2.74651 15.5742 3.66699V10.6113C15.5743 10.9179 15.821 11.1668 16.125 11.167C16.4292 11.167 16.6766 10.918 16.6768 10.6113V5.61133C16.6768 4.69099 17.4163 3.94456 18.3291 3.94434C19.2421 3.94434 19.9824 4.69086 19.9824 5.61133V10.0557C19.9824 10.1035 19.9887 10.1501 20 10.1943C19.9887 10.2386 19.9824 10.2852 19.9824 10.333V14.6582C19.9824 18.7127 16.7227 21.9998 12.7012 22C9.94302 22 7.42099 20.4286 6.1875 17.9414L3 11.5137L3.44531 10.9521C4.06084 10.1766 5.20862 10.1131 5.90527 10.8154L6.91895 11.8369C7.07649 11.9958 7.31367 12.0439 7.51953 11.958C7.72543 11.872 7.85938 11.669 7.85938 11.4443V4.77734C7.85961 3.85715 8.59996 3.11146 9.5127 3.11133C10.4255 3.11133 11.1658 3.85706 11.166 4.77734V9.77734C11.166 10.0841 11.4126 10.3328 11.7168 10.333C12.0211 10.333 12.2686 10.0842 12.2686 9.77734V3.66699C12.2686 2.74661 13.008 2.00017 13.9209 2Z" fill="black"/>
</svg>
