<svg width="24" height="24" viewBox="0 0 24 24" fill="none" xmlns="http://www.w3.org/2000/svg">
<path fill-rule="evenodd" clip-rule="evenodd" d="M6.3742 3.42029C7.83337 2.54974 9.68311 3.08078 10.5051 4.55212L12.0129 7.25134L15.4826 5.182C17.4225 4.02456 19.8879 4.72558 20.9875 6.69372L21.9064 8.33923C24.1531 12.3613 22.832 17.519 18.9074 19.8607C16.2619 21.4393 12.9833 21.3731 10.4006 19.6898L4.95428 16.139C4.62732 15.9259 4.45415 15.5418 4.51092 15.1556L4.69256 13.9222C4.89799 12.5283 6.00549 11.4612 7.35174 11.3177L5.27752 7.60486C4.46576 6.15177 4.93525 4.27888 6.3742 3.42029ZM8.75896 5.52673C8.4706 5.0112 7.86222 4.86144 7.39861 5.13806C6.9148 5.42695 6.72524 6.09511 7.02361 6.62927L10.0392 12.0267C10.2256 12.3607 10.2052 12.7725 9.9865 13.0863C9.76766 13.4001 9.38789 13.5617 9.00994 13.5023L7.81658 13.3148C7.29788 13.2332 6.7617 13.5993 6.67107 14.2133L6.58221 14.8138L11.4924 18.014L11.676 18.1293C13.5893 19.2831 15.9562 19.2936 17.883 18.1439C20.8527 16.372 21.8937 12.418 20.1603 9.31482L19.2414 7.66931C18.6755 6.65648 17.4515 6.33622 16.507 6.89978L12.1554 9.49646C11.9235 9.63483 11.6448 9.67366 11.384 9.60388C11.1231 9.53403 10.9015 9.36102 10.7697 9.12536L8.75896 5.52673Z" fill="black"/>
<path d="M1.56756 7.39001C1.76668 6.87494 2.34544 6.61872 2.86053 6.81775C3.37539 7.01699 3.63178 7.59574 3.43279 8.11072C2.85592 9.60305 2.85585 10.8976 3.43279 12.39C3.63152 12.905 3.37543 13.4839 2.86053 13.683C2.34557 13.882 1.76683 13.6255 1.56756 13.1107C0.811311 11.1544 0.811375 9.34629 1.56756 7.39001Z" fill="black"/>
</svg>
