<svg width="24" height="24" viewBox="0 0 24 24" fill="none" xmlns="http://www.w3.org/2000/svg">
<path fill-rule="evenodd" clip-rule="evenodd" d="M14.0005 2C15.3845 2.00019 16.546 2.9385 16.8921 4.21289C17.235 4.07644 17.6089 4 18.0005 4C19.6572 4.00023 21.0005 5.34329 21.0005 7V13.8291C21.0005 18.3415 17.342 21.9998 12.8296 22C9.79614 22 7.01206 20.3192 5.59914 17.6348L2.61574 11.9658C2.43057 11.614 2.47089 11.1855 2.71926 10.875L3.47024 9.9375C4.33386 8.85845 5.79013 8.53549 7.00051 9.05859V6C7.00051 4.34315 8.34365 3 10.0005 3C10.5356 3.00007 11.0373 3.14214 11.4722 3.3877C12.0051 2.55391 12.9376 2 14.0005 2ZM14.0005 4C13.4482 4 13.0005 4.44771 13.0005 5V10C13.0005 10.5521 12.5526 10.9998 12.0005 11C11.4482 11 11.0005 10.5523 11.0005 10V6C11.0005 5.44784 10.5526 5.00023 10.0005 5C9.44822 5 9.00051 5.44772 9.00051 6V11C9.00051 11.3842 8.7802 11.7347 8.4341 11.9014C8.08774 12.0678 7.67566 12.0212 7.37551 11.7812L6.43801 11.0303C6.0068 10.6853 5.3768 10.7555 5.03176 11.1865L4.68996 11.6133L7.36867 16.7031C8.43574 18.7304 10.5387 20 12.8296 20C16.2374 19.9998 19.0005 17.237 19.0005 13.8291V7C19.0005 6.44784 18.5526 6.00023 18.0005 6C17.4482 6 17.0005 6.44771 17.0005 7V11C17.0005 11.5521 16.5526 11.9998 16.0005 12C15.4482 12 15.0005 11.5523 15.0005 11V5C15.0005 4.44784 14.5526 4.00023 14.0005 4Z" fill="black"/>
</svg>
