<svg width="24" height="24" viewBox="0 0 24 24" fill="none" xmlns="http://www.w3.org/2000/svg">
<path fill-rule="evenodd" clip-rule="evenodd" d="M12.0004 4.42635C13.617 3.14298 15.4719 2.75986 17.1694 3.13826C19.0971 3.56821 20.7323 4.96029 21.5112 6.90193C23.1153 10.9017 21.0169 16.592 12.4897 21.3717C12.186 21.5419 11.8149 21.5418 11.5112 21.3717C2.98357 16.5919 0.88557 10.9018 2.4897 6.90193C3.26871 4.96035 4.90374 3.56809 6.8315 3.13826C8.52903 2.76003 10.3839 3.14281 12.0004 4.42635ZM16.7348 5.09041C15.4969 4.81438 14.0262 5.13786 12.7124 6.47029C12.5246 6.66064 12.2678 6.76802 12.0004 6.76814C11.7329 6.76814 11.4764 6.66075 11.2885 6.47029C9.97472 5.13767 8.50405 4.81456 7.26607 5.09041C6.00344 5.37206 4.88772 6.29713 4.34615 7.64705C3.33062 10.1795 4.25473 14.836 12.0004 19.3443C19.7457 14.8361 20.6702 10.1794 19.6547 7.64705C19.1133 6.29709 17.9974 5.37218 16.7348 5.09041Z" fill="black"/>
</svg>
