<svg width="24" height="24" viewBox="0 0 24 24" fill="none" xmlns="http://www.w3.org/2000/svg">
<path d="M15.878 3.7073C17.0495 2.53572 18.9496 2.53572 20.1212 3.7073L20.294 3.88015C21.4646 5.05069 21.466 6.94838 20.297 8.12038L18.4141 10.0081C19.6309 11.5279 20.5449 13.1006 20.9327 14.5813C21.3882 16.3205 21.1327 18.0737 19.6241 19.2805C18.4126 20.2498 17.0512 20.1193 15.9639 19.6702C14.9055 19.233 13.9667 18.4508 13.3223 17.8284C12.9252 17.4447 12.9142 16.8115 13.2979 16.4143C13.6817 16.0173 14.3149 16.0064 14.712 16.3899C15.2924 16.9505 16.0157 17.5275 16.7276 17.8216C17.4106 18.1036 17.928 18.0767 18.3751 17.719C19.0808 17.1544 19.3215 16.3233 18.9981 15.0882C18.718 14.0187 18.0285 12.7605 16.9923 11.4339L15.3106 13.1184C14.7479 13.6825 13.9843 14.0001 13.1876 14.0003H11.0001C10.448 14.0003 10.0003 13.5524 10.0001 13.0003V10.8284C10.0001 10.0328 10.3156 9.26988 10.878 8.7073L12.3184 7.26687C9.46253 5.73546 6.7285 5.87737 5.30281 7.303C4.33511 8.27071 3.95282 9.79863 4.29598 11.6292C4.63812 13.454 5.693 15.4714 7.42391 17.2024C8.44595 18.2245 9.55088 18.9388 10.4542 19.3948C10.9051 19.6225 11.2981 19.7812 11.5948 19.8811C11.8171 19.9559 11.9446 19.9843 11.9913 19.9944C12.0156 19.9997 12.0178 20.0003 12.0001 20.0003C12.5522 20.0005 13.0001 20.4481 13.0001 21.0003C12.9999 21.5523 12.5521 22 12.0001 22.0003C11.6972 22.0002 11.3067 21.8947 10.9561 21.7766C10.5625 21.6441 10.0822 21.4472 9.55281 21.18C8.49473 20.6458 7.20731 19.814 6.00984 18.6165C4.03125 16.6378 2.7558 14.268 2.33016 11.9983C1.90563 9.73421 2.3181 7.4596 3.88875 5.88894C6.33542 3.44232 10.3894 3.79054 13.7852 5.80007L15.878 3.7073Z" fill="black"/>
</svg>
