<svg width="24" height="24" viewBox="0 0 24 24" fill="none" xmlns="http://www.w3.org/2000/svg">
<path fill-rule="evenodd" clip-rule="evenodd" d="M15.8792 3.70784C17.0508 2.53631 18.9497 2.53631 20.1213 3.70784L20.2952 3.88069C21.4652 5.05126 21.4661 6.94905 20.2971 8.12093L18.4143 10.0067C19.6315 11.5269 20.546 13.1008 20.9338 14.5819C21.3891 16.3208 21.1335 18.0744 19.6252 19.2811C18.4137 20.2503 17.0514 20.1189 15.9641 19.6698C14.9062 19.2326 13.9677 18.4512 13.3235 17.8289C12.9264 17.4454 12.9148 16.8121 13.2981 16.4149C13.6818 16.0178 14.315 16.0068 14.7122 16.3905C15.2924 16.9509 16.0159 17.5269 16.7278 17.8211C17.4107 18.1032 17.9281 18.0762 18.3752 17.7186C19.0805 17.154 19.3226 16.3225 18.9993 15.0877C18.7191 14.0182 18.028 12.761 16.9915 11.4344L15.3118 13.119C14.7491 13.683 13.9845 14.0007 13.1877 14.0008H11.0002C10.4482 14.0008 10.0007 13.5527 10.0002 13.0008V10.8289C10.0002 10.0334 10.3166 9.27045 10.8792 8.70784L12.3196 7.26644C9.46363 5.73503 6.72969 5.87797 5.30396 7.30354C4.3362 8.2713 3.95388 9.79909 4.29712 11.6297C4.63934 13.4545 5.69407 15.4719 7.42505 17.203C8.44684 18.2247 9.55122 18.9384 10.4543 19.3944C10.9054 19.622 11.2991 19.7817 11.596 19.8817C11.9347 19.9957 12.0523 19.9998 12.0002 19.9998C12.5523 20 13.0001 20.4478 13.0002 20.9998C13.0002 21.552 12.5524 21.9997 12.0002 21.9998C11.6975 21.9998 11.3077 21.8952 10.9573 21.7772C10.5637 21.6446 10.0824 21.4478 9.55298 21.1805C8.49499 20.6464 7.20832 19.8143 6.01099 18.617C4.03219 16.6382 2.75692 14.2677 2.3313 11.9979C1.90686 9.73383 2.3193 7.46007 3.8899 5.88948C6.33653 3.443 10.3896 3.79125 13.7854 5.80062L15.8792 3.70784ZM18.7073 5.1219C18.3167 4.73139 17.6838 4.73142 17.2932 5.1219L12.2932 10.1219C12.1057 10.3094 12.0002 10.5638 12.0002 10.8289V12.0008H13.1877C13.4532 12.0007 13.7083 11.8947 13.8958 11.7069L18.8811 6.70882C19.2707 6.31828 19.2699 5.68497 18.8801 5.29476L18.7073 5.1219Z" fill="black"/>
</svg>
