<svg width="24" height="24" viewBox="0 0 24 24" fill="none" xmlns="http://www.w3.org/2000/svg">
<path d="M11.508 1.79113C11.8309 1.70919 12.1695 1.70919 12.4924 1.79113C12.8666 1.88616 13.187 2.11824 13.4426 2.30285L13.5139 2.35363L22.0822 8.4884C22.5311 8.80982 22.6348 9.43395 22.3137 9.88293C21.9922 10.332 21.3673 10.4358 20.9182 10.1144L20.0002 9.45715V16.839C20.0002 17.3657 20.0005 17.8202 19.9699 18.1945C19.9376 18.5898 19.8659 18.984 19.6731 19.3624C19.3855 19.9266 18.9267 20.3854 18.3625 20.673C17.9842 20.8657 17.5908 20.9366 17.1955 20.9689C16.8211 20.9995 16.3661 21.0001 15.8391 21.0001H8.16134C7.63431 21.0001 7.17941 20.9995 6.8049 20.9689C6.40965 20.9366 6.0162 20.8657 5.63791 20.673C5.07367 20.3854 4.61496 19.9266 4.32736 19.3624C4.13457 18.984 4.06278 18.5898 4.03048 18.1945C3.99993 17.82 4.00019 17.365 4.00021 16.838V9.45715L3.08224 10.1144C2.63319 10.4358 2.0082 10.332 1.68673 9.88293C1.36558 9.43392 1.46931 8.80981 1.91818 8.4884L10.4865 2.35363L10.5578 2.30285C10.8134 2.11823 11.1338 1.88615 11.508 1.79113Z" fill="black"/>
</svg>
