<svg width="24" height="24" viewBox="0 0 24 24" fill="none" xmlns="http://www.w3.org/2000/svg">
<path fill-rule="evenodd" clip-rule="evenodd" d="M11.5535 1.85537C11.8808 1.69191 12.2773 1.71869 12.5818 1.93643L19.5535 6.92764C19.5622 6.93345 19.5703 6.94012 19.5788 6.9462L22.0818 8.73819C22.5308 9.05969 22.6347 9.68464 22.3132 10.1337C21.9916 10.5824 21.3666 10.6855 20.9177 10.3642L19.9997 9.70694V16.8007C19.9997 17.3438 20.0008 17.8118 19.9695 18.1952C19.9412 18.5409 19.8831 18.8857 19.74 19.2196L19.6726 19.3622C19.385 19.9264 18.9263 20.3862 18.362 20.6737C17.9839 20.8663 17.5902 20.9373 17.1951 20.9696C16.8115 21.0009 16.3429 20.9999 15.7995 20.9999H8.19994C7.65655 20.9999 7.18801 21.001 6.80443 20.9696C6.40929 20.9373 6.01562 20.8655 5.63744 20.6728C5.07322 20.3852 4.61437 19.9263 4.32689 19.3622C4.13414 18.9839 4.06233 18.5904 4.03002 18.1952C3.99869 17.8118 3.99974 17.3438 3.99974 16.8007V9.70694L3.08177 10.3642C2.63278 10.6853 2.00771 10.5825 1.68627 10.1337C1.36498 9.68475 1.46898 9.05972 1.91771 8.73819L11.4177 1.93643L11.5535 1.85537ZM5.99974 8.27432V16.8007C5.99974 17.3766 6.00104 17.749 6.02416 18.0321C6.04636 18.3035 6.08395 18.4046 6.10912 18.454C6.18102 18.5951 6.28507 18.7163 6.41185 18.8085L6.54564 18.8915L6.59447 18.912C6.65636 18.9343 6.76416 18.9598 6.96752 18.9765C7.25079 18.9996 7.6236 18.9999 8.19994 18.9999H15.7995C16.3758 18.9999 16.7487 18.9996 17.032 18.9765C17.3028 18.9543 17.4043 18.9167 17.4538 18.8915L17.5876 18.8085C17.7144 18.7163 17.8185 18.5949 17.8904 18.454C17.9155 18.4046 17.9531 18.3035 17.9753 18.0321C17.9984 17.749 17.9997 17.3766 17.9997 16.8007V8.27432L11.9997 3.9794L5.99974 8.27432Z" fill="black"/>
</svg>
