<svg width="24" height="24" viewBox="0 0 24 24" fill="none" xmlns="http://www.w3.org/2000/svg">
<path d="M9.25 5.75H6.875C6.75894 5.75 6.70091 5.75 6.65184 5.75161C5.072 5.80332 3.80332 7.072 3.75161 8.65184C3.75 8.70091 3.75 8.75894 3.75 8.875V15.45C3.75 17.1302 3.75 17.9702 4.07698 18.612C4.3646 19.1765 4.82354 19.6354 5.38803 19.923C6.02976 20.25 6.86984 20.25 8.55 20.25H13.45C15.1302 20.25 15.9702 20.25 16.612 19.923C17.1765 19.6354 17.6354 19.1765 17.923 18.612C18.25 17.9702 18.25 17.1302 18.25 15.45V14" stroke="black" stroke-width="1.5" stroke-linecap="round" stroke-linejoin="round"/>
<path d="M13.75 3.75H20.25M20.25 3.75V10.25M20.25 3.75L11 13" stroke="black" stroke-width="1.5" stroke-linecap="round" stroke-linejoin="round"/>
</svg>
