<svg width="24" height="24" viewBox="0 0 24 24" fill="none" xmlns="http://www.w3.org/2000/svg">
<path d="M13.499 6.25C13.499 3.90279 11.5962 2 9.24899 2C6.90178 2 4.99899 3.90279 4.99899 6.25C4.99899 8.59721 6.90178 10.5 9.24899 10.5C11.5962 10.5 13.499 8.59721 13.499 6.25Z" fill="black"/>
<path d="M17.1204 19.8199C16.5033 20.5345 15.5289 20.9688 14.4985 20.9688H3.99851C2.96809 20.9688 1.99377 20.5345 1.37663 19.8199C0.739185 19.0819 0.492531 18.041 0.994203 16.9958C2.38778 14.0926 5.57207 12 9.24851 12C12.925 12 16.1092 14.0926 17.5028 16.9958C18.0045 18.041 17.7578 19.0819 17.1204 19.8199Z" fill="black"/>
<path d="M15 2.75C16.933 2.75 18.5 4.317 18.5 6.25C18.5 8.183 16.933 9.75 15 9.75" stroke="black" stroke-width="1.5" stroke-linecap="round" stroke-linejoin="round"/>
<path d="M18.25 13.5088C20.3279 14.2448 21.972 15.9725 22.7534 17.8167C23.2921 19.088 22.1307 20.25 20.75 20.25" stroke="black" stroke-width="1.5" stroke-linecap="round" stroke-linejoin="round"/>
</svg>
