<svg width="24" height="24" viewBox="0 0 24 24" fill="none" xmlns="http://www.w3.org/2000/svg">
<path d="M11.0858 2.32272C11.4533 1.55909 12.5467 1.55909 12.9142 2.32272L15.0872 6.83907C15.2351 7.14651 15.5293 7.35876 15.8692 7.40319L20.8676 8.05664C21.7134 8.16721 22.0517 9.20388 21.4322 9.78704L17.779 13.2263C17.5295 13.4612 17.4167 13.8058 17.4795 14.1417L18.3971 19.0563C18.5526 19.8892 17.6676 20.5294 16.9183 20.1261L12.4825 17.7385C12.1815 17.5764 11.8185 17.5764 11.5175 17.7385L7.08174 20.1261C6.33244 20.5294 5.44743 19.8892 5.60294 19.0563L6.52054 14.1417C6.58325 13.8058 6.47048 13.4612 6.22097 13.2263L2.56776 9.78704C1.94833 9.20388 2.28661 8.16721 3.13241 8.05664L8.13078 7.40319C8.47066 7.35876 8.7649 7.14651 8.91282 6.83907L11.0858 2.32272Z" stroke="black" stroke-width="1.5" stroke-linecap="round" stroke-linejoin="round"/>
</svg>
