<svg width="24" height="24" viewBox="0 0 24 24" fill="none" xmlns="http://www.w3.org/2000/svg">
<path fill-rule="evenodd" clip-rule="evenodd" d="M2 5C2 3.34315 3.34315 2 5 2H13C14.6569 2 16 3.34315 16 5V8H19C20.6569 8 22 9.34315 22 11V19C22 20.6569 20.6569 22 19 22H11C9.34315 22 8 20.6569 8 19V16H5C3.34315 16 2 14.6569 2 13V5ZM14.5 8H11C9.34315 8 8 9.34315 8 11V14.5H5C4.17157 14.5 3.5 13.8284 3.5 13V5C3.5 4.17157 4.17157 3.5 5 3.5H13C13.8284 3.5 14.5 4.17157 14.5 5V8Z" fill="black"/>
<path d="M15.25 8.75V5C15.25 3.75736 14.2426 2.75 13 2.75H5C3.75736 2.75 2.75 3.75736 2.75 5V13C2.75 14.2426 3.75736 15.25 5 15.25H8.75M11 8.75H19C20.2426 8.75 21.25 9.75736 21.25 11V19C21.25 20.2426 20.2426 21.25 19 21.25H11C9.75736 21.25 8.75 20.2426 8.75 19V11C8.75 9.75736 9.75736 8.75 11 8.75Z" stroke="black" stroke-width="1.5" stroke-linecap="round" stroke-linejoin="round"/>
</svg>
