<svg width="24" height="24" viewBox="0 0 24 24" fill="none" xmlns="http://www.w3.org/2000/svg">
<path d="M9.25 9.75C7.317 9.75 5.75 8.183 5.75 6.25C5.75 4.317 7.317 2.75 9.25 2.75C11.183 2.75 12.75 4.317 12.75 6.25C12.75 8.183 11.183 9.75 9.25 9.75Z" stroke="black" stroke-width="1.5" stroke-linecap="round" stroke-linejoin="round"/>
<path d="M15 2.75C16.933 2.75 18.5 4.317 18.5 6.25C18.5 8.183 16.933 9.75 15 9.75" stroke="black" stroke-width="1.5" stroke-linecap="round" stroke-linejoin="round"/>
<path d="M9.24813 12.75C5.85207 12.75 2.93527 14.6844 1.66996 17.3204C0.952973 18.8141 2.34128 20.2187 3.99813 20.2188H14.4981C16.155 20.2188 17.5433 18.8141 16.8263 17.3204C15.561 14.6844 12.6442 12.75 9.24813 12.75Z" stroke="black" stroke-width="1.5" stroke-linecap="round" stroke-linejoin="round"/>
<path d="M18.25 13.5088C20.3279 14.2448 21.972 15.9725 22.7534 17.8167C23.2921 19.088 22.1307 20.25 20.75 20.25" stroke="black" stroke-width="1.5" stroke-linecap="round" stroke-linejoin="round"/>
</svg>
