<svg width="24" height="24" viewBox="0 0 24 24" fill="none" xmlns="http://www.w3.org/2000/svg">
<path d="M5.75 3.75H8.39445C9.39751 3.75 10.3342 4.2513 10.8906 5.0859L11.4063 5.8594C11.7772 6.4158 12.4017 6.75 13.0704 6.75H18.25C19.3546 6.75 20.25 7.64543 20.25 8.75V10.75H20.6635C21.3311 10.75 21.8113 11.3917 21.6229 12.0322L19.9223 17.8143C19.6719 18.6655 18.8907 19.25 18.0035 19.25H4.32301C3.45426 19.25 2.75 18.5457 2.75 17.677V6.75C2.75 5.09315 4.09315 3.75 5.75 3.75Z" stroke="black" stroke-width="1.5" stroke-linecap="round" stroke-linejoin="round"/>
<path d="M20.2493 10.75H9.49573C8.60851 10.75 7.82734 11.3345 7.577 12.1857L5.83136 18.1208C5.63446 18.7903 5.02007 19.25 4.32227 19.25" stroke="black" stroke-width="1.5" stroke-linecap="round" stroke-linejoin="round"/>
</svg>
