<svg width="24" height="24" viewBox="0 0 24 24" fill="none" xmlns="http://www.w3.org/2000/svg">
<path fill-rule="evenodd" clip-rule="evenodd" d="M12 2C9.23858 2 7 4.23858 7 7V9.07501C5.28832 9.42247 4 10.9358 4 12.75V18.25C4 20.3211 5.67893 22 7.75 22H16.25C18.3211 22 20 20.3211 20 18.25V12.75C20 10.6789 18.3211 9 16.25 9H8.5V7C8.5 5.067 10.067 3.5 12 3.5C13.7225 3.5 15.1558 4.7451 15.4462 6.38452C15.5184 6.79239 15.9076 7.06446 16.3155 6.99222C16.7234 6.91997 16.9954 6.53076 16.9232 6.1229C16.5081 3.77964 14.4627 2 12 2ZM12 13.25C12.4142 13.25 12.75 13.5858 12.75 14V17C12.75 17.4142 12.4142 17.75 12 17.75C11.5858 17.75 11.25 17.4142 11.25 17V14C11.25 13.5858 11.5858 13.25 12 13.25Z" fill="black"/>
<path d="M7.75 9.75H16.25C17.9069 9.75 19.25 11.0931 19.25 12.75V18.25C19.25 19.9069 17.9069 21.25 16.25 21.25H7.75C6.09315 21.25 4.75 19.9069 4.75 18.25V12.75C4.75 11.0931 6.09315 9.75 7.75 9.75ZM7.75 9.75V7C7.75 4.65279 9.65279 2.75 12 2.75C14.0926 2.75 15.832 4.26237 16.1847 6.25371" stroke="black" stroke-width="1.5" stroke-linecap="round" stroke-linejoin="round"/>
</svg>
