<svg width="24" height="24" viewBox="0 0 24 24" fill="none" xmlns="http://www.w3.org/2000/svg">
<path d="M12.75 7.75C12.75 7.33579 12.4142 7 12 7C11.5858 7 11.25 7.33579 11.25 7.75H12.75ZM12 12H11.25C11.25 12.1989 11.329 12.3897 11.4697 12.5303L12 12ZM14.2197 15.2803C14.5126 15.5732 14.9874 15.5732 15.2803 15.2803C15.5732 14.9874 15.5732 14.5126 15.2803 14.2197L14.2197 15.2803ZM1.46967 4.71967C1.17678 5.01256 1.17678 5.48744 1.46967 5.78033C1.76256 6.07322 2.23744 6.07322 2.53033 5.78033L1.46967 4.71967ZM5.53033 2.78033C5.82322 2.48744 5.82322 2.01256 5.53033 1.71967C5.23744 1.42678 4.76256 1.42678 4.46967 1.71967L5.53033 2.78033ZM21.4697 5.78033C21.7626 6.07322 22.2374 6.07322 22.5303 5.78033C22.8232 5.48744 22.8232 5.01256 22.5303 4.71967L21.4697 5.78033ZM19.5303 1.71967C19.2374 1.42678 18.7626 1.42678 18.4697 1.71967C18.1768 2.01256 18.1768 2.48744 18.4697 2.78033L19.5303 1.71967ZM20.5 12C20.5 16.6944 16.6944 20.5 12 20.5V22C17.5228 22 22 17.5228 22 12H20.5ZM12 20.5C7.30558 20.5 3.5 16.6944 3.5 12H2C2 17.5228 6.47715 22 12 22V20.5ZM3.5 12C3.5 7.30558 7.30558 3.5 12 3.5V2C6.47715 2 2 6.47715 2 12H3.5ZM12 3.5C16.6944 3.5 20.5 7.30558 20.5 12H22C22 6.47715 17.5228 2 12 2V3.5ZM11.25 7.75V12H12.75V7.75H11.25ZM11.4697 12.5303L14.2197 15.2803L15.2803 14.2197L12.5303 11.4697L11.4697 12.5303ZM2.53033 5.78033L5.53033 2.78033L4.46967 1.71967L1.46967 4.71967L2.53033 5.78033ZM22.5303 4.71967L19.5303 1.71967L18.4697 2.78033L21.4697 5.78033L22.5303 4.71967Z" fill="black"/>
</svg>
