<svg width="24" height="24" viewBox="0 0 24 24" fill="none" xmlns="http://www.w3.org/2000/svg">
<path d="M19.25 7.44039L12.9314 2.9168C12.5963 2.67692 12.4288 2.55697 12.246 2.51058C12.0845 2.46962 11.9154 2.46962 11.754 2.51058C11.5712 2.55697 11.4037 2.67692 11.0686 2.9168L4.74997 7.44041M19.25 7.44039L21.5 9.0512M19.25 7.44039V15.45C19.25 17.1302 19.25 17.9702 18.923 18.612C18.6354 19.1765 18.1764 19.6354 17.6119 19.923C16.9702 20.25 16.1301 20.25 14.45 20.25H9.54997C7.86982 20.25 7.02974 20.25 6.388 19.923C5.82352 19.6354 5.36457 19.1765 5.07695 18.612C4.74997 17.9702 4.74997 17.1302 4.74997 15.45V7.44041M4.74997 7.44041L2.5 9.0512" stroke="black" stroke-width="1.5" stroke-linecap="round" stroke-linejoin="round"/>
</svg>
