<svg width="24" height="24" viewBox="0 0 24 24" fill="none" xmlns="http://www.w3.org/2000/svg">
<path d="M18.0858 11.7135L15.0274 18.1673C14.5916 19.0871 13.7192 19.7231 12.7102 19.8567L3 21.1424L4.22161 11.3969C4.35054 10.3683 5.00134 9.47916 5.94282 9.04534L12.4289 6.05661L12.2647 5.89239C11.5744 5.20204 11.5744 4.08275 12.2647 3.3924C12.9551 2.70204 14.0744 2.70205 14.7647 3.3924L20.75 9.37769C21.4404 10.068 21.4404 11.1873 20.75 11.8777C20.0596 12.568 18.9404 12.568 18.25 11.8777L18.0858 11.7135Z" stroke="black" stroke-width="1.5" stroke-linecap="square" stroke-linejoin="round"/>
<path d="M11.25 14.15C11.25 14.8404 10.6904 15.4 10 15.4C9.30964 15.4 8.75 14.8404 8.75 14.15C8.75 13.4597 9.30964 12.9 10 12.9C10.6904 12.9 11.25 13.4597 11.25 14.15Z" stroke="black" stroke-width="1.5" stroke-linecap="square"/>
<path d="M12.4297 6.05664L18.0865 11.7135" stroke="black" stroke-width="1.5" stroke-linecap="round"/>
<path d="M10 14.1425L3 21.1424" stroke="black" stroke-width="1.5" stroke-linecap="round"/>
<path d="M10 14.65V13.65" stroke="black" stroke-width="1.5" stroke-linecap="square"/>
</svg>
