<svg width="24" height="24" viewBox="0 0 24 24" fill="none" xmlns="http://www.w3.org/2000/svg">
<path d="M12 21.25C17.1086 21.25 21.25 17.1086 21.25 12C21.25 6.89137 17.1086 2.75 12 2.75C6.89137 2.75 2.75 6.89137 2.75 12C2.75 17.1086 6.89137 21.25 12 21.25Z" stroke="black" stroke-width="1.5"/>
<path d="M12 21.25C13.933 21.25 15.5 17.1086 15.5 12C15.5 6.89137 13.933 2.75 12 2.75C10.067 2.75 8.5 6.89137 8.5 12C8.5 17.1086 10.067 21.25 12 21.25Z" stroke="black" stroke-width="1.5"/>
<path d="M3.5 9.25H20.5" stroke="black" stroke-width="1.5"/>
<path d="M3.5 14.75H20.5" stroke="black" stroke-width="1.5"/>
</svg>
