<svg width="24" height="24" viewBox="0 0 24 24" fill="none" xmlns="http://www.w3.org/2000/svg">
<path d="M21.25 14.45V9.55C21.25 7.86984 21.25 7.02976 20.923 6.38803C20.6354 5.82354 20.1765 5.3646 19.612 5.07698C18.9702 4.75 18.1302 4.75 16.45 4.75H7.55C5.86984 4.75 5.02976 4.75 4.38803 5.07698C3.82354 5.3646 3.3646 5.82354 3.07698 6.38803C2.75 7.02976 2.75 7.86984 2.75 9.55V14.45C2.75 16.1302 2.75 16.9702 3.07698 17.612C3.3646 18.1765 3.82354 18.6354 4.38803 18.923C5.02976 19.25 5.86984 19.25 7.55 19.25H16.45C18.1302 19.25 18.9702 19.25 19.612 18.923C20.1765 18.6354 20.6354 18.1765 20.923 17.612C21.25 16.9702 21.25 16.1302 21.25 14.45Z" stroke="black" stroke-width="1.5"/>
<path d="M21 6L13.8418 11.5675C12.7585 12.4101 11.2415 12.4101 10.1582 11.5675L3 6" stroke="black" stroke-width="1.5"/>
</svg>
