<svg width="24" height="24" viewBox="0 0 24 24" fill="none" xmlns="http://www.w3.org/2000/svg">
<path d="M14.5694 16.1111C18.259 16.1111 21.25 13.1201 21.25 9.43056C21.25 8.66012 21.1196 7.92014 20.8796 7.23149L18.1667 9.94444C17.0314 11.0797 15.1908 11.0797 14.0556 9.94444C12.9203 8.80919 12.9203 6.96858 14.0556 5.83333L16.7685 3.12038C16.0799 2.88042 15.3399 2.75 14.5694 2.75C10.8799 2.75 7.88888 5.74099 7.88888 9.43056C7.88888 10.3416 8.07123 11.21 8.40144 12.0013L3.48725 16.9873C2.52576 17.9629 2.53144 19.5315 3.49999 20.5C4.46854 21.4685 6.03709 21.4742 7.01264 20.5127L11.9987 15.5986C12.79 15.9288 13.6584 16.1111 14.5694 16.1111Z" stroke="black" stroke-width="1.5" stroke-linejoin="round"/>
</svg>
