<svg width="32" height="32" viewBox="0 0 32 32" fill="none" xmlns="http://www.w3.org/2000/svg">
<path d="M16.9976 1.35645H14.9976V5.38745H16.9976V1.35645Z" fill="black"/>
<path d="M4.93604 25.6471L6.35025 27.0614L9.2006 24.211L7.78638 22.7969L4.93604 25.6471Z" fill="black"/>
<path d="M16.9976 26.6123V30.6434H14.9976V26.6123H16.9976Z" fill="black"/>
<path d="M22.7939 7.78884L24.2081 9.20305L27.0585 6.35269L25.6443 4.93848L22.7939 7.78884Z" fill="black"/>
<path d="M26.6094 15H30.6404V17H26.6094V15Z" fill="black"/>
<path d="M24.2081 22.7969L22.7939 24.2111L25.6443 27.0614L27.0585 25.6473L24.2081 22.7969Z" fill="black"/>
<path d="M1.354 15H5.38502V17H1.354V15Z" fill="black"/>
<path d="M6.35025 4.93848L4.93604 6.35269L7.78638 9.20305L9.2006 7.78884L6.35025 4.93848Z" fill="black"/>
<path d="M10.3407 10.3431C13.4648 7.21895 18.5302 7.21895 21.6544 10.3431C24.7786 13.4673 24.7786 18.5327 21.6544 21.6568C18.5302 24.7811 13.4648 24.7811 10.3407 21.6568C7.21651 18.5327 7.21651 13.4673 10.3407 10.3431Z" fill="black"/>
</svg>
