<svg width="24" height="24" viewBox="0 0 24 24" fill="none" xmlns="http://www.w3.org/2000/svg">
<path d="M9.87822 3.37136L9.65323 3.59635C9.09062 4.15896 8.32756 4.47503 7.53191 4.47503H7.47455C5.81769 4.47503 4.47455 5.81818 4.47455 7.47503V7.53239C4.47455 8.32804 4.15848 9.0911 3.59587 9.65371L3.37087 9.87871C2.19929 11.0503 2.19929 12.9498 3.37087 14.1214L3.59587 14.3464C4.15848 14.909 4.47455 15.672 4.47455 16.4677V16.525C4.47455 18.1819 5.81769 19.525 7.47454 19.525H7.53191C8.32755 19.525 9.09062 19.8411 9.65323 20.4037L9.87822 20.6287C11.0498 21.8003 12.9493 21.8003 14.1209 20.6287L14.3459 20.4037C14.9085 19.8411 15.6715 19.525 16.4672 19.525H16.5245C18.1814 19.525 19.5245 18.1819 19.5245 16.525V16.4677C19.5245 15.672 19.8406 14.909 20.4032 14.3464L20.6282 14.1214C21.7998 12.9498 21.7998 11.0503 20.6282 9.87871L20.4032 9.65371C19.8406 9.0911 19.5245 8.32804 19.5245 7.53239V7.47503C19.5245 5.81818 18.1814 4.47503 16.5245 4.47503H16.4672C15.6715 4.47503 14.9085 4.15896 14.3459 3.59635L14.1209 3.37136C12.9493 2.19978 11.0498 2.19978 9.87822 3.37136Z" stroke="black" stroke-width="1.5" stroke-linecap="round" stroke-linejoin="round"/>
<path d="M8.67969 13.0929L10.9124 15.0599L14.8197 9.43994" stroke="black" stroke-width="1.5" stroke-linecap="round" stroke-linejoin="round"/>
</svg>
