<svg width="24" height="24" viewBox="0 0 24 24" fill="none" xmlns="http://www.w3.org/2000/svg">
<path d="M8 3C8 3.55228 8.44772 4 9 4C9.55228 4 10 3.55228 10 3H8ZM10 2C10 1.44772 9.55228 1 9 1C8.44772 1 8 1.44772 8 2H10ZM16 21C16 20.4477 15.5523 20 15 20C14.4477 20 14 20.4477 14 21H16ZM14 22C14 22.5523 14.4477 23 15 23C15.5523 23 16 22.5523 16 22H14ZM3 10C3.55228 10 4 9.55228 4 9C4 8.44772 3.55228 8 3 8V10ZM2 8C1.44772 8 1 8.44772 1 9C1 9.55228 1.44772 10 2 10V8ZM21 14C20.4477 14 20 14.4477 20 15C20 15.5523 20.4477 16 21 16V14ZM22 16C22.5523 16 23 15.5523 23 15C23 14.4477 22.5523 14 22 14V16ZM3.79289 5.20711C4.18342 5.59763 4.81658 5.59763 5.20711 5.20711C5.59763 4.81658 5.59763 4.18342 5.20711 3.79289L3.79289 5.20711ZM4.20711 2.79289C3.81658 2.40237 3.18342 2.40237 2.79289 2.79289C2.40237 3.18342 2.40237 3.81658 2.79289 4.20711L4.20711 2.79289ZM20.2071 18.7929C19.8166 18.4024 19.1834 18.4024 18.7929 18.7929C18.4024 19.1834 18.4024 19.8166 18.7929 20.2071L20.2071 18.7929ZM19.7929 21.2071C20.1834 21.5976 20.8166 21.5976 21.2071 21.2071C21.5976 20.8166 21.5976 20.1834 21.2071 19.7929L19.7929 21.2071ZM10.2929 5.29289C9.90237 5.68342 9.90237 6.31658 10.2929 6.70711C10.6834 7.09763 11.3166 7.09763 11.7071 6.70711L10.2929 5.29289ZM6.70711 11.7071C7.09763 11.3166 7.09763 10.6834 6.70711 10.2929C6.31658 9.90237 5.68342 9.90237 5.29289 10.2929L6.70711 11.7071ZM17.2929 12.2929C16.9024 12.6834 16.9024 13.3166 17.2929 13.7071C17.6834 14.0976 18.3166 14.0976 18.7071 13.7071L17.2929 12.2929ZM13.7071 18.7071C14.0976 18.3166 14.0976 17.6834 13.7071 17.2929C13.3166 16.9024 12.6834 16.9024 12.2929 17.2929L13.7071 18.7071ZM10 3V2H8V3H10ZM14 21V22H16V21H14ZM3 8H2V10H3V8ZM21 16H22V14H21V16ZM5.20711 3.79289L4.20711 2.79289L2.79289 4.20711L3.79289 5.20711L5.20711 3.79289ZM18.7929 20.2071L19.7929 21.2071L21.2071 19.7929L20.2071 18.7929L18.7929 20.2071ZM3.20711 16.6213L7.37868 20.7929L8.79289 19.3787L4.62132 15.2071L3.20711 16.6213ZM20.7929 7.37868L16.6213 3.20711L15.2071 4.62132L19.3787 8.79289L20.7929 7.37868ZM12.3787 3.20711L10.2929 5.29289L11.7071 6.70711L13.7929 4.62132L12.3787 3.20711ZM5.29289 10.2929L3.20711 12.3787L4.62132 13.7929L6.70711 11.7071L5.29289 10.2929ZM18.7071 13.7071L20.7929 11.6213L19.3787 10.2071L17.2929 12.2929L18.7071 13.7071ZM11.6213 20.7929L13.7071 18.7071L12.2929 17.2929L10.2071 19.3787L11.6213 20.7929ZM19.3787 8.79289C19.7692 9.18342 19.7692 9.81658 19.3787 10.2071L20.7929 11.6213C21.9645 10.4497 21.9645 8.55025 20.7929 7.37868L19.3787 8.79289ZM7.37868 20.7929C8.55026 21.9645 10.4497 21.9645 11.6213 20.7929L10.2071 19.3787C9.81658 19.7692 9.18342 19.7692 8.79289 19.3787L7.37868 20.7929ZM4.62132 15.2071C4.2308 14.8166 4.2308 14.1834 4.62132 13.7929L3.20711 12.3787C2.03553 13.5503 2.03553 15.4497 3.20711 16.6213L4.62132 15.2071ZM16.6213 3.20711C15.4497 2.03553 13.5503 2.03553 12.3787 3.20711L13.7929 4.62132C14.1834 4.2308 14.8166 4.2308 15.2071 4.62132L16.6213 3.20711Z" fill="black"/>
</svg>
