<svg width="24" height="24" viewBox="0 0 24 24" fill="none" xmlns="http://www.w3.org/2000/svg">
<path d="M5.29328 10.293C5.68382 9.90261 6.31687 9.90251 6.70735 10.293C7.09767 10.6835 7.09766 11.3166 6.70735 11.707L4.62141 13.793C4.23091 14.1834 4.23091 14.8166 4.62141 15.207L8.79328 19.3789C9.18385 19.7691 9.81699 19.7693 10.2073 19.3789L12.2933 17.293C12.6838 16.9026 13.3169 16.9025 13.7073 17.293C14.0977 17.6835 14.0977 18.3166 13.7073 18.707L11.6214 20.793C10.4499 21.9645 8.5498 21.9645 7.37824 20.793L3.20735 16.6211C2.03576 15.4496 2.03576 13.5504 3.20735 12.3789L5.29328 10.293ZM14.2933 8.29298C14.6838 7.90261 15.3169 7.90251 15.7073 8.29298C16.0977 8.68346 16.0977 9.31656 15.7073 9.70704L9.70735 15.707C9.31687 16.0975 8.68382 16.0974 8.29328 15.707C7.90276 15.3165 7.90276 14.6835 8.29328 14.293L14.2933 8.29298ZM12.3782 3.20704C13.5498 2.03544 15.4499 2.03544 16.6214 3.20704L20.7933 7.37794C21.9647 8.54945 21.9647 10.4496 20.7933 11.6211L18.7073 13.707C18.3169 14.0975 17.6838 14.0973 17.2933 13.707C16.9028 13.3165 16.9028 12.6835 17.2933 12.293L19.3782 10.207C19.7687 9.81658 19.7688 9.18352 19.3782 8.79298L15.2073 4.6211C14.8169 4.23065 14.1838 4.23073 13.7933 4.6211L11.7073 6.70704C11.3169 7.09746 10.6838 7.09726 10.2933 6.70704C9.90276 6.31652 9.90276 5.6835 10.2933 5.29298L12.3782 3.20704Z" fill="black"/>
</svg>
