<svg width="24" height="24" viewBox="0 0 24 24" fill="none" xmlns="http://www.w3.org/2000/svg">
<path fill-rule="evenodd" clip-rule="evenodd" d="M12 2C14.7614 2 17 4.23858 17 7V9C18.6569 9 20 10.3431 20 12V19C20 20.6569 18.6569 22 17 22H7C5.34315 22 4 20.6569 4 19V12C4 10.3431 5.34315 9 7 9V7C7 4.23858 9.23858 2 12 2ZM12 13C11.4477 13 11 13.4477 11 14V17C11 17.5523 11.4477 18 12 18C12.5523 18 13 17.5523 13 17V14C13 13.4477 12.5523 13 12 13ZM12 4C10.3431 4 9 5.34315 9 7V9H15V7C15 5.34315 13.6569 4 12 4Z" fill="black"/>
</svg>
