<svg width="24" height="24" viewBox="0 0 24 24" fill="none" xmlns="http://www.w3.org/2000/svg">
<path d="M12 13C12.5523 13 13 13.4477 13 14V17C13 17.5523 12.5523 18 12 18C11.4477 18 11 17.5523 11 17V14C11 13.4477 11.4477 13 12 13Z" fill="black"/>
<path fill-rule="evenodd" clip-rule="evenodd" d="M12 2C14.3311 2 16.2877 3.59469 16.8428 5.75098C16.9802 6.28572 16.6578 6.8311 16.123 6.96875C15.5883 7.10623 15.0429 6.78377 14.9053 6.24902C14.572 4.95501 13.3963 4 12 4C10.3431 4 9 5.34314 9 7V9H17C18.6569 9 20 10.3431 20 12V19C20 20.6569 18.6569 22 17 22H7C5.34316 22 4 20.6569 4 19V12C4 10.3949 5.26056 9.08421 6.8457 9.00391L7 9V7C7 4.23858 9.23857 2 12 2ZM7 11C6.44771 11 6 11.4477 6 12V19C6 19.5523 6.44771 20 7 20H17C17.5523 20 18 19.5523 18 19V12C18 11.4477 17.5523 11 17 11H7Z" fill="black"/>
</svg>
