<svg width="24" height="24" viewBox="0 0 24 24" fill="none" xmlns="http://www.w3.org/2000/svg">
<path fill-rule="evenodd" clip-rule="evenodd" d="M19.6504 3C20.0082 3.0001 20.3514 3.14242 20.6045 3.39551C20.8576 3.64859 20.9999 3.99171 21 4.34961V19.6504C20.9999 20.0082 20.8576 20.3514 20.6045 20.6045C20.3514 20.8576 20.0082 20.9999 19.6504 21H4.34961C3.99171 20.9999 3.64859 20.8576 3.39551 20.6045C3.14242 20.3514 3.0001 20.0082 3 19.6504V4.34961C3.0001 3.99171 3.14242 3.64859 3.39551 3.39551C3.64859 3.14242 3.99171 3.0001 4.34961 3H19.6504ZM5.7002 10.2002V18.2998H8.40039V10.2002H5.7002ZM15.2402 10.1104C14.7612 10.0948 14.2859 10.2023 13.8604 10.4229C13.4349 10.6435 13.0728 10.9697 12.8096 11.3701V10.2002H10.2002V18.2998H12.9004V13.9707C12.8857 13.7651 12.9113 13.5587 12.9766 13.3633C13.042 13.1677 13.1459 12.9867 13.2812 12.8311C13.4167 12.6756 13.5818 12.5486 13.7666 12.457C13.9514 12.3654 14.1526 12.3106 14.3584 12.2969C15.0602 12.297 15.5996 12.7564 15.5996 14.0342V18.2998H18.2998L18.2637 13.4043C18.2637 10.8844 16.6352 10.1104 15.2402 10.1104ZM7.70801 5.59961C7.42283 5.47919 7.10794 5.44571 6.80371 5.50293C6.49967 5.56015 6.21894 5.70528 5.99707 5.9209C5.77516 6.13664 5.62144 6.4134 5.55566 6.71582C5.48992 7.01823 5.5147 7.33368 5.62695 7.62207C5.73927 7.9105 5.93452 8.15954 6.1875 8.33789C6.44047 8.5162 6.74043 8.61612 7.0498 8.625C7.47303 8.62982 7.88104 8.46683 8.18457 8.17188C8.48812 7.87675 8.66281 7.47311 8.66992 7.0498C8.66975 6.74031 8.57835 6.43758 8.40723 6.17969C8.23614 5.92191 7.99301 5.72001 7.70801 5.59961Z" fill="black"/>
</svg>
