<svg width="24" height="24" viewBox="0 0 24 24" fill="none" xmlns="http://www.w3.org/2000/svg">
<path d="M12 1.9502C17.525 1.9502 22 6.42615 22 11.9512C21.9994 14.0461 21.342 16.0883 20.1201 17.79C18.898 19.492 17.1727 20.7683 15.1875 21.4385C14.6875 21.5384 14.5 21.2254 14.5 20.9629C14.5 20.625 14.5127 19.55 14.5127 18.2129C14.5126 17.2758 14.2002 16.6758 13.8379 16.3633C16.0627 16.1132 18.4003 15.263 18.4004 11.4258C18.4004 10.3258 18.0125 9.43827 17.375 8.73828C17.475 8.48828 17.8254 7.46289 17.2754 6.08789C17.2754 6.08789 16.4377 5.81344 14.5254 7.11328C13.7255 6.88831 12.8752 6.77542 12.0254 6.77539C11.1755 6.77539 10.3253 6.88834 9.52537 7.11328C7.63755 5.8424 6.79674 6.0815 6.77537 6.08789C6.22537 7.46289 6.57478 8.48828 6.67478 8.73828C6.03737 9.43826 5.65037 10.3384 5.65037 11.4258C5.6504 15.2507 7.97519 16.1133 10.2002 16.3633C9.91267 16.6133 9.64998 17.0512 9.56248 17.7012C8.98739 17.9637 7.55028 18.3879 6.65037 16.876C6.46287 16.576 5.89978 15.8381 5.11228 15.8506C4.27508 15.8632 4.77501 16.3262 5.12498 16.5137C5.54994 16.7513 6.03788 17.6383 6.15037 17.9258C6.35045 18.4883 7.00045 19.563 9.51267 19.1006C9.51267 19.9377 9.52536 20.725 9.52537 20.9629C9.52537 21.2253 9.33757 21.5257 8.83787 21.4385C6.84617 20.7755 5.11303 19.5018 3.88572 17.7988C2.65865 16.096 1.99898 14.05 1.99998 11.9512C1.99998 6.42616 6.47499 1.95021 12 1.9502Z" fill="black"/>
</svg>
