<svg width="24" height="24" viewBox="0 0 24 24" fill="none" xmlns="http://www.w3.org/2000/svg">
<path fill-rule="evenodd" clip-rule="evenodd" d="M4 5.98374C4 4.39952 5.76623 3.45808 7.08203 4.33433L16.1172 10.3519C17.294 11.1362 17.2941 12.8646 16.1172 13.6488L7.08203 19.6664C5.76631 20.5425 4.00024 19.6009 4 18.0169V5.98374ZM6 17.9828L14.9834 12.0003L6 6.01695V17.9828Z" fill="black"/>
<path d="M19 4.00034C19.5523 4.00034 20 4.44806 20 5.00034V19.0003C19.9998 19.5525 19.5522 20.0003 19 20.0003C18.4478 20.0003 18.0002 19.5525 18 19.0003V5.00034C18 4.44806 18.4477 4.00034 19 4.00034Z" fill="black"/>
</svg>
