<svg width="24" height="24" viewBox="0 0 24 24" fill="none" xmlns="http://www.w3.org/2000/svg">
<path fill-rule="evenodd" clip-rule="evenodd" d="M16.918 4.33417C18.2338 3.45786 20 4.39939 20 5.98358V18.0168C19.9998 19.6008 18.2337 20.5424 16.918 19.6662L7.88281 13.6486C6.70585 12.8644 6.70592 11.136 7.88281 10.3517L16.918 4.33417ZM9.01562 12.0002L18 17.9826V6.01678L9.01562 12.0002Z" fill="black"/>
<path d="M5 4.00018C5.55228 4.00018 6 4.4479 6 5.00018V19.0002C5.99989 19.5524 5.55221 20.0002 5 20.0002C4.44778 20.0002 4.00011 19.5524 4 19.0002V5.00018C4 4.4479 4.44772 4.00018 5 4.00018Z" fill="black"/>
</svg>
