<svg width="24" height="24" viewBox="0 0 24 24" fill="none" xmlns="http://www.w3.org/2000/svg">
<path fill-rule="evenodd" clip-rule="evenodd" d="M7 3C8.65685 3 10 4.34315 10 6V18C10 19.6569 8.65685 21 7 21C5.34315 21 4 19.6569 4 18V6C4 4.34315 5.34315 3 7 3ZM7 5C6.44771 5 6 5.44771 6 6V18C6 18.5523 6.44771 19 7 19C7.55229 19 8 18.5523 8 18V6C8 5.44771 7.55229 5 7 5Z" fill="black"/>
<path fill-rule="evenodd" clip-rule="evenodd" d="M17 3C18.6569 3 20 4.34316 20 6V18C20 19.6569 18.6569 21 17 21C15.3431 21 14 19.6569 14 18V6C14 4.34315 15.3431 3 17 3ZM17 5C16.4477 5 16 5.44771 16 6V18C16 18.5523 16.4477 19 17 19C17.5523 19 18 18.5523 18 18V6C18 5.44771 17.5523 5 17 5Z" fill="black"/>
</svg>
