<svg width="24" height="24" viewBox="0 0 24 24" fill="none" xmlns="http://www.w3.org/2000/svg">
<path d="M18.1483 14.4561C18.449 13.9928 19.0679 13.8606 19.5311 14.1611C19.9942 14.4617 20.1263 15.0807 19.8261 15.5439C18.7024 17.2754 16.5544 19.5759 13.0009 19.9463V21C13.0009 21.5523 12.5531 22 12.0009 22C11.4487 21.9998 11.0009 21.5522 11.0009 21V19.9463C7.44768 19.5757 5.30023 17.2753 4.17665 15.5439C3.87627 15.0807 4.0084 14.4617 4.47158 14.1611C4.93482 13.8608 5.55381 13.9929 5.85439 14.4561C6.89402 16.0579 8.80118 17.9999 12.0009 18C15.2008 18 17.1087 16.058 18.1483 14.4561Z" fill="black"/>
<path fill-rule="evenodd" clip-rule="evenodd" d="M12.0009 2C14.7622 2.00003 17.0009 4.23858 17.0009 7V11C17.0009 13.7614 14.7622 16 12.0009 16C9.23958 15.9998 7.00087 13.7613 7.00087 11V7C7.00087 4.23868 9.23959 2.00018 12.0009 2ZM12.0009 4C10.3442 4.00018 9.00087 5.34326 9.00087 7V11C9.00087 12.6567 10.3442 13.9998 12.0009 14C13.6577 14 15.0009 12.6568 15.0009 11V7C15.0009 5.34317 13.6577 4.00003 12.0009 4Z" fill="black"/>
</svg>
