<svg width="24" height="24" viewBox="0 0 24 24" fill="none" xmlns="http://www.w3.org/2000/svg">
<path fill-rule="evenodd" clip-rule="evenodd" d="M2.29282 2.29254C2.68329 1.90229 3.31641 1.9023 3.70688 2.29254L21.7069 20.2925C22.0973 20.683 22.0972 21.3161 21.7069 21.7066C21.3164 22.0971 20.6833 22.0971 20.2928 21.7066L17.0418 18.4556C15.9608 19.2005 14.6232 19.7758 12.9999 19.9459V20.9996C12.9999 21.5519 12.5521 21.9996 11.9999 21.9996C11.4476 21.9996 10.9999 21.5519 10.9999 20.9996V19.9459C7.44651 19.5754 5.29923 17.2749 4.17563 15.5435C3.87541 15.0803 4.00658 14.4613 4.46958 14.1607C4.93274 13.8603 5.55269 13.9926 5.85337 14.4556C6.89306 16.0575 8.80007 17.9996 11.9999 17.9996C13.4635 17.9996 14.6456 17.5966 15.5985 17.0123L14.1141 15.5279C13.4711 15.8286 12.7551 15.9996 11.9999 15.9996C9.23844 15.9996 6.99985 13.7609 6.99985 10.9996V8.41364L2.29282 3.7066C1.90251 3.31606 1.90237 2.68299 2.29282 2.29254ZM8.99985 10.9996C8.99985 12.6564 10.343 13.9996 11.9999 13.9996C12.1832 13.9996 12.3621 13.9811 12.536 13.9498L8.99985 10.4136V10.9996Z" fill="black"/>
<path d="M11.9999 1.99957C14.7612 1.99957 16.9996 4.23835 16.9999 6.99957V10.3433C16.9996 10.8954 16.552 11.3433 15.9999 11.3433C15.4477 11.3433 15.0001 10.8954 14.9999 10.3433V6.99957C14.9996 5.3429 13.6566 3.99957 11.9999 3.99957C11.296 3.99958 10.651 4.24115 10.1395 4.64606C9.70667 4.98862 9.07807 4.91551 8.73521 4.48297C8.3926 4.04999 8.46539 3.42047 8.89829 3.0777C9.7504 2.40314 10.8295 1.99958 11.9999 1.99957Z" fill="black"/>
</svg>
