<svg width="24" height="24" viewBox="0 0 24 24" fill="none" xmlns="http://www.w3.org/2000/svg">
<path d="M2.29326 2.29254C2.68381 1.90242 3.31692 1.90217 3.70732 2.29254L21.7073 20.2925C22.0977 20.6829 22.0974 21.3161 21.7073 21.7066C21.3168 22.0971 20.6838 22.0971 20.2933 21.7066L17.0433 18.4576C15.9622 19.2025 14.6238 19.7787 13.0003 19.9488V20.9996C13.0003 21.5518 12.5524 21.9994 12.0003 21.9996C11.448 21.9996 11.0003 21.5519 11.0003 20.9996V19.9488C7.44676 19.5784 5.29871 17.2759 4.17509 15.5445C3.87451 15.0812 4.00675 14.4613 4.47001 14.1607C4.93323 13.8603 5.55223 13.9926 5.85283 14.4556C6.89244 16.0576 8.8002 17.9996 12.0003 17.9996C13.4638 17.9995 14.6461 17.5975 15.5989 17.0132L14.1165 15.5308C13.4733 15.8317 12.7557 15.9995 12.0003 15.9996C9.23888 15.9996 7.00029 13.761 7.00029 10.9996V8.41461L2.29326 3.70758C1.90274 3.31705 1.90274 2.68307 2.29326 2.29254Z" fill="black"/>
<path d="M12.0003 1.99957C14.7614 1.99982 17.0001 4.2385 17.0003 6.99957V10.9996C17.0003 11.5302 16.9171 12.0422 16.764 12.522L8.10576 3.86285C9.0223 2.72659 10.4268 1.99957 12.0003 1.99957Z" fill="black"/>
</svg>
