<svg width="24" height="24" viewBox="0 0 24 24" fill="none" xmlns="http://www.w3.org/2000/svg">
<path d="M18.148 14.4561C18.4487 13.9929 19.0686 13.8604 19.5318 14.1611C19.9949 14.4617 20.1262 15.0807 19.8257 15.5439C18.7021 17.2753 16.5551 19.5788 13.0015 19.9492V21C13.0015 21.5523 12.5538 22 12.0015 22C11.4492 22 11.0015 21.5523 11.0015 21V19.9492C7.44797 19.5788 5.30089 17.2753 4.17727 15.5439C3.87685 15.0807 4.00815 14.4617 4.47121 14.1611C4.93449 13.8604 5.55436 13.9929 5.855 14.4561C6.89467 16.058 8.80172 18 12.0015 18C15.2013 18 17.1083 16.058 18.148 14.4561Z" fill="black"/>
<path d="M12.0015 2C14.7629 2 17.0015 4.23858 17.0015 7V11C17.0015 13.7614 14.7629 16 12.0015 16C9.24013 15.9999 7.00149 13.7614 7.00149 11V7C7.00149 4.23862 9.24013 2.00006 12.0015 2Z" fill="black"/>
</svg>
