<svg width="24" height="24" viewBox="0 0 24 24" fill="none" xmlns="http://www.w3.org/2000/svg">
<path d="M11.1436 2.03562C11.5288 2.00298 11.8985 2.19554 12.0928 2.52977C12.287 2.86428 12.2713 3.2816 12.0518 3.60008C11.386 4.56608 10.9962 5.7357 10.9961 6.99949C10.9961 10.3132 13.6824 12.9995 16.9961 12.9995C18.2602 12.9995 19.4304 12.6097 20.3965 11.9438C20.715 11.7245 21.1314 11.7087 21.4658 11.9028C21.8003 12.097 21.9927 12.4666 21.96 12.852C21.5261 17.9746 17.2323 21.9956 11.998 21.9956C6.47629 21.9956 2 17.5193 2 11.9975C2.00019 6.76361 6.02138 2.46976 11.1436 2.03562Z" fill="black"/>
</svg>
