<svg width="24" height="24" viewBox="0 0 24 24" fill="none" xmlns="http://www.w3.org/2000/svg">
<path fill-rule="evenodd" clip-rule="evenodd" d="M11.1436 2.03655C11.5289 2.00389 11.8986 2.19623 12.0928 2.53069C12.2867 2.86512 12.2711 3.28166 12.0518 3.60002C11.386 4.56605 10.9961 5.73654 10.9961 7.00041C10.9965 10.3138 13.6826 13.0004 16.9961 13.0004C18.2601 13.0004 19.4304 12.6106 20.3965 11.9447C20.7149 11.7252 21.1313 11.7086 21.4658 11.9028C21.8002 12.0969 21.9925 12.4667 21.96 12.852C21.5259 17.9744 17.2322 21.9965 11.998 21.9965C6.47648 21.9965 2.00031 17.52 2 11.9985C2 6.76439 6.02126 2.47076 11.1436 2.03655ZM9.4209 4.42424C6.26847 5.49664 4 8.48313 4 11.9985C4.00031 16.4154 7.58105 19.9965 11.998 19.9965C15.5135 19.9965 18.499 17.7272 19.5713 14.5746C18.7627 14.8495 17.8966 15.0004 16.9961 15.0004C12.578 15.0004 8.99646 11.4183 8.99609 7.00041C8.99609 6.09989 9.14601 5.23292 9.4209 4.42424Z" fill="black"/>
</svg>
