<svg width="24" height="24" viewBox="0 0 24 24" fill="none" xmlns="http://www.w3.org/2000/svg">
<path d="M18.1221 10.5605C18.3863 10.0758 18.9936 9.89704 19.4785 10.1611C21.1474 11.0702 22.4998 12.4605 22.5 14.25C22.5 16.1445 20.9905 17.5912 19.165 18.5039C17.2798 19.4465 14.7449 20 12 20C9.25507 20 6.72024 19.4465 4.83496 18.5039C3.00954 17.5912 1.5 16.1445 1.5 14.25C1.5002 12.4605 2.85258 11.0702 4.52148 10.1611C5.0064 9.89704 5.61369 10.0758 5.87793 10.5605C6.14204 11.0455 5.96331 11.6527 5.47852 11.917C4.04315 12.6988 3.50021 13.5635 3.5 14.25C3.5 14.9789 4.11673 15.9084 5.72949 16.7148C7.28253 17.4914 9.49822 18 12 18C14.5018 18 16.7175 17.4914 18.2705 16.7148C19.8833 15.9084 20.5 14.9789 20.5 14.25C20.4998 13.5635 19.9569 12.6988 18.5215 11.917C18.0367 11.6527 17.858 11.0455 18.1221 10.5605Z" fill="black"/>
<path d="M12.0205 4.00098C12.0381 4.00133 12.0557 4.00166 12.0732 4.00293C12.0909 4.00421 12.1085 4.00562 12.126 4.00781C12.1378 4.0093 12.1494 4.01177 12.1611 4.01367C12.1802 4.01676 12.1991 4.02026 12.2178 4.02441C12.2269 4.02645 12.236 4.02895 12.2451 4.03125C12.3141 4.04866 12.3799 4.07357 12.4424 4.10449C12.4746 4.12042 12.5064 4.13761 12.5371 4.15723C12.5449 4.16219 12.5529 4.16671 12.5605 4.17188C12.6122 4.2069 12.6613 4.24722 12.707 4.29297L15.707 7.29297C16.0976 7.68349 16.0976 8.31651 15.707 8.70703C15.3165 9.09754 14.6835 9.09755 14.293 8.70703L13 7.41406V14C13 14.5523 12.5523 15 12 15C11.4477 15 11 14.5523 11 14V7.41406L9.70703 8.70703C9.31651 9.09754 8.68349 9.09755 8.29297 8.70703C7.90248 8.31651 7.90247 7.68349 8.29297 7.29297L11.293 4.29297C11.3548 4.23117 11.4248 4.17778 11.501 4.13379C11.5154 4.12546 11.5302 4.1179 11.5449 4.11035C11.6093 4.07734 11.6775 4.05073 11.749 4.03223C11.7626 4.0287 11.7763 4.0254 11.79 4.02246C11.8033 4.01963 11.8166 4.01695 11.8301 4.01465C11.846 4.01191 11.8619 4.00978 11.8779 4.00781C11.8957 4.00565 11.9136 4.00415 11.9316 4.00293C11.9476 4.00184 11.9635 4.00131 11.9795 4.00098C11.9863 4.00084 11.9931 4 12 4C12.0069 4 12.0137 4.00084 12.0205 4.00098Z" fill="black"/>
</svg>
