<svg width="24" height="24" viewBox="0 0 24 24" fill="none" xmlns="http://www.w3.org/2000/svg">
<path d="M18.1221 10.5605C18.3863 10.0758 18.9936 9.89704 19.4785 10.1611C21.1474 11.0702 22.4998 12.4605 22.5 14.25C22.5 16.1445 20.9905 17.5912 19.165 18.5039C17.2798 19.4465 14.7449 20 12 20C9.25507 20 6.72024 19.4465 4.83496 18.5039C3.00954 17.5912 1.5 16.1445 1.5 14.25C1.5002 12.4605 2.85258 11.0702 4.52148 10.1611C5.0064 9.89704 5.61369 10.0758 5.87793 10.5605C6.14204 11.0455 5.96331 11.6527 5.47852 11.917C4.04315 12.6988 3.50021 13.5635 3.5 14.25C3.5 14.9789 4.11673 15.9084 5.72949 16.7148C7.28253 17.4914 9.49822 18 12 18C14.5018 18 16.7175 17.4914 18.2705 16.7148C19.8833 15.9084 20.5 14.9789 20.5 14.25C20.4998 13.5635 19.9569 12.6988 18.5215 11.917C18.0367 11.6527 17.858 11.0455 18.1221 10.5605Z" fill="black"/>
<path d="M12 4C12.5523 4 13 4.44772 13 5V12.5859L14.293 11.293C14.6835 10.9025 15.3165 10.9025 15.707 11.293C16.0976 11.6835 16.0976 12.3165 15.707 12.707L12.707 15.707C12.3165 16.0975 11.6835 16.0975 11.293 15.707L8.29297 12.707C7.90247 12.3165 7.90248 11.6835 8.29297 11.293C8.68349 10.9025 9.31651 10.9025 9.70703 11.293L11 12.5859V5C11 4.44772 11.4477 4 12 4Z" fill="black"/>
</svg>
