<svg width="24" height="24" viewBox="0 0 24 24" fill="none" xmlns="http://www.w3.org/2000/svg">
<path d="M19.7129 2.0419C20.0155 1.95117 20.3431 2.0095 20.5967 2.19815C20.8502 2.38683 21 2.68386 21 2.99991V15.4999C21 17.5959 19.0307 18.9999 17 18.9999C14.9693 18.9999 13 17.5959 13 15.4999C13 13.4039 14.9693 11.9999 17 11.9999C17.7 11.9999 18.3927 12.167 19 12.4716V4.34366L11 6.74405V18.4999C11 20.5959 9.03068 21.9999 7 21.9999C4.96932 21.9999 3 20.5959 3 18.4999C3.00003 16.4039 4.96934 14.9999 7 14.9999C7.70001 14.9999 8.39273 15.1671 9 15.4716V5.99991C9.00003 5.55833 9.28993 5.16879 9.71289 5.0419L19.7129 2.0419Z" fill="black"/>
</svg>
