<svg width="24" height="24" viewBox="0 0 24 24" fill="none" xmlns="http://www.w3.org/2000/svg">
<path fill-rule="evenodd" clip-rule="evenodd" d="M19.709 2.0417C20.0114 1.95109 20.3393 2.00868 20.5928 2.19697C20.8463 2.38559 20.996 2.68374 20.9961 2.99971V15.4997C20.9961 17.5957 19.0267 18.9997 16.9961 18.9997C14.9654 18.9997 12.9961 17.5956 12.9961 15.4997C12.9963 13.404 14.9655 11.9997 16.9961 11.9997C17.6959 11.9997 18.3889 12.166 18.9961 12.4704V4.34346L10.9961 6.74385V18.4997C10.9961 20.5957 9.02678 21.9997 6.99609 21.9997C4.96542 21.9997 2.99609 20.5957 2.99609 18.4997C2.99632 16.404 4.96553 14.9997 6.99609 14.9997C7.69595 14.9997 8.38892 15.166 8.99609 15.4704V5.99971C8.99625 5.55825 9.28612 5.16856 9.70898 5.0417L19.709 2.0417ZM6.99609 16.9997C5.71331 16.9997 4.99636 17.8343 4.99609 18.4997C4.99609 19.1651 5.71307 19.9997 6.99609 19.9997C8.27912 19.9997 8.99609 19.1652 8.99609 18.4997C8.99583 17.8343 8.27889 16.9997 6.99609 16.9997ZM16.9961 13.9997C15.7133 13.9997 14.9964 14.8343 14.9961 15.4997C14.9961 16.1652 15.713 16.9997 16.9961 16.9997C18.2791 16.9997 18.9961 16.1651 18.9961 15.4997C18.9958 14.8343 18.2788 13.9997 16.9961 13.9997Z" fill="black"/>
</svg>
