<svg width="24" height="24" viewBox="0 0 24 24" fill="none" xmlns="http://www.w3.org/2000/svg">
<path d="M11 3.00026C11.5523 3.00026 12 3.44798 12 4.00026C11.9999 4.55243 11.5522 5.00026 11 5.00026H7.2002C6.62365 5.00026 6.25111 5.00055 5.96778 5.0237C5.69624 5.04588 5.59537 5.08347 5.5459 5.10866C5.35776 5.20453 5.20525 5.35802 5.10938 5.54616C5.08418 5.5956 5.04661 5.69636 5.02442 5.96803C5.00128 6.25135 5 6.62399 5 7.20045V16.8001C5 17.3766 5.00127 17.7491 5.02442 18.0325C5.04661 18.3039 5.08419 18.4049 5.10938 18.4544C5.20523 18.6423 5.35795 18.795 5.5459 18.8909C5.59534 18.9161 5.69617 18.9536 5.96778 18.9758C6.25111 18.9989 6.62365 19.0003 7.2002 19.0003H16.7998C17.3764 19.0003 17.7488 18.9989 18.0322 18.9758C18.3038 18.9536 18.4046 18.9161 18.4541 18.8909C18.6421 18.7951 18.7947 18.6423 18.8906 18.4544C18.9158 18.4049 18.9544 18.3039 18.9766 18.0325C18.9997 17.7491 19 17.3766 19 16.8001V13.0003C19 12.448 19.4477 12.0003 20 12.0003C20.5523 12.0003 21 12.448 21 13.0003V16.8382C21 17.365 21.0003 17.8202 20.9697 18.1946C20.9374 18.5899 20.8655 18.9833 20.6729 19.3616C20.3853 19.926 19.9267 20.3855 19.3623 20.6731C18.984 20.8659 18.5906 20.9367 18.1953 20.969C17.8209 20.9996 17.3659 21.0003 16.8389 21.0003H7.16113C6.63413 21.0003 6.17919 20.9996 5.80469 20.969C5.40946 20.9367 5.01598 20.8659 4.6377 20.6731C4.07332 20.3855 3.61473 19.926 3.32715 19.3616C3.13447 18.9833 3.06257 18.5899 3.03028 18.1946C2.99971 17.8202 2.99998 17.3651 3 16.8382V7.16139C2.99998 6.63428 2.99968 6.17949 3.03028 5.80495C3.06258 5.40962 3.13437 5.01633 3.32715 4.63795C3.6147 4.07368 4.07345 3.61502 4.6377 3.32741C5.01599 3.13466 5.40944 3.06284 5.80469 3.03053C6.17919 2.99994 6.63412 3.00024 7.16113 3.00026H11Z" fill="black"/>
<path d="M16.6289 2.95729C17.8005 1.78572 19.6995 1.78572 20.8711 2.95729L21.043 3.12819C22.2146 4.29976 22.2146 6.19977 21.043 7.37135L13 15.4143C12.625 15.7893 12.1162 15.9992 11.5859 15.9993H9C8.44772 15.9993 8 15.5516 8 14.9993V12.4143C8 11.8839 8.21087 11.3744 8.58594 10.9993L16.6289 2.95729Z" fill="black"/>
</svg>
