<svg width="24" height="24" viewBox="0 0 24 24" fill="none" xmlns="http://www.w3.org/2000/svg">
<path d="M11 3.00033C11.5523 3.00033 12 3.44805 12 4.00033C11.9998 4.55245 11.5522 5.00033 11 5.00033H7.20018C6.62364 5.00033 6.2511 5.00159 5.96776 5.02474C5.6962 5.04694 5.59532 5.08452 5.54589 5.1097C5.35798 5.20554 5.20517 5.3583 5.10936 5.54623C5.08418 5.59576 5.04656 5.69703 5.0244 5.9681C5.00128 6.2514 4.99999 6.62421 4.99999 7.20053V16.8001C4.99999 17.3765 5.00126 17.7493 5.0244 18.0326C5.0466 18.3039 5.0842 18.405 5.10936 18.4544C5.20524 18.6423 5.35807 18.7952 5.54589 18.891C5.59536 18.9161 5.69643 18.9537 5.96776 18.9759C6.25109 18.9991 6.62365 19.0003 7.20018 19.0003H16.7998C17.3763 19.0003 17.7489 18.9991 18.0322 18.9759C18.3036 18.9537 18.4046 18.9161 18.4541 18.891C18.642 18.7952 18.7948 18.6423 18.8906 18.4544C18.9158 18.405 18.9534 18.3039 18.9756 18.0326C18.9987 17.7493 19 17.3765 19 16.8001V13.0003C19 12.448 19.4477 12.0003 20 12.0003C20.5523 12.0003 21 12.448 21 13.0003V16.8001C21 17.3435 21.0011 17.812 20.9697 18.1956C20.9374 18.5908 20.8656 18.9844 20.6728 19.3626C20.3853 19.9267 19.9264 20.3857 19.3623 20.6732C18.984 20.8659 18.5905 20.9377 18.1953 20.9701C17.8116 21.0014 17.3433 21.0003 16.7998 21.0003H7.20018C6.65665 21.0003 6.18835 21.0014 5.80468 20.9701C5.40946 20.9377 5.01595 20.8659 4.63768 20.6732C4.07346 20.3857 3.61468 19.9266 3.32714 19.3626C3.13442 18.9844 3.06259 18.5908 3.03026 18.1956C2.99892 17.812 2.99999 17.3435 2.99999 16.8001V7.20053C2.99999 6.65714 2.99894 6.18862 3.03026 5.80502C3.06257 5.40986 3.13449 5.01624 3.32714 4.63803C3.61468 4.07385 4.07352 3.61505 4.63768 3.32748C5.01597 3.13473 5.40943 3.06292 5.80468 3.0306C6.18835 2.99926 6.65664 3.00033 7.20018 3.00033H11Z" fill="black"/>
<path fill-rule="evenodd" clip-rule="evenodd" d="M16.6289 2.95736C17.8004 1.78578 19.6996 1.78578 20.8711 2.95736L21.043 3.12826C22.2144 4.29983 22.2144 6.19987 21.043 7.37142L13 15.4144C12.6248 15.7896 12.1159 16.0003 11.5859 16.0003H8.99999C8.44785 16.0003 8.00022 15.5524 7.99999 15.0003V12.4144C7.99999 11.8838 8.21105 11.3754 8.58593 11.0003L16.6289 2.95736ZM19.457 4.37142C19.0665 3.98093 18.4334 3.98093 18.043 4.37142L9.99999 12.4144V14.0003H11.5859L19.6289 5.95736C20.0193 5.56695 20.019 4.93385 19.6289 4.5433L19.457 4.37142Z" fill="black"/>
</svg>
