<svg width="24" height="24" viewBox="0 0 24 24" fill="none" xmlns="http://www.w3.org/2000/svg">
<path fill-rule="evenodd" clip-rule="evenodd" d="M14.2925 3.29261C16.0637 1.5217 18.9354 1.52183 20.7066 3.29261C22.4778 5.06379 22.4776 7.93543 20.7066 9.70668L10.6597 19.7536C10.2728 20.1403 9.7885 20.4136 9.26031 20.5446L9.0318 20.5914L3.66363 21.486C3.34528 21.5388 3.02075 21.4349 2.79254 21.2067C2.56446 20.9783 2.4602 20.6539 2.51324 20.3356L3.40777 14.9674C3.51061 14.3509 3.80364 13.7815 4.24567 13.3395L14.2925 3.29261ZM5.65973 14.7536C5.51255 14.9008 5.4147 15.091 5.38043 15.2965L4.71539 19.2828L8.7027 18.6188C8.90831 18.5845 9.09828 18.4868 9.24567 18.3395L17.0855 10.4996L13.4996 6.91371L5.65973 14.7536ZM19.2925 4.70668C18.3024 3.71694 16.6967 3.71681 15.7066 4.70668L14.9136 5.49965L18.4996 9.08558L19.2925 8.29261C20.2825 7.30241 20.2827 5.6968 19.2925 4.70668Z" fill="black"/>
</svg>
