<svg width="24" height="24" viewBox="0 0 24 24" fill="none" xmlns="http://www.w3.org/2000/svg">
<path d="M15.0186 14.175C15.1233 13.6328 15.6473 13.2783 16.1895 13.383C17.7412 13.6829 19.1178 14.1553 20.1348 14.7804C21.1095 15.3796 21.9998 16.2821 22 17.5002C21.9999 18.3575 21.5491 19.066 20.9697 19.5988C20.3911 20.1308 19.6087 20.5643 18.7266 20.9074C16.9557 21.596 14.577 22.0002 12 22.0002C9.42302 22.0002 7.04431 21.596 5.27344 20.9074C4.39133 20.5643 3.60892 20.1308 3.03027 19.5988C2.45091 19.066 2.00013 18.3575 2 17.5002C2.00019 16.2821 2.8905 15.3796 3.86523 14.7804C4.88216 14.1553 6.25876 13.6829 7.81055 13.383C8.35272 13.2783 8.87667 13.6328 8.98145 14.175C9.08591 14.717 8.73153 15.2411 8.18945 15.3459C6.77795 15.6187 5.65426 16.0274 4.91211 16.4836C4.12876 16.9651 4.00022 17.3441 4 17.5002C4.00012 17.6092 4.05287 17.8229 4.38379 18.1271C4.71588 18.4324 5.25202 18.753 5.99805 19.0431C7.48452 19.6212 9.60654 20.0002 12 20.0002C14.3935 20.0002 16.5155 19.6212 18.002 19.0431C18.748 18.753 19.2841 18.4324 19.6162 18.1271C19.9471 17.8229 19.9999 17.6092 20 17.5002C19.9998 17.3441 19.8713 16.9651 19.0879 16.4836C18.3457 16.0274 17.222 15.6187 15.8105 15.3459C15.2685 15.2411 14.9141 14.717 15.0186 14.175Z" fill="black"/>
<path fill-rule="evenodd" clip-rule="evenodd" d="M9.17188 3.17106C10.7338 1.6108 13.2653 1.60914 14.8281 3.17204C16.39 4.73435 16.391 7.26777 14.8281 8.82926C14.3039 9.35289 13.6696 9.69985 13 9.87223V17.0002C12.9998 17.5523 12.5522 18.0002 12 18.0002C11.4478 18.0002 11.0002 17.5523 11 17.0002V9.87321C10.33 9.70109 9.69544 9.35332 9.1709 8.82829C7.61092 7.26657 7.60863 4.73309 9.17188 3.17106ZM13.4141 4.5861C12.6331 3.80513 11.3669 3.80492 10.585 4.5861C9.80499 5.36572 9.80471 6.63316 10.5859 7.4152C11.3653 8.19506 12.6321 8.19514 13.4141 7.41422C14.1947 6.63432 14.1953 5.36776 13.4141 4.5861Z" fill="black"/>
</svg>
