<svg width="24" height="24" viewBox="0 0 24 24" fill="none" xmlns="http://www.w3.org/2000/svg">
<path d="M15.0186 14.1746C15.1233 13.6325 15.6473 13.2779 16.1895 13.3826C17.7414 13.6825 19.1178 14.155 20.1348 14.7801C21.1095 15.3793 21.9998 16.2816 22 17.4998C22 18.3573 21.5491 19.0656 20.9697 19.5984C20.3911 20.1305 19.6088 20.5639 18.7266 20.907C16.9557 21.5956 14.577 21.9998 12 21.9998C9.42296 21.9998 7.04433 21.5956 5.27344 20.907C4.39124 20.5639 3.60894 20.1305 3.03027 19.5984C2.45083 19.0656 2 18.3573 2 17.4998C2.00019 16.2816 2.89044 15.3793 3.86523 14.7801C4.88217 14.155 6.25874 13.6825 7.81055 13.3826C8.35272 13.2779 8.87667 13.6325 8.98145 14.1746C9.08604 14.7168 8.73159 15.2407 8.18945 15.3455C6.77794 15.6183 5.65427 16.027 4.91211 16.4832C4.12865 16.9649 4.00021 17.3437 4 17.4998C4 17.6087 4.05249 17.8222 4.38379 18.1268C4.71586 18.4321 5.25189 18.7525 5.99805 19.0428C7.48452 19.6208 9.60648 19.9998 12 19.9998C14.3935 19.9998 16.5155 19.6208 18.002 19.0428C18.7481 18.7525 19.2842 18.4321 19.6162 18.1268C19.9475 17.8222 20 17.6087 20 17.4998C19.9998 17.3437 19.8713 16.9649 19.0879 16.4832C18.3457 16.027 17.2221 15.6183 15.8105 15.3455C15.2684 15.2407 14.914 14.7168 15.0186 14.1746Z" fill="black"/>
<path d="M9.17188 3.1707C10.7338 1.61042 13.2654 1.60878 14.8281 3.17168C16.3901 4.73398 16.3911 7.26736 14.8281 8.82891C14.3038 9.35271 13.6698 9.70048 13 9.87285V16.9998C13 17.5521 12.5523 17.9998 12 17.9998C11.4477 17.9998 11 17.5521 11 16.9998V9.87383C10.3298 9.70171 9.69553 9.35312 9.1709 8.82793C7.61084 7.26615 7.60844 4.73273 9.17188 3.1707Z" fill="black"/>
</svg>
