<svg width="24" height="24" viewBox="0 0 24 24" fill="none" xmlns="http://www.w3.org/2000/svg">
<path fill-rule="evenodd" clip-rule="evenodd" d="M12 6.2002C14.2092 6.2002 16 7.99106 16 10.2002C16 12.4093 14.2092 14.2002 12 14.2002C9.79079 14.2002 8 12.4093 8 10.2002C8 7.99106 9.79081 6.2002 12 6.2002ZM12 8.2002C10.8954 8.2002 10 9.09561 10 10.2002C10 11.3047 10.8954 12.2002 12 12.2002C13.1046 12.2002 14 11.3047 14 10.2002C14 9.09561 13.1046 8.2002 12 8.2002Z" fill="black"/>
<path fill-rule="evenodd" clip-rule="evenodd" d="M12.001 2C16.5296 2.00009 20.2012 5.67151 20.2012 10.2002C20.2011 12.7289 18.8682 14.6525 17.501 16.2686C17.1562 16.6761 16.7992 17.0752 16.4541 17.4609C16.1057 17.8504 15.7692 18.2268 15.4492 18.6055C14.8071 19.3653 14.2677 20.0936 13.8955 20.8496L13.8838 20.873L13.8711 20.8955C13.4977 21.5628 12.7906 21.9999 12.001 22C11.2529 22 10.4784 21.6047 10.1064 20.8496C9.73419 20.0936 9.19396 19.3654 8.55176 18.6055C8.23175 18.2268 7.89529 17.8504 7.54688 17.4609C7.20176 17.0752 6.84483 16.6761 6.5 16.2686C5.13274 14.6525 3.80085 12.7289 3.80078 10.2002C3.80078 5.67146 7.47222 2 12.001 2ZM12.001 4C8.57679 4 5.80078 6.77603 5.80078 10.2002C5.80085 11.9789 6.71908 13.4302 8.02734 14.9766C8.35133 15.3595 8.6897 15.7385 9.03809 16.1279C9.38316 16.5137 9.73892 16.9107 10.0801 17.3145C10.7603 18.1194 11.4215 18.9932 11.9004 19.9658C11.8982 19.9615 11.8997 19.9688 11.918 19.9795C11.938 19.991 11.9679 20 12.001 20C12.0417 19.9999 12.094 19.9761 12.126 19.9189C12.6029 18.9653 13.2526 18.1064 13.9219 17.3145C14.2631 16.9107 14.6187 16.5137 14.9639 16.1279C15.3123 15.7385 15.6506 15.3595 15.9746 14.9766C17.2828 13.4303 18.2011 11.9789 18.2012 10.2002C18.2012 6.77609 15.425 4.00009 12.001 4Z" fill="black"/>
</svg>
