<svg width="24" height="24" viewBox="0 0 24 24" fill="none" xmlns="http://www.w3.org/2000/svg">
<path fill-rule="evenodd" clip-rule="evenodd" d="M6 3C8.20914 3 10 4.79086 10 7C10 7.46138 9.92205 7.905 9.77832 8.31738L13.5 10.7979L19.6133 6.72266C20.5323 6.10997 21.774 6.35832 22.3867 7.27734L9.77832 15.6826C9.92205 16.095 10 16.5386 10 17C10 19.2091 8.20914 21 6 21C3.79086 21 2 19.2091 2 17C2 14.7909 3.79086 13 6 13C7.02505 13 7.96016 13.3855 8.66797 14.0195L11.6973 12L8.66797 9.98047C7.96015 10.6145 7.02505 11 6 11C3.79086 11 2 9.20914 2 7C2 4.79086 3.79086 3 6 3ZM6 15C4.89543 15 4 15.8954 4 17C4 18.1046 4.89543 19 6 19C7.10457 19 8 18.1046 8 17C8 15.8954 7.10457 15 6 15ZM6 5C4.89543 5 4 5.89543 4 7C4 8.10457 4.89543 9 6 9C7.10457 9 8 8.10457 8 7C8 5.89543 7.10457 5 6 5Z" fill="black"/>
<path d="M22.3867 16.7227C21.774 17.6417 20.5323 17.89 19.6133 17.2773L14.4014 13.8027L16.2041 12.6006L22.3867 16.7227Z" fill="black"/>
</svg>
