<svg width="24" height="24" viewBox="0 0 24 24" fill="none" xmlns="http://www.w3.org/2000/svg">
<path d="M11 7C13.2091 7 15 8.79086 15 11C15 13.2091 13.2091 15 11 15C8.79086 15 7 13.2091 7 11C7 8.79086 8.79086 7 11 7Z" fill="black"/>
<path fill-rule="evenodd" clip-rule="evenodd" d="M11 3C15.4183 3 19 6.58172 19 11C19 12.8485 18.3731 14.5507 17.3203 15.9053L20.707 19.293C21.0975 19.6835 21.0975 20.3165 20.707 20.707C20.3165 21.0975 19.6835 21.0975 19.293 20.707L15.9053 17.3203C14.5507 18.3731 12.8485 19 11 19C6.58172 19 3 15.4183 3 11C3 6.58172 6.58172 3 11 3ZM11 5C7.68629 5 5 7.68629 5 11C5 14.3137 7.68629 17 11 17C14.3137 17 17 14.3137 17 11C17 7.68629 14.3137 5 11 5Z" fill="black"/>
</svg>
