<svg width="24" height="24" viewBox="0 0 24 24" fill="none" xmlns="http://www.w3.org/2000/svg">
<path d="M14.499 2C15.3249 2 16.1202 2.13329 16.8633 2.37988C17.4968 2.59013 17.6146 3.38542 17.1426 3.85742L13.999 7C13.1709 7.82838 13.1709 9.17162 13.999 10C14.8273 10.8283 16.1706 10.8282 16.999 10L20.1426 6.85742C20.6145 6.38546 21.4088 6.50237 21.6191 7.13574C21.8658 7.87898 21.999 8.67398 21.999 9.5C21.999 13.6421 18.6412 17 14.499 17C13.466 16.9999 12.4815 16.7909 11.5859 16.4131L6.51757 21.4824C5.54126 22.4587 3.95775 22.4587 2.98144 21.4824L2.51757 21.0176C1.54126 20.0413 1.54126 18.4587 2.51757 17.4824L7.58593 12.4131C7.2081 11.5175 6.99902 10.5331 6.99902 9.5C6.99902 5.35799 10.3571 2.00022 14.499 2Z" fill="black"/>
</svg>
