<svg width="24" height="24" viewBox="0 0 24 24" fill="none" xmlns="http://www.w3.org/2000/svg">
<path fill-rule="evenodd" clip-rule="evenodd" d="M12 8C14.2092 8 16 9.79082 16 12C16 14.2092 14.2092 16 12 16C9.79082 16 8 14.2092 8 12C8 9.79082 9.79082 8 12 8ZM12 10C10.8954 10 10 10.8954 10 12C10 13.1046 10.8954 14 12 14C13.1046 14 14 13.1046 14 12C14 10.8954 13.1046 10 12 10Z" fill="black"/>
<path fill-rule="evenodd" clip-rule="evenodd" d="M12 2C12.8967 2 13.7341 2.44835 14.2314 3.19434L14.7861 4.02637C15.0044 4.3536 15.4028 4.51131 15.7861 4.42285L16.4697 4.26562C17.3843 4.05456 18.3431 4.32945 19.0068 4.99316C19.6705 5.65685 19.9454 6.61568 19.7344 7.53027L19.5771 8.21484C19.489 8.59793 19.6465 8.99562 19.9736 9.21387L20.8057 9.76855C21.5516 10.2659 22 11.1033 22 12C22 12.8967 21.5516 13.7341 20.8057 14.2314L19.9736 14.7861C19.6465 15.0044 19.489 15.4021 19.5771 15.7852L19.7344 16.4697C19.9454 17.3843 19.6705 18.3432 19.0068 19.0068C18.3432 19.6705 17.3843 19.9454 16.4697 19.7344L15.7852 19.5771C15.4021 19.489 15.0044 19.6465 14.7861 19.9736L14.2314 20.8057C13.7341 21.5516 12.8967 22 12 22C11.1033 22 10.2659 21.5516 9.76855 20.8057L9.21387 19.9736C8.99553 19.6464 8.59712 19.4877 8.21387 19.5762L7.53027 19.7344C6.61567 19.9454 5.65685 19.6705 4.99316 19.0068C4.32945 18.3431 4.05456 17.3843 4.26562 16.4697L4.42285 15.7861C4.5113 15.4028 4.3536 15.0044 4.02637 14.7861L3.19434 14.2314C2.44834 13.7341 2 12.8967 2 12C2 11.1033 2.44834 10.2659 3.19434 9.76855L4.02637 9.21387C4.3536 8.99558 4.51131 8.59718 4.42285 8.21387L4.26562 7.53027C4.05457 6.61568 4.32945 5.65688 4.99316 4.99316C5.65688 4.32945 6.61569 4.05457 7.53027 4.26562L8.21387 4.42285C8.59716 4.51131 8.99557 4.3536 9.21387 4.02637L9.76855 3.19434C10.2659 2.44834 11.1033 2 12 2ZM12 4C11.7721 4 11.5591 4.11403 11.4326 4.30371L10.8779 5.13574C10.1982 6.15513 8.95852 6.64753 7.76465 6.37207L7.08008 6.21387C6.83748 6.15797 6.58327 6.23118 6.40723 6.40723C6.23118 6.58327 6.15797 6.83747 6.21387 7.08008L6.37207 7.76465C6.64752 8.95852 6.15513 10.1982 5.13574 10.8779L4.30371 11.4326C4.11403 11.5591 4 11.7721 4 12C4 12.2279 4.11403 12.4409 4.30371 12.5674L5.13574 13.1221C6.15512 13.8018 6.64752 15.0415 6.37207 16.2354L6.21387 16.9199C6.15795 17.1625 6.23117 17.4167 6.40723 17.5928C6.58329 17.7688 6.83749 17.842 7.08008 17.7861L7.76465 17.6279L7.98926 17.585C9.11161 17.416 10.2408 17.9088 10.8779 18.8643L11.4326 19.6963C11.5591 19.8859 11.7721 20 12 20C12.2279 20 12.4409 19.8859 12.5674 19.6963L13.1221 18.8643C13.8018 17.845 15.0414 17.3525 16.2354 17.6279L16.9199 17.7861C17.1625 17.842 17.4167 17.7689 17.5928 17.5928C17.7689 17.4167 17.842 17.1625 17.7861 16.9199L17.6279 16.2354C17.3525 15.0414 17.845 13.8018 18.8643 13.1221L19.6963 12.5674C19.8859 12.4409 20 12.2279 20 12C20 11.7721 19.8859 11.5591 19.6963 11.4326L18.8643 10.8779C17.845 10.1982 17.3525 8.95861 17.6279 7.76465L17.7861 7.08008C17.842 6.8375 17.7688 6.58329 17.5928 6.40723C17.4167 6.23117 17.1625 6.15795 16.9199 6.21387L16.2354 6.37207C15.0415 6.64753 13.8018 6.15512 13.1221 5.13574L12.5674 4.30371C12.4409 4.11403 12.2279 4 12 4Z" fill="black"/>
</svg>
