<svg width="24" height="24" viewBox="0 0 24 24" fill="none" xmlns="http://www.w3.org/2000/svg">
<path fill-rule="evenodd" clip-rule="evenodd" d="M9 13C10.8645 13 12.4302 14.2744 12.874 16H20C20.5523 16 21 16.4477 21 17C21 17.5523 20.5523 18 20 18H12.874C12.4302 19.7256 10.8645 21 9 21C7.13554 21 5.56982 19.7256 5.12598 18H4C3.44772 18 3 17.5523 3 17C3 16.4477 3.44772 16 4 16H5.12598C5.56982 14.2744 7.13554 13 9 13ZM9 15C7.89479 15 7 15.8948 7 17C7 18.1052 7.89478 19 9 19C10.1052 19 11 18.1052 11 17C11 15.8948 10.1052 15 9 15Z" fill="black"/>
<path fill-rule="evenodd" clip-rule="evenodd" d="M15 3C16.8645 3 18.4302 4.27443 18.874 6H20C20.5523 6 21 6.44772 21 7C21 7.55228 20.5523 8 20 8H18.874C18.4302 9.72557 16.8645 11 15 11C13.1355 11 11.5698 9.72557 11.126 8H4C3.44772 8 3 7.55228 3 7C3 6.44772 3.44772 6 4 6H11.126C11.5698 4.27443 13.1355 3 15 3ZM15 5C13.8948 5 13 5.89478 13 7C13 8.10521 13.8948 9 15 9C16.1052 9 17 8.10521 17 7C17 5.89479 16.1052 5 15 5Z" fill="black"/>
</svg>
