<svg width="24" height="24" viewBox="0 0 24 24" fill="none" xmlns="http://www.w3.org/2000/svg">
<path fill-rule="evenodd" clip-rule="evenodd" d="M14.5001 2C15.3631 2.00004 16.1946 2.1462 16.9689 2.41602C17.2937 2.52935 17.5376 2.80234 17.6144 3.1377C17.6909 3.47293 17.5899 3.82415 17.3468 4.06738L14.7071 6.70703C13.9931 7.42107 13.9931 8.57893 14.7071 9.29297C15.4212 10.0069 16.5791 10.007 17.2931 9.29297L19.9327 6.65332L20.0284 6.56836C20.2633 6.38719 20.569 6.31861 20.8624 6.38574C21.1979 6.46256 21.4709 6.70628 21.5841 7.03125C21.8539 7.80562 22.0001 8.63686 22.0001 9.5C22.0001 13.6421 18.6421 16.9998 14.5001 17C13.7193 17 12.9647 16.8796 12.255 16.6572L7.87121 21.043C6.69965 22.2145 4.79962 22.2144 3.62805 21.043L2.95715 20.3711C1.78556 19.1996 1.78557 17.3004 2.95715 16.1289L7.34191 11.7422C7.12003 11.0332 7.00012 10.2799 7.00012 9.5C7.00012 5.35787 10.3579 2 14.5001 2ZM14.5001 4C11.4625 4 9.00012 6.46243 9.00012 9.5C9.00012 10.2518 9.14979 10.9662 9.42102 11.6162C9.57712 11.9903 9.49183 12.4213 9.20519 12.708L4.37121 17.543C3.98071 17.9334 3.98071 18.5666 4.37121 18.957L5.04309 19.6289C5.43364 20.0191 6.06673 20.0193 6.45715 19.6289L11.2911 14.7939C11.5778 14.5073 12.0098 14.422 12.3839 14.5781C13.0339 14.8493 13.7483 15 14.5001 15C17.5376 14.9998 20.0001 12.5375 20.0001 9.5C20.0001 9.47162 19.9986 9.44331 19.9982 9.41504L18.7071 10.707C17.2121 12.2021 14.7882 12.202 13.2931 10.707C11.7979 9.21194 11.7979 6.78806 13.2931 5.29297L14.5841 4.00098C14.5562 4.00056 14.5281 4 14.5001 4Z" fill="black"/>
</svg>
