<svg width="24" height="24" viewBox="0 0 24 24" fill="none" xmlns="http://www.w3.org/2000/svg">
<path d="M20 13.7497C20.5523 13.7497 21 14.1975 21 14.7497V17.9997C21 19.6566 19.6569 20.9997 18 20.9997H6C4.34315 20.9997 3 19.6566 3 17.9997V14.7497C3.00001 14.1975 3.44772 13.7497 4 13.7497C4.55228 13.7497 4.99999 14.1975 5 14.7497V17.9997C5 18.552 5.44771 18.9997 6 18.9997H18C18.5523 18.9997 19 18.5521 19 17.9997V14.7497C19 14.1975 19.4477 13.7497 20 13.7497Z" fill="black"/>
<path d="M11.3691 3.22435C11.7619 2.90401 12.3409 2.92661 12.707 3.29271L17.207 7.79271C17.5976 8.18323 17.5975 8.81625 17.207 9.20677C16.8165 9.5973 16.1835 9.5973 15.793 9.20677L13 6.4138V15.2497C13 15.802 12.5523 16.2497 12 16.2497C11.4477 16.2497 11 15.802 11 15.2497V6.4138L8.20703 9.20677C7.81651 9.5973 7.18349 9.5973 6.79297 9.20677C6.40245 8.81625 6.40245 8.18323 6.79297 7.79271L11.293 3.29271L11.3691 3.22435Z" fill="black"/>
</svg>
