<svg width="24" height="24" viewBox="0 0 24 24" fill="none" xmlns="http://www.w3.org/2000/svg">
<path d="M7 8C7.55228 8 8 8.44772 8 9V15C8 15.5523 7.55228 16 7 16C6.44772 16 6 15.5523 6 15V9C6 8.44772 6.44772 8 7 8Z" fill="black"/>
<path fill-rule="evenodd" clip-rule="evenodd" d="M19 4C20.6569 4 22 5.34316 22 7V17C22 18.6569 20.6569 20 19 20H5C3.34316 20 2 18.6569 2 17V7C2 5.34315 3.34315 4 5 4H19ZM5 6C4.44771 6 4 6.44771 4 7V17C4 17.5523 4.44771 18 5 18H19C19.5523 18 20 17.5523 20 17V7C20 6.44771 19.5523 6 19 6H5Z" fill="black"/>
</svg>
