<svg width="24" height="24" viewBox="0 0 24 24" fill="none" xmlns="http://www.w3.org/2000/svg">
<path d="M12 2C12.4416 2 12.8311 2.28991 12.958 2.71289C13.6774 5.11056 14.6096 6.82055 15.8945 8.10547C17.1795 9.3904 18.8894 10.3226 21.2871 11.042C21.7101 11.1689 22 11.5584 22 12C22 12.4416 21.7101 12.8311 21.2871 12.958C18.8894 13.6774 17.1795 14.6096 15.8945 15.8945C14.6096 17.1795 13.6774 18.8894 12.958 21.2871C12.8311 21.7101 12.4416 22 12 22C11.5584 22 11.1689 21.7101 11.042 21.2871C10.3226 18.8894 9.3904 17.1795 8.10547 15.8945C6.82055 14.6096 5.11056 13.6774 2.71289 12.958C2.28991 12.8311 2 12.4416 2 12C2 11.5584 2.28991 11.1689 2.71289 11.042C5.11055 10.3226 6.82055 9.39039 8.10547 8.10547C9.39039 6.82055 10.3226 5.11055 11.042 2.71289C11.1689 2.28991 11.5584 2 12 2Z" fill="black"/>
</svg>
