<svg width="24" height="24" viewBox="0 0 24 24" fill="none" xmlns="http://www.w3.org/2000/svg">
<path fill-rule="evenodd" clip-rule="evenodd" d="M12 2C12.4416 2 12.8311 2.28991 12.958 2.71289C13.6773 5.11055 14.6096 6.82055 15.8945 8.10547C17.1795 9.39039 18.8894 10.3227 21.2871 11.042C21.7101 11.1689 22 11.5584 22 12C22 12.4416 21.7101 12.8311 21.2871 12.958C18.8894 13.6773 17.1795 14.6096 15.8945 15.8945C14.6096 17.1795 13.6773 18.8894 12.958 21.2871C12.8311 21.7101 12.4416 22 12 22C11.5584 22 11.1689 21.7101 11.042 21.2871C10.3227 18.8894 9.39039 17.1795 8.10547 15.8945C6.82055 14.6096 5.11055 13.6773 2.71289 12.958C2.28991 12.8311 2 12.4416 2 12C2 11.5584 2.28991 11.1689 2.71289 11.042C5.11055 10.3227 6.82055 9.39039 8.10547 8.10547C9.39039 6.82055 10.3227 5.11055 11.042 2.71289C11.1689 2.28991 11.5584 2 12 2ZM12 5.86426C11.3471 7.28842 10.5418 8.49722 9.51953 9.51953C8.49722 10.5418 7.28842 11.3471 5.86426 12C7.28842 12.6529 8.49722 13.4582 9.51953 14.4805C10.5416 15.5026 11.3471 16.7109 12 18.1348C12.6529 16.7109 13.4584 15.5026 14.4805 14.4805C15.5026 13.4584 16.7109 12.6529 18.1348 12C16.7109 11.3471 15.5026 10.5416 14.4805 9.51953C13.4582 8.49722 12.6529 7.28842 12 5.86426Z" fill="black"/>
</svg>
