<svg width="24" height="24" viewBox="0 0 24 24" fill="none" xmlns="http://www.w3.org/2000/svg">
<path fill-rule="evenodd" clip-rule="evenodd" d="M10.6268 1.86244C11.1617 0.748779 12.7183 0.713988 13.3172 1.75795L13.3729 1.86244L15.7342 6.77944L21.1756 7.49135C22.4368 7.65678 22.961 9.21537 22.0223 10.1007L18.0457 13.8498L19.0447 19.2023C19.2815 20.4729 17.9356 21.4158 16.824 20.8165L11.9998 18.215L7.17462 20.8156L7.1756 20.8165C6.06401 21.4159 4.7182 20.4728 4.95489 19.2023L5.95294 13.8498L1.97735 10.1007C1.03829 9.21524 1.56293 7.65673 2.82403 7.49135L8.26544 6.77944L10.6268 1.86244ZM9.95587 7.88002C9.73248 8.34476 9.28894 8.66209 8.78107 8.72866L4.08868 9.34291L7.51642 12.5753L7.64728 12.715C7.92988 13.0582 8.05051 13.5124 7.96759 13.9572L7.10528 18.5812L11.2762 16.3331C11.6711 16.1203 12.137 16.0936 12.5496 16.2531L12.7234 16.3331L16.8934 18.5812L16.032 13.9572C15.9372 13.4486 16.1089 12.9284 16.4832 12.5753L19.91 9.34291L15.2186 8.72866C14.7106 8.6621 14.2671 8.3447 14.0438 7.88002L11.9998 3.62514L9.95587 7.88002Z" fill="black"/>
</svg>
