<svg width="24" height="24" viewBox="0 0 24 24" fill="none" xmlns="http://www.w3.org/2000/svg">
<path d="M11.9997 13.75C12.6901 13.75 13.2497 14.3096 13.2497 15C13.2496 15.6903 12.69 16.25 11.9997 16.25C11.3095 16.2498 10.7498 15.6902 10.7497 15C10.7497 14.3098 11.3095 13.7502 11.9997 13.75Z" fill="black"/>
<path d="M11.9997 8.01955C12.552 8.01955 12.9997 8.46726 12.9997 9.01955V12.0137C12.9995 12.5658 12.5518 13.0137 11.9997 13.0137C11.4477 13.0135 10.9999 12.5657 10.9997 12.0137V9.01955C10.9997 8.46738 11.4476 8.01974 11.9997 8.01955Z" fill="black"/>
<path fill-rule="evenodd" clip-rule="evenodd" d="M9.41278 3.48634C10.5686 1.50474 13.4308 1.50477 14.5866 3.48634L21.5886 15.4942C22.7527 17.4909 21.3139 19.9998 19.0016 20H4.99774C2.68581 19.9995 1.24692 17.4907 2.41082 15.4942L9.41278 3.48634ZM12.8591 4.49416C12.475 3.83551 11.5244 3.83548 11.1403 4.49416L4.13836 16.502C3.75136 17.1665 4.23074 17.9995 4.99774 18H19.0016C19.7211 17.9998 20.1875 17.2672 19.9235 16.6279L19.861 16.502L12.8591 4.49416Z" fill="black"/>
</svg>
