<svg width="24" height="24" viewBox="0 0 24 24" fill="none" xmlns="http://www.w3.org/2000/svg">
<path d="M12 15C12.5523 15 13 15.4477 13 16V16.0098C13 16.562 12.5523 17.0098 12 17.0098C11.4477 17.0098 11 16.5621 11 16.0098V16C11 15.4477 11.4477 15 12 15Z" fill="black"/>
<path d="M12 7C13.6569 7.00001 15 8.34316 15 10C15 10.6733 14.8197 11.222 14.4805 11.6631C14.1671 12.0705 13.7662 12.3145 13.5186 12.4648C13.2192 12.6466 13.1207 12.7082 13.0537 12.7822C13.0395 12.7979 13 12.8279 13 13C13 13.5523 12.5523 14 12 14C11.4477 14 11 13.5523 11 13C11 12.3526 11.2105 11.8391 11.5713 11.4404C11.8791 11.1004 12.2802 10.8765 12.4805 10.7549C12.7327 10.6017 12.8329 10.5234 12.8945 10.4434C12.9302 10.3969 13 10.2926 13 10C13 9.44771 12.5523 9.00001 12 9C11.6311 9.00002 11.3072 9.19947 11.1328 9.50098C10.8562 9.97875 10.2445 10.1417 9.7666 9.86523C9.28885 9.58859 9.1259 8.97695 9.40234 8.49902C9.91957 7.60515 10.8884 7.00002 12 7Z" fill="black"/>
<path fill-rule="evenodd" clip-rule="evenodd" d="M12 2C17.5229 2 22 6.47716 22 12C22 17.5229 17.5229 22 12 22C6.47716 22 2 17.5229 2 12C2 6.47716 6.47716 2 12 2ZM12 4C7.58173 4 4 7.58173 4 12C4 16.4183 7.58172 20 12 20C16.4183 20 20 16.4183 20 12C20 7.58172 16.4183 4 12 4Z" fill="black"/>
</svg>
