<svg width="24" height="24" viewBox="0 0 24 24" fill="none" xmlns="http://www.w3.org/2000/svg">
<path fill-rule="evenodd" clip-rule="evenodd" d="M12 2C17.5228 2 22 6.47715 22 12C22 17.5228 17.5228 22 12 22C6.47715 22 2 17.5228 2 12C2 6.47715 6.47715 2 12 2ZM12 15C11.4477 15 11 15.4477 11 16C11 16.5523 11.4477 17 12 17C12.5523 17 13 16.5523 13 16C13 15.4477 12.5523 15 12 15ZM12 7C10.8627 7 9.87508 7.63325 9.36719 8.56152C9.10217 9.04606 9.28011 9.65392 9.76465 9.91895C10.2491 10.1837 10.8561 10.0059 11.1211 9.52148C11.2922 9.20856 11.6227 9 12 9C12.5281 9 12.8349 9.31392 12.9277 9.67969C13.0188 10.0393 12.902 10.4308 12.4473 10.6582C11.5604 11.1016 11 12.0084 11 13C11 13.5523 11.4477 14 12 14C12.5523 14 13 13.5523 13 13C13 12.7659 13.1325 12.552 13.3418 12.4473C14.7101 11.7631 15.1672 10.3782 14.8662 9.18945C14.5667 8.00688 13.5148 7 12 7Z" fill="black"/>
</svg>
