<svg width="24" height="24" viewBox="0 0 24 24" fill="none" xmlns="http://www.w3.org/2000/svg">
<path fill-rule="evenodd" clip-rule="evenodd" d="M9.40767 3.45744C10.5653 1.47307 13.4327 1.47311 14.5903 3.45744L21.6088 15.4887C22.775 17.4885 21.3322 20.0004 19.017 20.0004H4.98092C2.66573 20.0002 1.2236 17.4885 2.3901 15.4887L9.40767 3.45744ZM12.0004 13.7504C11.31 13.7504 10.7504 14.31 10.7504 15.0004C10.7507 15.6906 11.3102 16.2504 12.0004 16.2504C12.6905 16.2502 13.2502 15.6905 13.2504 15.0004C13.2504 14.3101 12.6907 13.7506 12.0004 13.7504ZM12.0004 8.00041C11.4481 8.00041 11.0004 8.44813 11.0004 9.00041V12.0004C11.0007 12.5525 11.4483 13.0004 12.0004 13.0004C12.5524 13.0002 13.0002 12.5524 13.0004 12.0004V9.00041C13.0004 8.44826 12.5526 8.00061 12.0004 8.00041Z" fill="black"/>
</svg>
