<svg width="24" height="24" viewBox="0 0 24 24" fill="none" xmlns="http://www.w3.org/2000/svg">
<path d="M12 20C12.5523 20 13 20.4477 13 21V22C13 22.5523 12.5523 23 12 23C11.4477 23 11 22.5523 11 22V21C11 20.4477 11.4477 20 12 20Z" fill="black"/>
<path d="M4.93262 17.6533C5.32314 17.2628 5.95714 17.2628 6.34766 17.6533C6.73777 18.0438 6.738 18.677 6.34766 19.0674L5.6377 19.7773C5.24718 20.1678 4.61318 20.1678 4.22266 19.7773C3.83235 19.387 3.83256 18.7538 4.22266 18.3633L4.93262 17.6533Z" fill="black"/>
<path d="M17.6523 17.6533C18.0429 17.2628 18.6769 17.2628 19.0674 17.6533L19.7773 18.3633C20.1675 18.7538 20.1677 19.387 19.7773 19.7773C19.3867 20.1678 18.7529 20.1678 18.3623 19.7773L17.6523 19.0674C17.262 18.677 17.2623 18.0438 17.6523 17.6533Z" fill="black"/>
<path d="M7.75781 7.75781C10.101 5.41466 13.8991 5.41466 16.2422 7.75781C18.5854 10.101 18.5854 13.8991 16.2422 16.2422C13.8991 18.5854 10.101 18.5854 7.75781 16.2422C5.41466 13.8991 5.41466 10.101 7.75781 7.75781Z" fill="black"/>
<path d="M3 11C3.55228 11 4 11.4477 4 12C4 12.5523 3.55228 13 3 13H2C1.44772 13 1 12.5523 1 12C1 11.4477 1.44772 11 2 11H3Z" fill="black"/>
<path d="M22 11C22.5523 11 23 11.4477 23 12C23 12.5523 22.5523 13 22 13H21C20.4477 13 20 12.5523 20 12C20 11.4477 20.4477 11 21 11H22Z" fill="black"/>
<path d="M4.22266 4.22266C4.61318 3.83213 5.24718 3.83213 5.6377 4.22266L6.34766 4.93262C6.73802 5.323 6.73775 5.95613 6.34766 6.34668C5.95714 6.7372 5.32314 6.7372 4.93262 6.34668L4.22266 5.63672C3.83258 5.24618 3.83234 4.61304 4.22266 4.22266Z" fill="black"/>
<path d="M18.3623 4.22266C18.7529 3.83213 19.3867 3.83213 19.7773 4.22266C20.1677 4.61305 20.1675 5.24617 19.7773 5.63672L19.0674 6.34668C18.6769 6.7372 18.0429 6.7372 17.6523 6.34668C17.2623 5.95613 17.262 5.32299 17.6523 4.93262L18.3623 4.22266Z" fill="black"/>
<path d="M12 1C12.5523 1 13 1.44772 13 2V3C13 3.55228 12.5523 4 12 4C11.4477 4 11 3.55228 11 3V2C11 1.44772 11.4477 1 12 1Z" fill="black"/>
</svg>
