<svg width="24" height="24" viewBox="0 0 24 24" fill="none" xmlns="http://www.w3.org/2000/svg">
<path fill-rule="evenodd" clip-rule="evenodd" d="M13.124 2.00784L13.5781 2.06448C16.0451 2.37307 17.6355 4.83371 16.9043 7.20999L16.3535 9.00003H18C20.5633 9.00003 22.465 11.3772 21.9023 13.878L21.0576 17.6328C20.622 19.5684 19.0505 21.1712 16.96 21.3526C14.234 21.5888 11.4867 21.392 8.83594 20.4268C8.58963 20.3371 8.36698 20.2147 8.16699 20.0694C7.62073 20.6412 6.85329 21 6 21H5C3.34317 21 2.00002 19.6569 2 18V12C2 10.3431 3.34315 9.00003 5 9.00003H6C6.53398 9.00003 7.0344 9.14122 7.46875 9.38577C7.65517 9.0293 7.89182 8.70051 8.16797 8.40921C9.80879 6.67831 11.171 4.78316 12.0771 2.61429L12.1533 2.46682C12.3573 2.14259 12.7342 1.95911 13.124 2.00784ZM13.6016 4.10354C12.5936 6.24653 11.2049 8.11236 9.61914 9.78518C9.22091 10.2053 9.00007 10.7363 9 11.2696V17.7256C9.00019 18.134 9.23038 18.4424 9.51953 18.5479C11.8278 19.3884 14.2689 19.5786 16.7871 19.3604C17.8987 19.2639 18.8364 18.3934 19.1064 17.1934L19.9512 13.4395C20.2325 12.1891 19.2816 11 18 11H15C14.6827 11 14.3838 10.849 14.1953 10.5938C14.007 10.3386 13.9508 10.0092 14.0439 9.70608L14.9932 6.6221C15.3311 5.52386 14.6767 4.39073 13.6016 4.10354ZM5 11C4.44771 11 4 11.4477 4 12V18C4.00002 18.5523 4.44772 19 5 19H6C6.55228 19 6.99998 18.5523 7 18V12C7 11.4477 6.55229 11 6 11H5Z" fill="black"/>
</svg>
