<svg width="24" height="24" viewBox="0 0 24 24" fill="none" xmlns="http://www.w3.org/2000/svg">
<path fill-rule="evenodd" clip-rule="evenodd" d="M7.04242 2.64752C9.76822 2.41139 12.5158 2.60811 15.1664 3.5733C15.4116 3.66265 15.6333 3.78425 15.8325 3.92877C16.3787 3.35731 17.1475 3.00006 18.0004 3.00006H19.0004C20.6571 3.00029 22.0004 4.34336 22.0004 6.00006V12.0001C22.0004 13.6568 20.6571 14.9998 19.0004 15.0001H18.0004C17.4663 15.0001 16.9651 14.859 16.5307 14.6143C16.3446 14.9703 16.1102 15.2999 15.8344 15.5909C14.1935 17.3218 12.8305 19.2168 11.9243 21.3858C11.7512 21.7999 11.3227 22.0477 10.8774 21.9922L10.4243 21.9356C7.95712 21.6272 6.36593 19.1665 7.09711 16.7901L7.64789 15.0001H6.00141C3.43824 14.9999 1.5365 12.6228 2.09906 10.1221L2.94379 6.36725C3.37949 4.43151 4.9517 2.82871 7.04242 2.64752ZM14.4819 5.45221C12.1738 4.61175 9.73311 4.42162 7.21527 4.63971C6.1036 4.73605 5.16501 5.60648 4.89496 6.8067L4.05023 10.5616C3.76931 11.8117 4.72009 12.9999 6.00141 13.0001H9.00141C9.31858 13.0002 9.61765 13.1512 9.80609 13.4063C9.99429 13.6614 10.0506 13.991 9.95746 14.294L9.00824 17.378C8.67039 18.4761 9.32507 19.6082 10.3998 19.8956C11.4078 17.7529 12.7968 15.8874 14.3823 14.2149C14.7804 13.7948 15.0013 13.2637 15.0014 12.7305V12.0381C15.0012 12.0255 15.0004 12.0128 15.0004 12.0001V6.26178C14.9954 5.85986 14.7678 5.5566 14.4819 5.45221ZM18.0004 5.00006C17.4481 5.00006 17.0004 5.44777 17.0004 6.00006V6.24811C17.0005 6.25716 17.0014 6.2664 17.0014 6.27545V12.0206C17.0124 12.5634 17.455 13.0001 18.0004 13.0001H19.0004C19.5525 12.9998 20.0004 12.5522 20.0004 12.0001V6.00006C20.0004 5.44791 19.5525 5.00029 19.0004 5.00006H18.0004Z" fill="black"/>
</svg>
