<svg width="24" height="24" viewBox="0 0 24 24" fill="none" xmlns="http://www.w3.org/2000/svg">
<path d="M12.0771 2.61489C12.2502 2.20056 12.6818 1.94171 13.1182 2.04751C16.6149 2.89542 15.4693 6.18405 15 8.99965H18C20.5631 8.99965 22.4647 11.377 21.9023 13.8776L21.0576 17.6325C20.6221 19.5682 19.0506 21.1708 16.96 21.3522C14.2341 21.5885 12.4866 21.3926 9.83594 20.4274C8.66398 20.0006 8.00003 18.8717 8 17.7252V11.2702C8 8.55535 10.9998 6.50008 12.0771 2.61489Z" fill="black"/>
<path d="M5 9.49965C6.10446 9.49965 6.99983 10.3952 7 11.4997V18.4997C7 19.6043 6.10457 20.4997 5 20.4997H4C2.89543 20.4997 2 19.6043 2 18.4997V11.4997C2.00017 10.3952 2.89554 9.49965 4 9.49965H5Z" fill="black"/>
</svg>
