<svg width="24" height="24" viewBox="0 0 24 24" fill="none" xmlns="http://www.w3.org/2000/svg">
<path d="M7.04239 2.64738C9.76827 2.41117 11.5156 2.6079 14.1664 3.57316C15.338 3.99999 16.0012 5.12818 16.0014 6.27433V12.7304C16.0012 15.4451 13.0015 17.5004 11.9242 21.3857C11.751 21.7998 11.3195 22.0578 10.8832 21.9521C7.3867 21.1039 8.53211 17.8155 9.00137 14.9999H6.00137C3.43823 14.9997 1.53646 12.6227 2.09903 10.122L2.94376 6.3671C3.37942 4.43131 4.95164 2.82857 7.04239 2.64738Z" fill="black"/>
<path d="M20.0014 3.49992C21.1059 3.49992 22.0013 4.39538 22.0014 5.49992V12.4999C22.0014 13.6045 21.1059 14.4999 20.0014 14.4999H19.0014C17.8969 14.4997 17.0014 13.6044 17.0014 12.4999V5.49992C17.0014 4.39549 17.897 3.50009 19.0014 3.49992H20.0014Z" fill="black"/>
</svg>
