<svg width="24" height="24" viewBox="0 0 24 24" fill="none" xmlns="http://www.w3.org/2000/svg">
<path fill-rule="evenodd" clip-rule="evenodd" d="M12 1.5C14.2395 1.5 16.1332 2.97149 16.7705 5H20.5C21.0523 5 21.5 5.44772 21.5 6C21.5 6.55228 21.0523 7 20.5 7H19.9678L19.126 19.2061C19.0175 20.7791 17.7095 22 16.1328 22H7.86719C6.29044 22 4.9825 20.7791 4.87402 19.2061L4.03223 7H3.5C2.94772 7 2.5 6.55228 2.5 6C2.5 5.44772 2.94772 5 3.5 5H7.22949C7.86688 2.97149 9.76056 1.5 12 1.5ZM10 10C9.44772 10 9 10.4477 9 11V16C9 16.5523 9.44772 17 10 17C10.5523 17 11 16.5523 11 16V11C11 10.4477 10.5523 10 10 10ZM14 10C13.4477 10 13 10.4477 13 11V16C13 16.5523 13.4477 17 14 17C14.5523 17 15 16.5523 15 16V11C15 10.4477 14.5523 10 14 10ZM12 3.5C10.8902 3.5 9.92024 4.10337 9.40137 5H14.5986C14.0797 4.10338 13.1098 3.5 12 3.5Z" fill="black"/>
</svg>
