<svg width="24" height="24" viewBox="0 0 24 24" fill="none" xmlns="http://www.w3.org/2000/svg">
<path d="M10 10C10.5523 10 11 10.4477 11 11V16C11 16.5523 10.5523 17 10 17C9.44772 17 9 16.5523 9 16V11C9 10.4477 9.44772 10 10 10Z" fill="black"/>
<path d="M14 10C14.5523 10 15 10.4477 15 11V16C15 16.5523 14.5523 17 14 17C13.4477 17 13 16.5523 13 16V11C13 10.4477 13.4477 10 14 10Z" fill="black"/>
<path fill-rule="evenodd" clip-rule="evenodd" d="M12 1.5C14.2393 1.50019 16.133 2.97168 16.7705 5H20.5C21.0523 5 21.5 5.44772 21.5 6C21.5 6.55228 21.0523 7 20.5 7H19.9678L19.126 19.2061C19.0175 20.7791 17.7095 22 16.1328 22H7.86719C6.29047 22 4.9825 20.7791 4.87402 19.2061L4.03223 7H3.5C2.94772 7 2.5 6.55228 2.5 6C2.5 5.44772 2.94772 5 3.5 5H7.22949C7.86688 2.97165 9.76069 1.50016 12 1.5ZM6.86914 19.0684C6.9053 19.5927 7.34162 20 7.86719 20H16.1328C16.6583 20 17.0947 19.5927 17.1309 19.0684L17.9629 7H6.03711L6.86914 19.0684ZM12 3.5C10.8907 3.50013 9.92221 4.10393 9.40332 5H14.5967C14.0776 4.10394 13.1093 3.50016 12 3.5Z" fill="black"/>
</svg>
