<svg width="24" height="24" viewBox="0 0 24 24" fill="none" xmlns="http://www.w3.org/2000/svg">
<path fill-rule="evenodd" clip-rule="evenodd" d="M12 6C14.2092 6 16 7.79088 16 10C16 12.2092 14.2092 14 12 14C9.79082 14 8 12.2092 8 10C8 7.79088 9.7908 6 12 6ZM12 8C10.8954 8 10 8.89542 10 10C10 11.1046 10.8954 12 12 12C13.1046 12 14 11.1046 14 10C14 8.89542 13.1046 8 12 8Z" fill="black"/>
<path fill-rule="evenodd" clip-rule="evenodd" d="M12 2C17.5229 2 22 6.47716 22 12C22 15.0235 20.6567 17.7342 18.5381 19.5664C16.7855 21.082 14.4987 22 12 22C9.50126 22 7.21445 21.082 5.46191 19.5664C3.34326 17.7342 2 15.0235 2 12C2 6.47716 6.47716 2 12 2ZM12 17C10.2094 17 8.70362 17.6366 7.58984 18.6748C8.85429 19.5122 10.3692 20 12 20C13.631 20 15.1456 19.5114 16.4102 18.6738C15.2964 17.6359 13.7904 17 12 17ZM12 4C7.58173 4 4 7.58173 4 12C4 14.0649 4.78291 15.9452 6.06836 17.3652C7.56251 15.8956 9.61274 15 12 15C14.387 15 16.4366 15.8959 17.9307 17.3652C19.2164 15.9452 20 14.0652 20 12C20 7.58172 16.4183 4 12 4Z" fill="black"/>
</svg>
