<svg width="24" height="24" viewBox="0 0 24 24" fill="none" xmlns="http://www.w3.org/2000/svg">
<path fill-rule="evenodd" clip-rule="evenodd" d="M9.00101 12C13.0074 12 16.5041 14.3445 17.6299 17.7178C17.9306 18.6187 17.6705 19.4806 17.1289 20.0801C16.6045 20.6605 15.8222 21 15.001 21H3.00101C2.17999 20.9999 1.39842 20.6604 0.874058 20.0801C0.332433 19.4805 0.0723468 18.6188 0.373082 17.7178C1.49886 14.3446 4.99471 12.0001 9.00101 12ZM9.00101 14C5.73115 14.0001 3.08559 15.9058 2.26957 18.3506C2.22068 18.497 2.24807 18.618 2.35746 18.7393C2.48436 18.8797 2.71779 18.9999 3.00101 19H15.001C15.2844 19 15.5176 18.8798 15.6446 18.7393C15.7542 18.6178 15.7824 18.4972 15.7334 18.3506C14.9174 15.9057 12.271 14 9.00101 14Z" fill="black"/>
<path d="M17.0577 13.1748C17.2421 12.6543 17.8135 12.3821 18.334 12.5664C20.8358 13.4526 22.8312 15.3273 23.6289 17.7178C23.9295 18.6186 23.6694 19.4806 23.128 20.0801C22.6035 20.6605 21.8212 21 21 21H20.5C19.9478 21 19.5 20.5523 19.5 20C19.5 19.4477 19.9478 19 20.5 19H21C21.2835 19 21.5166 18.8797 21.6436 18.7393C21.7531 18.6179 21.7804 18.4971 21.7315 18.3506C21.1536 16.6194 19.6655 15.1594 17.666 14.4512C17.1456 14.2667 16.8733 13.6953 17.0577 13.1748Z" fill="black"/>
<path fill-rule="evenodd" clip-rule="evenodd" d="M9.00003 2C11.4853 2.00001 13.5 4.01472 13.5 6.5C13.5 8.98528 11.4853 11 9.00003 11C6.51475 11 4.50003 8.98528 4.50003 6.5C4.50003 4.01472 6.51475 2 9.00003 2ZM9.00003 4C7.61932 4 6.50003 5.11928 6.50003 6.5C6.50003 7.88072 7.61932 9 9.00003 9C10.3807 8.99999 11.5 7.88071 11.5 6.5C11.5 5.11929 10.3807 4.00001 9.00003 4Z" fill="black"/>
<path d="M15 2C17.4853 2.00001 19.5 4.01472 19.5 6.5C19.5 8.98528 17.4853 11 15 11C14.4477 11 14 10.5523 14 10C14 9.44772 14.4477 9 15 9C16.3807 8.99999 17.5 7.88071 17.5 6.5C17.5 5.11929 16.3807 4.00001 15 4C14.4477 4 14 3.55228 14 3C14 2.44772 14.4477 2 15 2Z" fill="black"/>
</svg>
