<svg width="24" height="24" viewBox="0 0 24 24" fill="none" xmlns="http://www.w3.org/2000/svg">
<path d="M9.00209 12C13.0085 12.0001 16.5051 14.3447 17.631 17.7178C17.9315 18.6187 17.6705 19.4805 17.129 20.0801C16.6046 20.6604 15.8231 20.9999 15.0021 21H3.00209C2.18093 21 1.39861 20.6605 0.874164 20.0801C0.332625 19.4805 0.0725239 18.6187 0.373188 17.7178C1.49902 14.3446 4.99563 12 9.00209 12Z" fill="black"/>
<path d="M17.0587 13.1748C17.2431 12.6544 17.8146 12.3823 18.3351 12.5664C20.837 13.4525 22.8332 15.3274 23.631 17.7178C23.9316 18.6187 23.6706 19.4806 23.129 20.0801C22.6046 20.6604 21.8231 20.9999 21.0021 21H20.5021C19.9499 21 19.5021 20.5523 19.5021 20C19.5021 19.4477 19.9499 19 20.5021 19H21.0021C21.2854 18.9999 21.5187 18.8797 21.6456 18.7393C21.755 18.618 21.7825 18.497 21.7335 18.3506C21.1558 16.6194 19.6675 15.1595 17.6681 14.4512C17.1475 14.2668 16.8744 13.6954 17.0587 13.1748Z" fill="black"/>
<path d="M9.00112 2C11.4864 2 13.5011 4.01472 13.5011 6.5C13.5011 8.98528 11.4864 11 9.00112 11C6.51603 10.9998 4.50112 8.98514 4.50112 6.5C4.50112 4.01486 6.51603 2.00023 9.00112 2Z" fill="black"/>
<path d="M15.0011 2C17.4864 2 19.5011 4.01472 19.5011 6.5C19.5011 8.98528 17.4864 11 15.0011 11C14.449 10.9998 14.0011 10.5522 14.0011 10C14.0011 9.44786 14.449 9.00023 15.0011 9C16.3818 9 17.5011 7.88071 17.5011 6.5C17.5011 5.11929 16.3818 4 15.0011 4C14.449 3.99977 14.0011 3.55214 14.0011 3C14.0011 2.44786 14.449 2.00023 15.0011 2Z" fill="black"/>
</svg>
