<svg width="24" height="24" viewBox="0 0 24 24" fill="none" xmlns="http://www.w3.org/2000/svg">
<path d="M13.6808 9.17628C13.9975 8.72426 14.6211 8.61388 15.0734 8.93019C15.5256 9.24677 15.6357 9.87036 15.3195 10.3228L11.8195 15.3237C11.6566 15.5562 11.402 15.7095 11.1202 15.7437C10.8387 15.7777 10.5555 15.69 10.3419 15.5034L8.34192 13.7534C7.92639 13.3898 7.88383 12.757 8.24719 12.3413C8.61076 11.9262 9.24278 11.8835 9.65832 12.2466L10.8195 13.2632L13.6808 9.17628Z" fill="black"/>
<path fill-rule="evenodd" clip-rule="evenodd" d="M9.87805 2.70753C11.0496 1.53593 12.9497 1.53593 14.1212 2.70753L15.1212 3.70753C15.3088 3.89487 15.5632 4.0005 15.8282 4.0005H17.0001C18.6568 4.00073 20.0001 5.3438 20.0001 7.0005V8.1714C20.0002 8.4034 20.0809 8.62732 20.2267 8.80519L20.2931 8.87843L21.2931 9.87843C22.4643 11.05 22.4644 12.95 21.2931 14.1216L20.2931 15.1216C20.1057 15.309 20.0001 15.5633 20.0001 15.8286V17.0005C19.9998 18.657 18.6566 20.0003 17.0001 20.0005H15.8282C15.5632 20.0005 15.3089 20.1058 15.1212 20.2935L14.1212 21.2935C12.9497 22.4648 11.0495 22.4649 9.87805 21.2935L8.87805 20.2935C8.69046 20.106 8.43605 20.0005 8.17102 20.0005H7.00012C5.34347 20.0005 4.00044 18.6571 4.00012 17.0005V15.8286C4.00011 15.5966 3.91918 15.3727 3.77356 15.1948L3.70715 15.1216L2.70715 14.1216C1.53563 12.95 1.53566 11.0501 2.70715 9.87843L3.70715 8.87843C3.89442 8.69098 4.00006 8.43637 4.00012 8.1714V7.0005C4.00012 5.34364 5.34326 4.0005 7.00012 4.0005H8.17102C8.43601 4.00047 8.69059 3.89478 8.87805 3.70753L9.87805 2.70753ZM12.7072 4.12159C12.3167 3.73114 11.6836 3.73122 11.2931 4.12159L10.2931 5.12159C9.73051 5.68414 8.96659 6.00047 8.17102 6.0005H7.00012C6.44783 6.0005 6.00012 6.44821 6.00012 7.0005V8.1714C6.00006 8.96697 5.68376 9.73092 5.12121 10.2935L4.12121 11.2935C3.73091 11.6841 3.73074 12.317 4.12121 12.7075L5.12121 13.7075C5.68366 14.2701 6.00011 15.0331 6.00012 15.8286V17.0005C6.00044 17.5525 6.44802 18.0005 7.00012 18.0005H8.17102C8.86711 18.0005 9.53871 18.2421 10.0724 18.6792L10.2931 18.8784L11.2931 19.8784C11.6835 20.2687 12.3167 20.2688 12.7072 19.8784L13.7072 18.8784C14.2696 18.3162 15.0326 18.0005 15.8282 18.0005H17.0001C17.552 18.0003 17.9998 17.5524 18.0001 17.0005V15.8286C18.0001 15.0332 18.3156 14.2701 18.878 13.7075L19.878 12.7075C20.2685 12.317 20.2684 11.6841 19.878 11.2935L18.878 10.2935C18.3158 9.73095 18.0002 8.96669 18.0001 8.1714V7.0005C18.0001 6.44834 17.5522 6.00073 17.0001 6.0005H15.8282C15.0328 6.0005 14.2697 5.68397 13.7072 5.12159L12.7072 4.12159Z" fill="black"/>
</svg>
