<svg width="24" height="24" viewBox="0 0 24 24" fill="none" xmlns="http://www.w3.org/2000/svg">
<path fill-rule="evenodd" clip-rule="evenodd" d="M9.87795 2.70668C11.0495 1.53511 12.9495 1.5351 14.1211 2.70668L15.1211 3.70668C15.3087 3.89415 15.563 3.99965 15.8281 3.99965H16.999C18.6559 3.99965 19.999 5.34283 19.999 6.99965V8.17153C19.9991 8.43661 20.1046 8.69109 20.292 8.87856L21.292 9.87856C22.4636 11.0501 22.4636 12.9491 21.292 14.1207L20.292 15.1207C20.1046 15.3082 19.9991 15.5627 19.999 15.8278V16.9997C19.999 18.6566 18.6559 19.9997 16.999 19.9997H15.8281C15.563 19.9997 15.3087 20.1052 15.1211 20.2926L14.1211 21.2926C12.9495 22.4642 11.0496 22.4642 9.87795 21.2926L8.87795 20.2926C8.69042 20.1052 8.4361 19.9997 8.17092 19.9997H6.99904C5.34238 19.9994 3.99904 18.6564 3.99904 16.9997V15.8278C3.99894 15.5628 3.89445 15.3081 3.70705 15.1207L2.70705 14.1207C1.53547 12.9491 1.53548 11.0501 2.70705 9.87856L3.70705 8.87856C3.89444 8.6911 3.99897 8.43659 3.99904 8.17153V6.99965C3.99907 5.34297 5.3424 3.99989 6.99904 3.99965H8.17092C8.43612 3.99965 8.69041 3.89419 8.87795 3.70668L9.87795 2.70668ZM15.0733 8.93032C14.6209 8.61362 13.9974 8.72403 13.6807 9.17641L10.8194 13.2633L9.65822 12.2467C9.24258 11.8831 8.61074 11.9259 8.24709 12.3414C7.8835 12.7572 7.92523 13.3889 8.34084 13.7526L10.3408 15.5026C10.5545 15.6896 10.8381 15.7769 11.1201 15.7428C11.4019 15.7086 11.6555 15.5555 11.8184 15.3229L15.3184 10.3229C15.6351 9.87048 15.5257 9.24705 15.0733 8.93032Z" fill="black"/>
</svg>
