<svg width="24" height="24" viewBox="0 0 24 24" fill="none" xmlns="http://www.w3.org/2000/svg">
<path fill-rule="evenodd" clip-rule="evenodd" d="M10.6943 3.23425C11.6761 2.60303 13 3.30263 13 4.49987V19.4999C13 20.7359 11.5884 21.4417 10.5996 20.7001L5.93359 17.2001C5.76061 17.0703 5.54946 16.9999 5.33301 16.9999H4C2.34318 16.9999 1.00003 15.6567 1 13.9999V9.99987C1.00001 8.34303 2.34315 6.99987 4 6.99987H5.33301C5.54939 6.99987 5.76051 6.92949 5.93359 6.79968L10.5996 3.29968L10.6943 3.23425ZM7.13379 8.40026C6.61449 8.78975 5.98211 8.99987 5.33301 8.99987H4C3.44772 8.99987 3.00001 9.4476 3 9.99987V13.9999C3.00003 14.5521 3.44773 14.9999 4 14.9999H5.33301C5.98203 14.9999 6.61439 15.2099 7.13379 15.5995L11 18.4989V5.49987L7.13379 8.40026Z" fill="black"/>
<path d="M18.3643 4.22253C18.7548 3.83214 19.3878 3.83207 19.7783 4.22253C21.7678 6.21202 23 8.9637 23 12.0008C22.9999 15.0381 21.7678 17.7898 19.7783 19.7792C19.3879 20.1694 18.7548 20.1692 18.3643 19.7792C17.9738 19.3886 17.9737 18.7546 18.3643 18.3641C19.9938 16.7345 20.9999 14.4862 21 12.0008C21 9.51544 19.994 7.26634 18.3643 5.63659C17.9737 5.24607 17.9737 4.61305 18.3643 4.22253Z" fill="black"/>
<path d="M15.1816 7.40417C15.5722 7.01366 16.2062 7.01366 16.5967 7.40417C17.7716 8.57924 18.4999 10.2055 18.5 11.9999C18.5 13.7944 17.7717 15.4214 16.5967 16.5966C16.2062 16.9871 15.5722 16.9871 15.1816 16.5966C14.7913 16.2061 14.7915 15.573 15.1816 15.1825C15.9971 14.3671 16.5 13.2428 16.5 11.9999C16.4999 10.7571 15.997 9.63358 15.1816 8.81823C14.7914 8.42777 14.7914 7.79465 15.1816 7.40417Z" fill="black"/>
</svg>
