<svg width="24" height="24" viewBox="0 0 24 24" fill="none" xmlns="http://www.w3.org/2000/svg">
<path d="M10.5996 3.29976C11.5885 2.55812 13 3.26388 13 4.49995V19.5C13 20.736 11.5885 21.4417 10.5996 20.7001L5.93359 17.2001C5.7605 17.0703 5.54938 17 5.33301 17H4C2.34316 17 1.00001 15.6568 1 14V9.99995C1 8.3431 2.34315 6.99995 4 6.99995H5.33301C5.54938 6.99995 5.7605 6.92958 5.93359 6.79976L10.5996 3.29976Z" fill="black"/>
<path d="M19.0713 3.92964C19.3276 3.92933 19.5838 4.02711 19.7793 4.22261C21.7688 6.21212 23.001 8.9636 23.001 12.0009C23.0009 15.038 21.7688 17.7898 19.7793 19.7792C19.5838 19.9746 19.3275 20.0715 19.0713 20.0712C18.8155 20.0713 18.5596 19.9743 18.3643 19.7792C17.9738 19.3887 17.9738 18.7547 18.3643 18.3642C19.9938 16.7346 20.9999 14.4862 21 12.0009C21 9.5154 19.994 7.26644 18.3643 5.63667C17.9738 5.24615 17.9738 4.61313 18.3643 4.22261C18.5596 4.02737 18.8153 3.92958 19.0713 3.92964Z" fill="black"/>
<path d="M15.8906 7.11128C16.1465 7.11129 16.4024 7.20899 16.5977 7.40425C17.7728 8.57934 18.5019 10.2055 18.502 12C18.502 13.7947 17.7729 15.4214 16.5977 16.5966C16.4022 16.7921 16.1459 16.8889 15.8896 16.8886C15.6335 16.8888 15.377 16.792 15.1816 16.5966C14.7913 16.2062 14.7915 15.5731 15.1816 15.1826C15.997 14.3672 16.5 13.2429 16.5 12C16.4999 10.7572 15.997 9.63367 15.1816 8.81831C14.7914 8.42785 14.7914 7.79472 15.1816 7.40425C15.3768 7.20908 15.6329 7.11138 15.8887 7.11128H15.8906Z" fill="black"/>
</svg>
