<svg width="24" height="24" viewBox="0 0 24 24" fill="none" xmlns="http://www.w3.org/2000/svg">
<path d="M19.2931 3.29256C19.6836 2.90233 20.3167 2.90217 20.7072 3.29256C21.0976 3.68299 21.0974 4.31607 20.7072 4.70662L4.70716 20.7066C4.31663 21.0971 3.68363 21.0971 3.2931 20.7066C2.90262 20.3161 2.90259 19.683 3.2931 19.2926L6.19153 16.3941C5.46749 15.8464 5.00013 14.9774 5.00013 13.9996V9.99959C5.0002 8.34279 6.34332 6.99959 8.00013 6.99959H9.33314C9.54944 6.99959 9.75968 6.92915 9.93274 6.79939L14.5997 3.29939C15.5886 2.55784 17 3.26363 17.0001 4.49959V5.58552L19.2931 3.29256Z" fill="black"/>
<path d="M17.0001 19.4996C17.0001 20.7357 15.5886 21.4414 14.5997 20.6998L10.5675 17.6754L17.0001 11.2428V19.4996Z" fill="black"/>
</svg>
