<svg width="24" height="24" viewBox="0 0 24 24" fill="none" xmlns="http://www.w3.org/2000/svg">
<path d="M6.30829 2.16102C6.74876 1.87493 7.33593 1.97889 7.65204 2.39833C8.48586 3.50479 8.95216 4.69283 8.737 5.90419C8.53336 7.05041 7.76382 7.96907 6.69501 8.70497C7.11796 9.68965 7.05449 10.8264 6.69696 12.0018C6.66594 12.1036 6.61995 12.1969 6.5622 12.2802C7.22716 12.9185 7.64797 13.8162 7.89228 14.8505C7.92454 14.9871 7.9271 15.1244 7.90399 15.2548C9.85922 15.4351 11.7181 17.1717 11.4802 19.2372C11.3528 20.3415 10.6285 21.2889 9.40692 21.8954C8.91222 22.1409 8.31165 21.9389 8.0661 21.4442C7.82087 20.9496 8.02279 20.3499 8.51728 20.1044C9.122 19.8043 9.36502 19.466 9.4538 19.1903C8.71981 19.6467 7.92132 19.878 7.07196 19.788C5.98271 19.6726 5.0125 19.0492 4.15399 18.1415C3.78106 17.7472 3.79051 17.1274 4.17548 16.745C4.35052 16.5712 4.52987 16.4129 4.71161 16.2704C4.29715 16.201 3.90118 16.0656 3.53095 15.8534C2.46266 15.2411 1.84542 14.1251 1.52704 12.7772C1.40565 12.2624 1.70595 11.7417 2.21259 11.5897C2.46632 11.5136 2.71872 11.4514 2.96747 11.4042C2.75707 11.1944 2.5734 10.959 2.4206 10.6962C1.80176 9.63206 1.83028 8.35749 2.2331 7.03309C2.38631 6.52941 2.90394 6.23014 3.41669 6.3495C3.66628 6.40762 3.90813 6.47633 4.14032 6.55555C4.02174 6.07192 3.99574 5.58032 4.08368 5.08485C4.29871 3.87419 5.14483 2.91677 6.30829 2.16102Z" fill="black"/>
<path d="M16.3483 2.39833C16.6645 1.97891 17.2516 1.875 17.6921 2.16102C18.8555 2.91677 19.7017 3.87419 19.9167 5.08485C20.0046 5.58032 19.9786 6.07191 19.86 6.55555C20.0921 6.47635 20.3341 6.40761 20.5837 6.3495C21.0964 6.23014 21.6141 6.52941 21.7673 7.03309C22.1701 8.35752 22.1986 9.63204 21.5798 10.6962C21.427 10.959 21.2433 11.1944 21.0329 11.4042C21.2816 11.4514 21.534 11.5136 21.7878 11.5897C22.2944 11.7417 22.5948 12.2623 22.4733 12.7772C22.1549 14.1251 21.5377 15.2411 20.4694 15.8534C20.0993 16.0655 19.704 16.201 19.2897 16.2704C19.4713 16.4128 19.6499 16.5713 19.8249 16.745C20.2099 17.1274 20.2194 17.7472 19.8464 18.1415C18.9879 19.0492 18.0177 19.6726 16.9284 19.788C16.0791 19.878 15.2806 19.6467 14.5466 19.1903C14.6354 19.466 14.8783 19.8043 15.4831 20.1044C15.9777 20.3499 16.1795 20.9496 15.9343 21.4442C15.6887 21.9389 15.0881 22.1409 14.5934 21.8954C13.3718 21.2889 12.6476 20.3414 12.5202 19.2372C12.2822 17.1717 14.1412 15.4351 16.0964 15.2548C16.0733 15.1244 16.0758 14.9871 16.1081 14.8505C16.3524 13.8162 16.7732 12.9185 17.4382 12.2802C17.3805 12.1969 17.3345 12.1036 17.3034 12.0018C16.9459 10.8263 16.8832 9.6897 17.3063 8.70497C16.2374 7.96905 15.467 7.0505 15.2634 5.90419C15.0482 4.69283 15.5145 3.50478 16.3483 2.39833Z" fill="black"/>
</svg>
