<svg width="24" height="24" viewBox="0 0 24 24" fill="none" xmlns="http://www.w3.org/2000/svg">
<path fill-rule="evenodd" clip-rule="evenodd" d="M6.39292 2.11202C6.8214 1.88947 7.35545 2.00506 7.65171 2.39815C8.48551 3.50454 8.95266 4.69272 8.73765 5.90401C8.53393 7.05052 7.76198 7.96784 6.69273 8.70382C7.11633 9.68864 7.05512 10.825 6.69761 12.0007C6.66653 12.1029 6.61887 12.1965 6.56089 12.28C7.22641 12.9183 7.64751 13.8156 7.89195 14.8503C7.92431 14.9873 7.92603 15.1248 7.90269 15.2556C8.91456 15.3487 9.81048 15.8119 10.4505 16.4636C11.1483 17.1741 11.603 18.1757 11.4808 19.237C11.3534 20.3413 10.6282 21.2887 9.40659 21.8952C8.9119 22.1408 8.3123 21.9387 8.06675 21.4441C7.82133 20.9494 8.02328 20.3497 8.51792 20.1042C9.12171 19.8043 9.36261 19.4656 9.45152 19.1901C8.71805 19.6458 7.92024 19.8777 7.07163 19.7878C5.98244 19.6722 5.01213 19.0489 4.15366 18.1413C3.78062 17.7469 3.79086 17.1263 4.17612 16.7439C4.35164 16.5697 4.53197 16.412 4.71421 16.2692C4.29881 16.1999 3.90161 16.0658 3.53062 15.8532C2.46247 15.2409 1.84507 14.1249 1.52671 12.7771C1.40543 12.2622 1.70647 11.7415 2.21323 11.5896C2.46676 11.5136 2.7186 11.4502 2.96714 11.403C2.75696 11.1933 2.57294 10.9585 2.42027 10.696C1.80159 9.63198 1.83005 8.35715 2.23277 7.03292L2.26597 6.94015C2.45113 6.49323 2.93595 6.23757 3.41636 6.34933C3.66651 6.40757 3.90927 6.47593 4.14195 6.55538C4.02322 6.07146 3.9953 5.57946 4.08335 5.0837C4.29856 3.87334 5.14567 2.91647 6.30894 2.16085L6.39292 2.11202ZM7.56284 17.237C7.24157 17.2319 6.87541 17.3046 6.48374 17.5017C6.78389 17.6851 7.04959 17.7748 7.28257 17.7995C7.61195 17.8344 7.99478 17.7541 8.45152 17.4558C8.18383 17.3238 7.88219 17.2422 7.56284 17.237ZM3.81773 13.3054C4.02977 13.7259 4.27688 13.9752 4.52573 14.1179C4.77687 14.2617 5.1221 14.3504 5.60093 14.321C5.38908 13.9013 5.14243 13.652 4.8939 13.5095C4.6427 13.3655 4.29683 13.2759 3.81773 13.3054ZM3.94663 8.63253C3.91707 9.10507 4.0067 9.44402 4.14976 9.69015C4.29443 9.93892 4.5495 10.1882 4.98374 10.4011C5.01324 9.92885 4.92454 9.58952 4.78159 9.34347C4.6369 9.09471 4.38086 8.8454 3.94663 8.63253ZM6.59116 4.48507C6.25656 4.83209 6.10317 5.15268 6.05308 5.43429C6.00342 5.71443 6.0362 6.06503 6.22886 6.50167C6.56311 6.15487 6.71783 5.83586 6.76792 5.5544C6.81765 5.27398 6.78433 4.92233 6.59116 4.48507Z" fill="black"/>
<path fill-rule="evenodd" clip-rule="evenodd" d="M16.4105 2.32296C16.737 1.96717 17.2789 1.89285 17.6917 2.16085C18.855 2.91648 19.7022 3.87332 19.9173 5.0837C20.0054 5.57948 19.9765 6.07144 19.8578 6.55538C20.0907 6.47583 20.3339 6.40762 20.5843 6.34933L20.68 6.33175C21.1598 6.26812 21.6242 6.56086 21.7679 7.03292C22.1706 8.35703 22.1989 9.63204 21.5804 10.696C21.4277 10.9586 21.2428 11.1933 21.0326 11.403C21.2815 11.4503 21.5336 11.5134 21.7875 11.5896C22.294 11.7416 22.5951 12.2623 22.474 12.7771C22.1556 14.1247 21.538 15.2409 20.4701 15.8532C20.0989 16.066 19.7012 16.2 19.2855 16.2692C19.468 16.4122 19.6488 16.5694 19.8246 16.7439C20.2097 17.1262 20.2197 17.7469 19.847 18.1413C18.9887 19.0488 18.0181 19.6721 16.9291 19.7878C16.0801 19.8778 15.2819 19.646 14.5482 19.1901C14.637 19.4658 14.8785 19.8042 15.4828 20.1042C15.9772 20.3497 16.1791 20.9495 15.9339 21.4441C15.6884 21.9387 15.0887 22.1406 14.5941 21.8952C13.3722 21.2887 12.6473 20.3414 12.5199 19.237C12.3977 18.1756 12.8524 17.1741 13.5501 16.4636C14.1901 15.8122 15.0856 15.3488 16.097 15.2556C16.0737 15.1248 16.0764 14.9873 16.1087 14.8503C16.3531 13.8159 16.7736 12.9182 17.4388 12.28C17.3809 12.1965 17.3341 12.1028 17.3031 12.0007C16.9456 10.825 16.8835 9.68861 17.307 8.70382C16.2379 7.9679 15.4678 7.05034 15.264 5.90401C15.049 4.69268 15.5152 3.5046 16.349 2.39815L16.4105 2.32296ZM16.4378 17.237C16.1182 17.2421 15.8161 17.3236 15.5482 17.4558C16.0053 17.7545 16.3885 17.8345 16.7181 17.7995C16.9509 17.7748 17.2162 17.6848 17.516 17.5017C17.1246 17.3048 16.7589 17.232 16.4378 17.237ZM20.182 13.3054C19.7034 13.276 19.3579 13.3657 19.1068 13.5095C18.8582 13.652 18.6107 13.9012 18.3988 14.321C18.878 14.3506 19.2237 14.2619 19.475 14.1179C19.7236 13.9753 19.9701 13.7255 20.182 13.3054ZM20.0531 8.63253C19.6194 8.84524 19.3637 9.09493 19.2191 9.34347C19.0762 9.58951 18.9865 9.92886 19.016 10.4011C19.4504 10.1882 19.7062 9.939 19.8509 9.69015C19.9939 9.44403 20.0826 9.10491 20.0531 8.63253ZM17.4085 4.48507C17.2155 4.92222 17.183 5.27403 17.2328 5.5544C17.2829 5.83582 17.4367 6.15494 17.7709 6.50167C17.9636 6.06498 17.9973 5.71445 17.9476 5.43429C17.8975 5.15253 17.7435 4.83231 17.4085 4.48507Z" fill="black"/>
</svg>
