<svg width="24" height="24" viewBox="0 0 24 24" fill="none" xmlns="http://www.w3.org/2000/svg">
<path fill-rule="evenodd" clip-rule="evenodd" d="M11 3C15.4183 3 19 6.58172 19 11C19 12.8485 18.3731 14.5507 17.3203 15.9053L20.707 19.293C21.0973 19.6835 21.0975 20.3166 20.707 20.707C20.3166 21.0975 19.6835 21.0973 19.293 20.707L15.9053 17.3203C14.5507 18.3731 12.8485 19 11 19C6.58172 19 3 15.4183 3 11C3 6.58172 6.58172 3 11 3ZM8 10C7.44772 10 7 10.4477 7 11C7 11.5523 7.44772 12 8 12H14C14.5523 12 15 11.5523 15 11C15 10.4477 14.5523 10 14 10H8Z" fill="black"/>
</svg>
