<svg width="260" height="100" viewBox="0 0 260 100" fill="none" xmlns="http://www.w3.org/2000/svg">
<path d="M33.3333 100H0V0H33.3333V100Z" fill="black"/>
<path d="M92.5996 0C81.0108 11.8885 73.3333 29.3833 73.3333 50C73.3333 70.6167 81.0108 88.1115 92.5996 100H52.0879C44.3487 85.0811 40 67.8992 40 50C40 32.1008 44.3487 14.9189 52.0879 0H92.5996Z" fill="black"/>
<path fill-rule="evenodd" clip-rule="evenodd" d="M130 0C157.614 0 180 22.3858 180 50C180 77.6142 157.614 100 130 100C102.386 100 80 77.6142 80 50C80 22.3858 102.386 0 130 0ZM130 33.3333C120.795 33.3333 113.333 40.7953 113.333 50C113.333 59.2047 120.795 66.6667 130 66.6667C139.205 66.6667 146.667 59.2047 146.667 50C146.667 40.7953 139.205 33.3333 130 33.3333Z" fill="black"/>
<path d="M207.912 0C215.651 14.9189 220 32.1008 220 50C220 67.8992 215.651 85.0811 207.912 100H167.4C178.989 88.1115 186.667 70.6167 186.667 50C186.667 29.3833 178.989 11.8885 167.4 0H207.912Z" fill="black"/>
<path d="M260 100H226.667V0H260V100Z" fill="black"/>
</svg>
