<svg width="1528" height="580" viewBox="0 0 1528 580" fill="none" xmlns="http://www.w3.org/2000/svg">
<path fill-rule="evenodd" clip-rule="evenodd" d="M302.315 376.915C321.45 376.915 338.473 381.264 353.383 389.962C368.293 398.411 379.974 410.214 388.423 425.373C396.872 440.283 401.096 457.307 401.096 476.441C401.096 490.855 398.611 504.149 393.641 516.326C388.919 528.503 382.086 539.065 373.14 548.011C364.194 556.957 353.632 563.915 341.455 568.885C329.527 573.855 316.48 576.34 302.315 576.34C283.181 576.34 266.158 571.991 251.248 563.294C236.338 554.596 224.657 542.792 216.208 527.882C207.759 512.723 203.535 495.576 203.535 476.441C203.535 462.277 205.896 449.105 210.617 436.929C215.587 424.752 222.545 414.19 231.491 405.244C240.437 396.298 250.875 389.34 262.803 384.37C274.731 379.4 287.902 376.915 302.315 376.915ZM302.315 417.546C292.127 417.546 283.18 420.031 275.477 425.001C267.773 429.971 261.809 436.929 257.585 445.875C253.609 454.573 251.62 464.762 251.62 476.441C251.62 488.121 253.609 498.434 257.585 507.38C261.81 516.326 267.773 523.285 275.477 528.255C283.18 533.225 292.127 535.71 302.315 535.71C312.504 535.71 321.326 533.225 328.781 528.255C336.485 523.285 342.449 516.326 346.674 507.38C351.147 498.434 353.383 488.121 353.383 476.441C353.383 464.762 351.147 454.573 346.674 445.875C342.449 436.929 336.485 429.971 328.781 425.001C321.326 420.031 312.504 417.546 302.315 417.546Z" fill="black"/>
<path fill-rule="evenodd" clip-rule="evenodd" d="M836.741 376.915C855.876 376.915 872.899 381.264 887.81 389.962C902.72 398.411 914.4 410.214 922.849 425.373C931.298 440.283 935.522 457.307 935.522 476.441C935.522 490.855 933.037 504.15 928.067 516.326C923.346 528.503 916.512 539.065 907.565 548.011C898.619 556.957 888.058 563.915 875.881 568.885C863.953 573.855 850.906 576.34 836.741 576.34C817.607 576.34 800.584 571.992 785.674 563.294C770.764 554.596 759.084 542.792 750.635 527.882C742.186 512.723 737.961 495.576 737.961 476.441C737.961 462.277 740.321 449.105 745.043 436.929C750.013 424.752 756.972 414.19 765.918 405.244C774.864 396.298 785.301 389.34 797.229 384.37C809.158 379.4 822.328 376.915 836.741 376.915ZM836.741 417.546C826.553 417.546 817.607 420.031 809.903 425.001C802.2 429.971 796.235 436.929 792.011 445.875C788.035 454.573 786.047 464.762 786.047 476.441C786.047 488.121 788.035 498.434 792.011 507.38C796.235 516.326 802.2 523.285 809.903 528.255C817.607 533.225 826.553 535.71 836.741 535.71C846.93 535.71 855.752 533.225 863.207 528.255C870.911 523.285 876.875 516.326 881.1 507.38C885.573 498.434 887.81 488.121 887.81 476.441C887.81 464.762 885.573 454.573 881.1 445.875C876.875 436.929 870.911 429.971 863.207 425.001C855.752 420.031 846.93 417.546 836.741 417.546Z" fill="black"/>
<path fill-rule="evenodd" clip-rule="evenodd" d="M1238.92 376.915C1254.57 376.915 1268.24 379.649 1279.92 385.116C1291.85 390.335 1301.67 397.541 1309.37 406.735C1317.32 415.681 1323.16 425.746 1326.89 436.929C1330.86 448.111 1332.85 459.543 1332.85 471.223C1332.85 475.199 1332.73 478.926 1332.48 482.405C1332.23 485.883 1332.11 487.871 1332.11 488.369H1190.84C1192.51 501.759 1196.98 512.57 1204.25 520.8C1213.94 531.485 1226.74 536.828 1242.65 536.828C1253.33 536.828 1262.53 534.468 1270.23 529.746C1277.93 525.024 1282.9 518.438 1285.14 509.989H1331.73C1329.5 523.906 1324.28 535.834 1316.08 545.774C1307.88 555.715 1297.32 563.294 1284.39 568.513C1271.72 573.731 1257.43 576.34 1241.53 576.34C1225.62 576.34 1211.58 573.607 1199.41 568.14C1187.48 562.424 1177.41 554.844 1169.21 545.401C1161.01 535.958 1154.8 525.273 1150.57 513.345C1146.6 501.417 1144.61 489.115 1144.61 476.441C1144.61 463.768 1146.47 451.591 1150.2 439.911C1154.18 427.983 1160.02 417.297 1167.72 407.854C1175.67 398.411 1185.49 390.955 1197.17 385.488C1209.1 379.773 1223.01 376.915 1238.92 376.915ZM1238.92 412.7C1231.21 412.7 1224.38 414.191 1218.42 417.173C1212.45 419.906 1207.36 424.007 1203.13 429.474C1198.91 434.692 1195.68 441.278 1193.44 449.23C1193.09 450.445 1192.76 451.688 1192.47 452.958H1282.16C1281.66 445.254 1279.55 438.42 1275.82 432.456C1272.34 426.243 1267.5 421.397 1261.28 417.918C1255.07 414.439 1247.62 412.7 1238.92 412.7Z" fill="black"/>
<path d="M49.9492 419.187L153.203 304.601H220.3L119.483 412.362L229.991 573.358H166.623L83.5967 450.721L49.9492 486.687V573.358H0V304.601H49.9492V419.187Z" fill="black"/>
<path d="M522.228 376.915C524.961 376.915 527.323 377.04 529.311 377.288C531.547 377.288 533.535 377.536 535.274 378.033V422.765C532.541 422.268 529.559 421.77 526.328 421.273C523.346 420.776 520.116 420.527 516.637 420.527C507.691 420.527 499.117 423.261 490.916 428.729C482.964 434.196 476.503 443.018 471.533 455.194C466.563 467.122 464.078 482.778 464.078 502.161V573.358H417.11V379.897H464.078V415.309C467.06 408.102 471.533 401.641 477.497 395.926C483.71 389.962 490.668 385.364 498.371 382.134C506.323 378.655 514.276 376.915 522.228 376.915Z" fill="black"/>
<path d="M591.863 409.718C598.324 399.529 606.897 391.577 617.583 385.861C628.269 379.897 640.322 376.915 653.741 376.915C667.906 376.915 680.207 379.773 690.644 385.488C701.081 391.204 709.282 399.281 715.246 409.718C721.21 420.155 724.191 432.456 724.191 446.621V573.358H677.225V457.804C677.225 446.124 673.87 436.68 667.16 429.474C660.451 422.267 651.379 418.664 639.948 418.664C629.76 418.664 621.062 421.397 613.855 426.864C606.649 432.331 601.182 440.284 597.454 450.721C593.727 461.158 591.863 473.832 591.863 488.742V573.358H544.896V301.618H591.863V409.718Z" fill="black"/>
<path d="M1060.38 376.915C1074.3 376.915 1086.47 379.773 1096.91 385.488C1107.6 391.204 1115.8 399.281 1121.51 409.718C1127.48 420.155 1130.46 432.456 1130.46 446.621V573.358H1083.87V457.431C1083.87 445.999 1080.51 436.68 1073.8 429.474C1067.09 422.267 1058.02 418.664 1046.59 418.664C1036.4 418.664 1027.7 421.397 1020.5 426.864C1013.29 432.331 1007.82 440.284 1004.09 450.721C1000.37 461.158 998.504 473.708 998.504 488.369V573.358H951.536V379.897H998.504V409.718C1004.96 399.778 1013.54 391.825 1024.22 385.861C1034.91 379.897 1046.96 376.915 1060.38 376.915Z" fill="black"/>
<path d="M1457.92 376.915C1471.84 376.915 1484.01 379.773 1494.45 385.488C1505.14 391.204 1513.34 399.281 1519.05 409.718C1525.02 420.155 1528 432.456 1528 446.621V573.358H1481.41V457.431C1481.41 445.999 1478.05 436.68 1471.34 429.474C1464.63 422.267 1455.56 418.664 1444.13 418.664C1433.94 418.664 1425.24 421.397 1418.04 426.864C1410.83 432.331 1405.36 440.284 1401.63 450.721C1397.91 461.158 1396.04 473.708 1396.04 488.369V573.358H1349.08V379.897H1396.04V409.718C1402.51 399.778 1411.08 391.825 1421.76 385.861C1432.45 379.897 1444.5 376.915 1457.92 376.915Z" fill="black"/>
<path fill-rule="evenodd" clip-rule="evenodd" d="M584.824 78.2969C603.959 78.2969 620.982 82.6461 635.893 91.3438C650.803 99.7928 662.483 111.596 670.932 126.755C679.381 141.665 683.605 158.688 683.605 177.823C683.605 192.236 681.12 205.531 676.15 217.708C671.429 229.885 664.595 240.446 655.648 249.393C646.702 258.339 636.141 265.297 623.964 270.267C612.036 275.237 598.989 277.722 584.824 277.722C565.69 277.722 548.667 273.373 533.757 264.676C518.847 255.978 507.167 244.174 498.718 229.264C490.269 214.105 486.044 196.958 486.044 177.823C486.044 163.658 488.404 150.487 493.126 138.311C498.096 126.134 505.055 115.572 514.001 106.626C522.947 97.68 533.384 90.722 545.312 85.752C557.241 80.7819 570.411 78.2969 584.824 78.2969ZM584.824 118.928C574.636 118.928 565.69 121.413 557.986 126.383C550.283 131.353 544.318 138.311 540.094 147.257C536.118 155.955 534.13 166.144 534.13 177.823C534.13 189.503 536.118 199.816 540.094 208.762C544.318 217.708 550.283 224.667 557.986 229.637C565.69 234.607 574.636 237.092 584.824 237.092C595.013 237.092 603.835 234.607 611.29 229.637C618.994 224.667 624.958 217.708 629.183 208.762C633.656 199.816 635.893 189.503 635.893 177.823C635.893 166.144 633.656 155.955 629.183 147.257C624.958 138.311 618.994 131.353 611.29 126.383C603.835 121.413 595.013 118.928 584.824 118.928Z" fill="black"/>
<path d="M296.249 274.741H249.282V81.2803H296.249V274.741Z" fill="black"/>
<path d="M144.257 152.104C149.724 161.298 154.57 169.623 158.795 177.078C163.019 184.533 166.25 190.498 168.486 194.971C170.953 199.411 172.196 201.647 172.214 201.68C172.212 201.643 172.087 199.158 171.841 194.225C171.592 189.006 171.344 182.172 171.096 173.724C170.847 165.026 170.723 155.334 170.723 144.648V5.98242H220.3V274.74H166.623L76.043 129.365C70.5759 120.171 65.7295 111.846 61.5049 104.391C57.2803 96.687 53.9255 90.7226 51.4404 86.498C49.2039 82.025 48.0859 79.7881 48.0859 79.7881C48.0859 79.7881 48.2095 82.2733 48.458 87.2432C48.955 92.2132 49.3286 99.0475 49.5771 107.745C49.8257 116.194 49.9492 125.886 49.9492 136.82V274.74H0V5.98242H53.6768L144.257 152.104Z" fill="black"/>
<path d="M369.068 149.866L439.146 81.2793H503.634L424.981 156.949L509.225 274.74H451.074L392.925 188.633L369.068 211.371V274.74H322.101V3H369.068V149.866Z" fill="black"/>
<path d="M298.485 53.3232H247.418V4.11914H298.485V53.3232Z" fill="black"/>
</svg>
