<svg width="74" height="74" viewBox="0 0 74 74" fill="none" xmlns="http://www.w3.org/2000/svg">
<path d="M37 65.5208C52.7516 65.5208 65.5208 52.7516 65.5208 37C65.5208 21.2484 52.7516 8.47916 37 8.47916C21.2484 8.47916 8.47917 21.2484 8.47917 37C8.47917 52.7516 21.2484 65.5208 37 65.5208Z" stroke="black" stroke-width="3"/>
<path d="M37 65.5208C42.9601 65.5208 47.7917 52.7516 47.7917 37C47.7917 21.2484 42.9601 8.47916 37 8.47916C31.0399 8.47916 26.2083 21.2484 26.2083 37C26.2083 52.7516 31.0399 65.5208 37 65.5208Z" stroke="black" stroke-width="3"/>
<path d="M10.7917 28.5208H63.2083" stroke="black" stroke-width="3"/>
<path d="M10.7917 45.4792H63.2083" stroke="black" stroke-width="3"/>
</svg>
