<svg width="180" height="180" viewBox="0 0 180 180" fill="none" xmlns="http://www.w3.org/2000/svg">
<g clip-path="url(#clip0_165_161)">
<circle cx="90" cy="90" r="90" fill="white"/>
<path d="M63 122.89V58H75.96L97.83 93.28C99.15 95.5 100.32 97.51 101.34 99.31C102.36 101.11 103.14 102.55 103.68 103.63C104.28 104.71 104.58 105.25 104.58 105.25C104.58 105.25 104.55 104.65 104.49 103.45C104.43 102.19 104.37 100.54 104.31 98.5C104.25 96.4 104.22 94.06 104.22 91.48V58H116.19V122.89H103.23L81.36 87.79C80.04 85.57 78.87 83.56 77.85 81.76C76.83 79.9 76.02 78.46 75.42 77.44C74.88 76.36 74.61 75.82 74.61 75.82C74.61 75.82 74.64 76.42 74.7 77.62C74.82 78.82 74.91 80.47 74.97 82.57C75.03 84.61 75.06 86.95 75.06 89.59V122.89H63Z" fill="black"/>
</g>
<defs>
<clipPath id="clip0_165_161">
<rect width="180" height="180" fill="white"/>
</clipPath>
</defs>
</svg>
