<svg width="180" height="180" viewBox="0 0 180 180" fill="none" xmlns="http://www.w3.org/2000/svg">
<rect width="180" height="180" fill="#570140"/>
<path d="M37.2051 118H19V63H37.2051V118Z" fill="#C4DEFF"/>
<path d="M69.5736 63C63.2444 69.5387 59.0513 79.1608 59.0513 90.5C59.0513 101.839 63.2444 111.461 69.5736 118H47.448C43.2212 109.795 40.8462 100.345 40.8462 90.5C40.8462 80.6554 43.2212 71.2054 47.448 63H69.5736Z" fill="#C4DEFF"/>
<path fill-rule="evenodd" clip-rule="evenodd" d="M90 63C105.082 63 117.308 75.3122 117.308 90.5C117.308 105.688 105.082 118 90 118C74.9184 118 62.6923 105.688 62.6923 90.5C62.6923 75.3122 74.9184 63 90 63ZM90 81.3333C84.9728 81.3333 80.8974 85.4374 80.8974 90.5C80.8974 95.5626 84.9728 99.6667 90 99.6667C95.0272 99.6667 99.1026 95.5626 99.1026 90.5C99.1026 85.4374 95.0272 81.3333 90 81.3333Z" fill="#C4DEFF"/>
<path d="M132.552 63C136.779 71.2054 139.154 80.6554 139.154 90.5C139.154 100.345 136.779 109.795 132.552 118H110.426C116.756 111.461 120.949 101.839 120.949 90.5C120.949 79.1608 116.756 69.5387 110.426 63H132.552Z" fill="#C4DEFF"/>
<path d="M161 118H142.795V63H161V118Z" fill="#C4DEFF"/>
</svg>
